<ttFont>
<head>
        <!-- Most of this table will be recalculated by the compiler -->
        <tableVersion value="1.0"/>
        <fontRevision value="1.002"/>
        <checkSumAdjustment value="0xbe95d284"/>
        <magicNumber value="0x5f0f3cf5"/>
        <flags value="00000000 00000011"/>
        <unitsPerEm value="1000"/>
        <created value="Fri Jan 15 17:45:07 2016"/>
        <modified value="Fri Jan 15 22:45:08 2016"/>
        <xMin value="-1787"/>
        <yMin value="-395"/>
        <xMax value="863"/>
        <yMax value="1271"/>
        <macStyle value="00000000 00000010"/>
        <lowestRecPPEM value="3"/>
        <fontDirectionHint value="2"/>
        <indexToLocFormat value="0"/>
        <glyphDataFormat value="0"/>
    </head>
                    <CharString index="0">
                        rmoveto
26 -65 89 20 160 56 88 57 rlinecurve
-97 118 -73 -65 -122 -83 -71 -38 rlinecurve
return
                    </CharString>
                    <CharString index="1">
                        rmoveto
188 -97 76 -127 -196 -136 -212 -241 -188 96 -75 128 195 137 212 240 vhcurveto
-389 87 callsubr
150 58 161 90 44 29 -38 -94 -150 -57 -161 -90 -45 -29 38 94 vhcurveto
endchar
                    </CharString>
                    <CharString index="2">
                        rmoveto
142 98 64 186 37 hvcurveto
88 452 rlineto
-160 hlineto
-88 -455 rlineto
-84 callsubr
rlineto
-220 -43 90 -75 149 hhcurveto
endchar
                    </CharString>
                    <CharString index="3">
                        rmoveto
-63 -55 -43 -36 -46 hhcurveto
-50 -33 33 73 -33 hvcurveto
-113 -61 rlineto
-107 41 72 -57 84 hhcurveto
87 93 61 104 83 hvcurveto
return
                    </CharString>
                    <CharString index="4">
                        -68 callgsubr
-23 callsubr
vhcurveto
-76 -48 36 -60 55 32 0 callsubr
rlinecurve
-68 callsubr
return
                    </CharString>
                    <CharString index="5">
                        rmoveto
50 154 -178 -3 -37 -152 rlineto
-85 hmoveto
49 153 -176 -2 -39 -153 rlineto
return
                    </CharString>
                    <CharString index="6">
                        rmoveto
hintmask 00111100
-71 callgsubr
hintmask 01011100
-89 callgsubr
hintmask 10011100
-9 callgsubr
hintmask 00111100
-87 callsubr
                    </CharString>
                    <CharString index="7">
                        -284 hlineto
30 153 rlineto
233 hlineto
24 116 rlineto
-234 hlineto
30 153 rlineto
277 hlineto
25 133 rlineto
-436 -28 callsubr
return
                    </CharString>
                    <CharString index="8">
                        rmoveto
-25 -21 17 48 111 57 139 66 19 31 -6 -11 34 hvcurveto
-15 -81 -21 -107 -10 -51 rrcurveto
-35 -42 -44 -24 -29 hhcurveto
endchar
                    </CharString>
                    <CharString index="9">
                        -60 -24 -51 -22 -42 -19 rrcurveto
-26 19 -18 17 16 vvcurveto
24 32 13 117 -33 vhcurveto
41 109 rlineto
-196 27 -105 -72 -78 vvcurveto
-35 25 -30 32 -27 vhcurveto
return
                    </CharString>
                    <CharString index="10">
                        rmoveto
-94 callsubr
451 hlineto
31 125 rlineto
endchar
                    </CharString>
                    <CharString index="11">
                        rmoveto
-89 callsubr
-51 -185 97 -73 317 139 rlinecurve
endchar
                    </CharString>
                    <CharString index="12">
                        -99 callgsubr
endchar
                    </CharString>
                    <CharString index="13">
                        84 438 rlineto
146 hlineto
23 125 rlineto
-451 hlineto
-24 77 callsubr
146 hlineto
-84 -438 38 callsubr
-25 77 callsubr
return
                    </CharString>
                    <CharString index="14">
                        rmoveto
239 54 89 127 129 vvcurveto
102 -68 53 -99 -109 -84 -67 -98 -105 113 -44 115 67 vhcurveto
-27 -51 -61 -48 -133 -22 rrcurveto
105 216 rmoveto
34 19 31 44 34 37 -22 -61 -5 0 -6 -1 -5 vhcurveto
-79 -40 -54 24 50 vvcurveto
endchar
                    </CharString>
                    <CharString index="15">
                        -14 callsubr
hintmask 10010100
-30 callsubr
hintmask 01100100
-70 callgsubr
hintmask 10011000
-22 callgsubr
return
                    </CharString>
                    <CharString index="16">
                        -76 callsubr
58 59 34 64 60 hvcurveto
-26 callgsubr
                    </CharString>
                    <CharString index="17">
                        rmoveto
54 -46 49 -141 24 vhcurveto
15 64 182 -1 29 99 rlineto
-300 hlineto
-52 -232 rlineto
return
                    </CharString>
                    <CharString index="18">
                        -12 79 -211 -34 -7 10 25 93 rlinecurve
92 355 rlineto
-128 hlineto
-234 -54 11 -77 172 5 -71 -258 return
                    </CharString>
                    <CharString index="19">
                        -87 callgsubr
-14 -104 rlineto
-10 callsubr
endchar
                    </CharString>
                    <CharString index="20">
                        -23 559 rmoveto
8 hlineto
-44 callsubr
-31 callgsubr
                    </CharString>
                    <CharString index="21">
                        81 callgsubr
-501 -104 callgsubr
return
                    </CharString>
                    <CharString index="22">
                        -173 -41 rmoveto
-38 -32 15 26 15 11 18 58 32 hvcurveto
35 -25 29 -23 -21 vvcurveto
-21 -26 -16 -37 vhcurveto
endchar
                    </CharString>
                    <CharString index="23">
                        -80 -15 -34 -31 -49 hhcurveto
-44 -38 25 119 24 hvcurveto
81 422 10 callsubr
-79 -407 return
                    </CharString>
                    <CharString index="24">
                        -74 callsubr
hintmask 11101100
-81 callsubr
hintmask 11011100
13 callsubr
                    </CharString>
                    <CharString index="25">
                        rmoveto
-86 callgsubr
return
                    </CharString>
                    <CharString index="26">
                        -49 -23 54 335 118 hvcurveto
-149 -6 rlineto
-414 -154 62 -104 111 hhcurveto
68 72 36 48 59 hvcurveto
5 -72 7 -60 -17 -17 -23 -24 -107 -6 -169 12 -21 -147 rcurveline
return
                    </CharString>
                    <CharString index="27">
                        rmoveto
hintmask 00101100
174 22 -115 280 rlineto
89 57 63 77 96 vvcurveto
118 -100 91 -328 -46 vhcurveto
hintmask 01010100
-132 -684 rlineto
157 hlineto
108 562 rlineto
89 11 46 -27 -59 vvcurveto
-60 -37 -55 -126 -60 vhcurveto
-1 vlineto
return
                    </CharString>
                    <CharString index="28">
                        813 -107 callsubr
return
                    </CharString>
                    <CharString index="29">
                        rmoveto
95 396 -150 -5 -31 -138 rlineto
-115 -30 -51 46 113 vvcurveto
138 66 159 95 47 12 -42 -97 -3 callgsubr
11 -51 90 -135 hhcurveto
-196 -158 -218 -242 hvcurveto
return
                    </CharString>
                    <CharString index="30">
                        rmoveto
-25 callgsubr
-175 139 -121 331 147 hvcurveto
-11 80 rlineto
-7 callgsubr
47 17 -27 -66 -1 vhcurveto
endchar
                    </CharString>
                    <CharString index="31">
                        -65 callsubr
-8 callgsubr
return
                    </CharString>
                    <CharString index="32">
                        -6 -47 78 callgsubr
-21 54 -24 -23 vvcurveto
-24 -48 -20 -171 20 vhcurveto
return
                    </CharString>
                    <CharString index="33">
                        rmoveto
35 70 -22 118 -4 88 rrcurveto
67 113 41 137 63 vvcurveto
27 -68 17 -39 -49 -79 -170 -179 -5 vhcurveto
-35 -44 -40 -15 -27 hhcurveto
return
                    </CharString>
                    <CharString index="34">
                        111 111 -40 74 -96 hhcurveto
-82 -87 -50 -86 -24 7 -24 12 -22 hvcurveto
-36 -29 -51 -33 -68 -42 32 -68 rcurveline
70 34 59 33 48 31 rrcurveto
return
                    </CharString>
                    <CharString index="35">
                        32 50 -90 72 hhcurveto
62 68 66 88 53 hvcurveto
-73 42 rlineto
-54 -37 -26 -27 -18 hhcurveto
return
                    </CharString>
                    <CharString index="36">
                        -51 callsubr
-8 27 52 11 hvcurveto
return
                    </CharString>
                    <CharString index="37">
                        -60 callgsubr
21 callgsubr
rlinecurve
return
                    </CharString>
                    <CharString index="38">
                        132 hlineto
hintmask 11010000
-15 callsubr
hintmask 10110000
-42 callgsubr
return
                    </CharString>
                    <CharString index="39">
                        -119 566 rmoveto
21 18 -15 -36 -70 -61 -109 -128 -119 hvcurveto
213 6 79 136 65 hhcurveto
return
                    </CharString>
                    <CharString index="40">
                        rmoveto
486 hlineto
19 95 rlineto
-486 hlineto
return
                    </CharString>
                    <CharString index="41">
                        -73 callgsubr
hintmask 10111100
-16 callgsubr
hintmask 11011100
-79 callgsubr
                    </CharString>
                    <CharString index="42">
                        77 359 -150 -8 -103 -145 62 -41 -39 -186 rlineto
return
                    </CharString>
                    <CharString index="43">
                        43 221 rlineto
hintmask 10101000
-7 callsubr
hintmask 10011000
-69 313 rlineto
hintmask 11001000
-2 callgsubr
                    </CharString>
                    <CharString index="44">
                        rmoveto
44 -35 37 -40 32 vhcurveto
34 15 40 17 48 19 -34 64 rcurveline
return
                    </CharString>
                    <CharString index="45">
                        rmoveto
24 19 -11 -21 13 hvcurveto
-197 -280 rlineto
157 54 155 87 vhcurveto
-63 -453 rmoveto
-25 -20 11 24 -13 hvcurveto
199 281 rlineto
-1 vlineto
-161 -53 -154 -88 vhcurveto
-18 -134 rmoveto
189 136 201 243 hvcurveto
hintmask 10011100
69 -12 55 -22 43 vhcurveto
67 93 rlineto
hintmask 01101100
-90 57 -49 -71 rlineto
20 -34 -41 10 -45 hhcurveto
-189 -135 -201 -243 -68 11 -54 21 -42 hvcurveto
-69 -96 rlineto
hintmask 10101100
89 -57 52 72 rlineto
-21 34 41 -10 46 hhcurveto
endchar
                    </CharString>
                    <CharString index="46">
                        rmoveto
-7 75 -206 -39 -30 23 22 88 rlinecurve
51 234 rlineto
193 hlineto
22 118 100 callsubr
36 165 -116 -9 -105 -156 rlineto
-64 hlineto
-29 -118 rlineto
101 hlineto
-53 -242 -44 -191 127 -104 292 156 rlinecurve
return
                    </CharString>
                    <CharString index="47">
                        15 -21 27 -50 callsubr
return
                    </CharString>
                    <CharString index="48">
                        -7 8 -8 133 -104 -21 291 109 163 132 hstemhm
441 159 hintmask 10011100
71 callgsubr
-55 -283 rlineto
-61 87 callgsubr
61 hlineto
hintmask 00111100
-56 -291 rlineto
hintmask 10011100
34 callsubr
-260 -141 rmoveto
28 109 rlineto
-100 73 callgsubr
98 7 43 -52 -102 vvcurveto
hintmask 01011100
43 callsubr
32 166 rlineto
endchar
                    </CharString>
                    <CharString index="49">
                        -104 callgsubr
hintmask 11110100
-40 callgsubr
hintmask 11101100
18 callgsubr
hintmask 11110100
-85 callsubr
                    </CharString>
                    <CharString index="50">
                        rmoveto
64 112 rlineto
-137 58 -63 42 46 vvcurveto
hintmask 10010000
62 123 36 83 vvcurveto
39 -25 36 -73 27 vhcurveto
hintmask 11001000
100 26 38 53 46 vvcurveto
hintmask 10100000
55 -62 63 38 vvcurveto
45 79 31 184 31 vhcurveto
-28 127 rlineto
-294 -70 -88 -92 -84 vvcurveto
hintmask 11001000
-71 68 -56 -39 vvcurveto
-26 -31 -18 -119 -5 vhcurveto
-24 -108 rlineto
hintmask 10010000
83 -15 42 -24 -33 vvcurveto
hintmask 11000000
-51 -130 -32 -102 vvcurveto
-76 77 -58 216 -96 vhcurveto
endchar
                    </CharString>
                    <CharString index="51">
                        rmoveto
hintmask 10010000
294 70 88 92 85 vvcurveto
hintmask 11001000
71 -68 55 39 vvcurveto
27 31 18 119 4 vhcurveto
24 109 rlineto
hintmask 10100000
-83 14 -42 25 32 vvcurveto
hintmask 10001000
51 130 32 102 vvcurveto
77 -77 58 -216 95 vhcurveto
-63 -112 rlineto
136 -58 63 -42 -46 vvcurveto
hintmask 10100000
-62 -123 -35 -83 vvcurveto
-39 25 -37 73 -27 vhcurveto
hintmask 11001000
-100 -26 -38 -53 -46 vvcurveto
hintmask 10010000
-54 62 -64 -37 vvcurveto
-46 -78 -31 -185 -31 vhcurveto
endchar
                    </CharString>
                    <CharString index="52">
                        0 callgsubr
549 69 -103 callsubr
return
                    </CharString>
                    <CharString index="53">
                        -74 callsubr
hintmask 11101110
-81 callsubr
hintmask 11011110
13 callsubr
                    </CharString>
                    <CharString index="54">
                        11 -21 31 -21 31 -21 428 140 0 -20 226 -20 hstemhm
37 567 -167 167 hintmask 10001110
403 -10 rmoveto
172 20 -150 215 rlineto
hintmask 01001101
128 96 51 84 69 vvcurveto
63 -41 41 -71 -68 -72 -37 -73 -73 vhcurveto
61 316 -153 -11 -150 -773 rlineto
151 hlineto
hintmask 00110101
67 347 rlineto
55 52 48 36 43 hhcurveto
25 14 -12 -22 -38 -40 -60 -140 -91 hvcurveto
return
                    </CharString>
                    <CharString index="55">
                        36 135 -284 -5 332 304 26 129 rlineto
-445 hlineto
-37 -136 277 6 -334 -304 -25 -129 rlineto
endchar
                    </CharString>
                    <CharString index="56">
                        -71 -366 rlineto
-44 -39 -40 -22 -30 hhcurveto
-34 return
                    </CharString>
                    <CharString index="57">
                        74 callsubr
161 118 268 135 return
                    </CharString>
                    <CharString index="58">
                        rmoveto
12 hlineto
hintmask 11111000
-54 -280 rlineto
-75 hlineto
hintmask 10111000
40 94 39 94 38 92 rrcurveto
-96 -559 rmoveto
288 hlineto
32 129 rlineto
-165 73 callgsubr
124 hlineto
22 106 rlineto
-125 hlineto
31 161 rlineto
159 hlineto
26 129 rlineto
-392 hlineto
-109 -228 -111 -231 -106 -229 rrcurveto
154 hlineto
hintmask 11111000
24 55 24 56 24 56 rrcurveto
100 hlineto
endchar
                    </CharString>
                    <CharString index="59">
                        969 -104 callsubr
return
                    </CharString>
                    <CharString index="60">
                        -44 callgsubr
-106 20 callgsubr
return
                    </CharString>
                    <CharString index="61">
                        743 -82 callgsubr
return
                    </CharString>
                    <CharString index="62">
                        -16 147 -145 131 446 -20 26 -20 return
                    </CharString>
                    <CharString index="63">
                        3 -88 3 -90 2 -90 rrcurveto
-126 hlineto
return
                    </CharString>
                    <CharString index="64">
                        -12 133 -33 callsubr
return
                    </CharString>
                    <CharString index="65">
                        -33 callgsubr
-9 callsubr
hintmask 10010111
-71 callsubr
-65 callsubr
hintmask 01010111
76 callgsubr
hintmask 01101011
-26 callgsubr
                    </CharString>
                    <CharString index="66">
                        -39 callgsubr
endchar
                    </CharString>
                    <CharString index="67">
                        0 -39 callsubr
return
                    </CharString>
                    <CharString index="68">
                        133 153 116 153 133 return
                    </CharString>
                    <CharString index="69">
                        rlineto
2 -14 -13 0 -12 hhcurveto
-220 -133 -207 -199 -125 55 -61 66 58 69 47 59 60 hvcurveto
-5 -112 55 -35 192 108 rrcurveto
endchar
                    </CharString>
                    <CharString index="70">
                        -60 callsubr
28 callgsubr
return
                    </CharString>
                    <CharString index="71">
                        632 46 callsubr
-51 -20 hstemhm
84 491 hintmask 10011000
421 747 rmoveto
hintmask 01101000
-72 callgsubr
hintmask 10011000
-72 callsubr
endchar
                    </CharString>
                    <CharString index="72">
                        513 472 -82 callsubr
return
                    </CharString>
                    <CharString index="73">
                        -291 -95 callgsubr
                    </CharString>
                    <CharString index="74">
                        313.5 128.5 return
                    </CharString>
                    <CharString index="75">
                        -67 callsubr
335 -470 -102 callgsubr
                    </CharString>
                    <CharString index="76">
                        -199 229 -208 -21 24 -21 119 107 hstemhm
319 131 hintmask 00111000
201 -174 rmoveto
61 31 29 36 27 hhcurveto
hintmask 01011000
24 11 -32 -90 -4 hvcurveto
hintmask 00111000
131 3 rlineto
hintmask 10001000
153 9 -69 73 -84 hhcurveto
-73 -57 -57 -123 -51 hvcurveto
endchar
                    </CharString>
                    <CharString index="77">
                        -10 callgsubr
-65 -66 -36 -67 -66 vhcurveto
return
                    </CharString>
                    <CharString index="78">
                        -181 -129 -169 -192 return
                    </CharString>
                    <CharString index="79">
                        hlineto
-133 -688 rlineto
return
                    </CharString>
                    <CharString index="80">
                        -37 callsubr
hintmask 00111100
return
                    </CharString>
                    <CharString index="81">
                        33 callgsubr
hintmask 00111000
-132 -683 rlineto
hintmask 10011000
34 callsubr
-159 -16 rmoveto
hintmask 01011000
43 callsubr
85 438 rlineto
hintmask 10011000
98 7 43 -52 -102 vvcurveto
endchar
                    </CharString>
                    <CharString index="82">
                        2 callgsubr
-18 callsubr
return
                    </CharString>
                    <CharString index="83">
                        hstem
54 149 230 146 vstem
return
                    </CharString>
                    <CharString index="84">
                        6 callgsubr
-17 1 -15 1 -15 return
                    </CharString>
                    <CharString index="85">
                        -75 callsubr
88 callgsubr
return
                    </CharString>
                    <CharString index="86">
                        101 240.5 14 callgsubr
return
                    </CharString>
                    <CharString index="87">
                        129 -24 -59 73 -129 hhcurveto
-164 -107 -103 -115 hvcurveto
return
                    </CharString>
                    <CharString index="88">
                        -11 137 -95 17 callgsubr
95 168 hintmask 10111000
return
                    </CharString>
                    <CharString index="89">
                        hstem
55 167 221 168 vstem
return
                    </CharString>
                    <CharString index="90">
                        -23 callgsubr
-24 callsubr
return
                    </CharString>
                    <CharString index="91">
                        55 callgsubr
567 -20 31 -20 7 callsubr
return
                    </CharString>
                    <CharString index="92">
                        134 688 rlineto
-150 hlineto
-72 -394 rlineto
-4 hlineto
return
                    </CharString>
                    <CharString index="93">
                        96 callsubr
rlineto
-62 -16 -7 3 20 vvcurveto
return
                    </CharString>
                    <CharString index="94">
                        rmoveto
182 hlineto
27 135 rlineto
-525 hlineto
-27 -135 rlineto
181 hlineto
-106 -553 100 callgsubr
return
                    </CharString>
                    <CharString index="95">
                        rmoveto
292 212 106 168 186 vvcurveto
138 -60 146 -151 184 vhcurveto
-120 -85 rlineto
134 -154 46 -118 -113 vvcurveto
-149 -68 -133 -263 -183 vhcurveto
endchar
                    </CharString>
                    <CharString index="96">
                        10 -21 32 -21 32 -21 551 134 0 -20 hstemhm
435 160 return
                    </CharString>
                    <CharString index="97">
                        254 -27 100 85 76 vvcurveto
return
                    </CharString>
                    <CharString index="98">
                        79 406 rlineto
-150 hlineto
return
                    </CharString>
                    <CharString index="99">
                        -14 132 328 129 return
                    </CharString>
                    <CharString index="100">
                        300 467 68 callgsubr
-177 -309 rlineto
return
                    </CharString>
                    <CharString index="101">
                        -235 -21 callsubr
return
                    </CharString>
                    <CharString index="102">
                        626 119 hstem
114 460 vstem
487 844 -104 callsubr
endchar
                    </CharString>
                    <CharString index="103">
                        hstem
1 callgsubr
vstem
return
                    </CharString>
                    <CharString index="104">
                        697 67 callsubr
111 435 hintmask 10100000
442 80 callsubr
hintmask 01100000
22 callsubr
rlineto
hintmask 10100000
-28 callgsubr
endchar
                    </CharString>
                    <CharString index="105">
                        -1 callsubr
35 callgsubr
hintmask 11011100
return
                    </CharString>
                    <CharString index="106">
                        -189 141 89 135 389 -20 30 -20 return
                    </CharString>
                    <CharString index="107">
                        49 -144 146 -18 213 121 return
                    </CharString>
                    <CharString index="108">
                        -16 127 342 126 return
                    </CharString>
                    <CharString index="109">
                        26 callgsubr
hstemhm
104 582 hintmask 10011000
return
                    </CharString>
                    <CharString index="110">
                        52 callgsubr
445 553 -13 callsubr
return
                    </CharString>
                    <CharString index="111">
                        643 91 callsubr
105 466 vstem
521 645 -102 callsubr
endchar
                    </CharString>
                    <CharString index="112">
                        17 callsubr
37 callsubr
return
                    </CharString>
                    <CharString index="113">
                        hstemhm
68 157 127 157 return
                    </CharString>
                    <CharString index="114">
                        hstemhm
343 162 -101 165 return
                    </CharString>
                    <CharString index="115">
                        0 125 438 125 return
                    </CharString>
                    <CharString index="116">
                        -317 245 hstem
176 225 vstem
176 -34 callsubr
                    </CharString>
                    <CharString index="117">
                        rlineto
-159 hlineto
return
                    </CharString>
                    <CharString index="118">
                        683 -20 hstem
144 346 vstem
490 683 -96 callgsubr
endchar
                    </CharString>
                    <CharString index="119">
                        0 138.5 411.5 138 return
                    </CharString>
                    <CharString index="120">
                        270 -10 130 52 44 89 rrcurveto
endchar
                    </CharString>
                    <CharString index="121">
                        rmoveto
125 81 -140 214 217 210 -95 96 -216 -224 -31 -155 rlineto
417 -222 rmoveto
125 78 -136 219 return
                    </CharString>
                    <CharString index="122">
                        616 243 hstem
186 302 vstem
349 859 -63 callgsubr
endchar
                    </CharString>
                    <CharString index="123">
                        6 callsubr
hintmask 01011110
return
                    </CharString>
                    <CharString index="124">
                        -14 136 566 -20 return
                    </CharString>
                    <CharString index="125">
                        -11 61 callgsubr
53 callgsubr
hintmask 10010000
return
                    </CharString>
                    <CharString index="126">
                        -14 120 461 -20 hstem
294 160 vstem
return
                    </CharString>
                    <CharString index="127">
                        23 29 hhcurveto
27 11 -19 -29 hvcurveto
return
                    </CharString>
                    <CharString index="128">
                        98 -98 99 179 95 hstemhm
return
                    </CharString>
                    <CharString index="129">
                        -248 -162 return
                    </CharString>
                    <CharString index="130">
                        59 callgsubr
52 40 142 30 vhcurveto
return
                    </CharString>
                    <CharString index="131">
                        -13 131 329 131 43 callgsubr
return
                    </CharString>
                    <CharString index="132">
                        -244 88 175 -21 126 95 return
                    </CharString>
                    <CharString index="133">
                        hstem
332 79.5 vstem
return
                    </CharString>
                    <CharString index="134">
                        -3 -139 rlineto
322 -3 94 91 99 vvcurveto
return
                    </CharString>
                    <CharString index="135">
                        rmoveto
-362 hlineto
-25 -122 99 callgsubr
-141 -733 rlineto
-207 hlineto
-24 -122 rlineto
361 hlineto
endchar
                    </CharString>
                    <CharString index="136">
                        657 128 hstem
114 426 vstem
540 785 -56 callgsubr
endchar
                    </CharString>
                    <CharString index="137">
                        -33 -64 -57 -87 -48 -61 rrcurveto
return
                    </CharString>
                    <CharString index="138">
                        9 callgsubr
hintmask 11110111
-2 -91 rlineto
-110 20 callgsubr
return
                    </CharString>
                    <CharString index="139">
                        101 4 -20 256.5 14 callgsubr
hstemhm
return
                    </CharString>
                    <CharString index="140">
                        hstemhm
58 -13 callgsubr
return
                    </CharString>
                    <CharString index="141">
                        418 -53 149 235 250 vvcurveto
return
                    </CharString>
                    <CharString index="142">
                        -197 -162 -213 -236 return
                    </CharString>
                    <CharString index="143">
                        114 134 113 return
                    </CharString>
                    <CharString index="144">
                        hstem
68 92 callgsubr
return
                    </CharString>
                    <CharString index="145">
                        rlineto
-145 hlineto
return
                    </CharString>
                    <CharString index="146">
                        rmoveto
111 106 -181 200 278 193 -87 121 -289 -226 -38 -154 rlineto
endchar
                    </CharString>
                    <CharString index="147">
                        344 -77 rmoveto
-11 74 -83 -18 -4 1 8 43 rlinecurve
return
                    </CharString>
                    <CharString index="148">
                        rmoveto
52 callsubr
50 callsubr
return
                    </CharString>
                    <CharString index="149">
                        -140 -179 -135 -175 -236 vhcurveto
87 14 rmoveto
183 94 136 123 90 69 return
                    </CharString>
                    <CharString index="150">
                        -155 -77 -142 -149 6 vhcurveto
return
                    </CharString>
                    <CharString index="151">
                        -45 callsubr
6 callsubr
hintmask 01011100
return
                    </CharString>
                    <CharString index="152">
                        hmoveto
44 194 38 callsubr
-45 -194 rlineto
return
                    </CharString>
                    <CharString index="153">
                        115 -64 -20 59 115 return
                    </CharString>
                    <CharString index="154">
                        0 135 553 -20 hstem
return
                    </CharString>
                    <CharString index="155">
                        -16 134 -97 -21 571 133 -16 -20 hstemhm
58 165 219 166 hintmask 10101100
return
                    </CharString>
                    <CharString index="156">
                        hhcurveto
55 1 -64 -75 -42 hvcurveto
65 -23 rlineto
164 132 -8 162 -140 hhcurveto
return
                    </CharString>
                    <CharString index="157">
                        0 -9 -7 -7 -9 -9 -7 6 56 callgsubr
return
                    </CharString>
                    <CharString index="158">
                        60 callsubr
hstem
50 597 vstem
return
                    </CharString>
                    <CharString index="159">
                        0 9 7 6 9 9 7 -6 56 callgsubr
return
                    </CharString>
                    <CharString index="160">
                        hstemhm
50 153 165 122 return
                    </CharString>
                    <CharString index="161">
                        7 -4 95 callsubr
return
                    </CharString>
                    <CharString index="162">
                        521 101 callsubr
return
                    </CharString>
                    <CharString index="163">
                        -16 124 -76 -21 445 123 hstemhm
48 154 222 155 hintmask 10111000
return
                    </CharString>
                    <CharString index="164">
                        0 129 38 112 13 106 161 129 hstemhm
-39 718 hintmask 10111000
return
                    </CharString>
                    <CharString index="165">
                        -137 227 -125 -78 136 -219 -217 -202 rlineto
endchar
                    </CharString>
                    <CharString index="166">
                        -190 141 502 124 7 -20 return
                    </CharString>
                    <CharString index="167">
                        0 174 387 -20 return
                    </CharString>
                    <CharString index="168">
                        93 callgsubr
hlineto
return
                    </CharString>
                    <CharString index="169">
                        250 164 hstem
77 152 145 98 34 130 vstem
472 return
                    </CharString>
                    <CharString index="170">
                        28 callgsubr
hintmask 00111110
return
                    </CharString>
                    <CharString index="171">
                        122 733 122 hstem
return
                    </CharString>
                    <CharString index="172">
                        -140 222 -125 -81 140 -213 -217 -211 rlineto
return
                    </CharString>
                    <CharString index="173">
                        hstem
63 159 227 150 vstem
return
                    </CharString>
                    <CharString index="174">
                        96 callgsubr
hstemhm
return
                    </CharString>
                    <CharString index="175">
                        468 649 rmoveto
47 157 -177 -9 -37 -155 rlineto
return
                    </CharString>
                    <CharString index="176">
                        157 -46 147 -128 150 -101 141 hintmask 11000000
return
                    </CharString>
                    <CharString index="177">
                        -14 24 121 -145 14 38 154 -148 13 rlineto
return
                    </CharString>
                    <CharString index="178">
                        19 callgsubr
endchar
                    </CharString>
                    <CharString index="179">
                        73 119 87 hstem
return
                    </CharString>
                    <CharString index="180">
                        99 263 99 hstem
return
                    </CharString>
                    <CharString index="181">
                        -21 27 -21 return
                    </CharString>
                    <CharString index="182">
                        586 51 -14 callsubr
return
                    </CharString>
                    <CharString index="183">
                        rmoveto
-472 hlineto
-25 -132 rlineto
471 hlineto
endchar
                    </CharString>
                    <CharString index="184">
                        -125 rlineto
return
                    </CharString>
                    <CharString index="185">
                        -21 callsubr
hstem
return
                    </CharString>
                    <CharString index="186">
                        73 376 rlineto
-88 hlineto
-92 -177 rlineto
-4 hlineto
return
                    </CharString>
                    <CharString index="187">
                        618 -66 callgsubr
return
                    </CharString>
                    <CharString index="188">
                        -34 -153 -161 15 -25 -122 158 -15 return
                    </CharString>
                    <CharString index="189">
                        hintmask 010000000000000000000000000000000000000000000000
return
                    </CharString>
                    <CharString index="190">
                        100 -9 -20 269 105 hstemhm
return
                    </CharString>
                    <CharString index="191">
                        -174 -21 179 128 321 144 return
                    </CharString>
                    <CharString index="192">
                        -236 102 -33 -21 return
                    </CharString>
                    <CharString index="193">
                        100 240 105 hstem
return
                    </CharString>
                    <CharString index="194">
                        -184 rmoveto
return
                    </CharString>
                    <CharString index="195">
                        -83 89 -123 -188 -141 -213 return
                    </CharString>
                    <CharString index="196">
                        82 -87 123 187 143 214 return
                    </CharString>
                    <CharString index="197">
                        302 118 return
                    </CharString>
                    <CharString index="198">
                        153 hstem
return
                    </CharString>
                    <CharString index="199">
                        rlineto
148 return
                    </CharString>
                    <CharString index="200">
                        118 vstem
return
                    </CharString>
                    <CharString index="201">
                        142 rlinecurve
-184 -4 3 -121 return
                    </CharString>
                    <CharString index="202">
                        -20 24 -20 return
                    </CharString>
                    <CharString index="203">
                        rmoveto
-12 76 return
                    </CharString>
                    <CharString index="204">
                        46 callsubr
hstemhm
return
                    </CharString>
                    <CharString index="205">
                        81.5 return
                    </CharString>
                    <CharString index="206">
                        rlineto
-162 hlineto
return
                    </CharString>
                    <CharString index="207">
                        rlineto
-190 hlineto
return
                    </CharString>
                    <CharString index="208">
                        472 rmoveto
return
                    </CharString>
                <CharString name=".notdef">
                    -107 -200 50 900 50 hstem
0.5 54 432 54 vstem
8 -200 rmoveto
540 hlineto
-15 1000 rlineto
-540 hlineto
77 -50 rmoveto
387 hlineto
-188 -390 rlineto
212 316 rmoveto
11 -752 -191 376 rlineto
-241 -376 rmoveto
-11 752 191 -376 rlineto
31 -60 rmoveto
200 -390 rlineto
-387 hlineto
endchar
                </CharString>
                <CharString name="A">
                    -37 callsubr
hintmask 10011100
389 -6 -101 callsubr
                </CharString>
                <CharString name="AE">
                    57 callsubr
351 559 -49 callsubr
                </CharString>
                <CharString name="AEacute">
                    57 callsubr
304 -79 callsubr
47 -254 -49 callsubr
                </CharString>
                <CharString name="Aacute">
                    -27 callsubr
249 -79 callsubr
hintmask 10011100
140 -819 -101 callsubr
                </CharString>
                <CharString name="Abreve">
                    -60 callsubr
63 119 63 callsubr
587 -48 callsubr
hintmask 10011110
-285 -922 -92 callgsubr
                </CharString>
                <CharString name="Acircumflex">
                    -27 callsubr
539 -46 callsubr
hintmask 10011100
-44 -856 -101 callsubr
                </CharString>
                <CharString name="Adieresis">
                    -60 callsubr
80 153 63 callsubr
613 -53 callgsubr
hintmask 10011110
192 -773 -92 callgsubr
                </CharString>
                <CharString name="Agrave">
                    -27 callsubr
603 -46 callgsubr
hintmask 10011100
-183 -750 -101 callsubr
                </CharString>
                <CharString name="Amacron">
                    -60 callsubr
94 128 63 callsubr
643 12 callgsubr
hintmask 10011110
-229 -788 -92 callgsubr
                </CharString>
                <CharString name="Aogonek">
                    98 callgsubr
209 -50 callsubr
hstemhm
213 139 34.5 161.5 hintmask 10011111
509 82 callgsubr
33 52 42 141 32 vhcurveto
3 hlineto
-37 callgsubr
rrcurveto
-219 hlineto
hintmask 10101111
-89 callgsubr
1 -48 1 -48 1 -48 -127 -54 -49 -61 1 -56 rrcurveto
hintmask 10011111
2 -81 102 -50 192 91 rrcurveto
-143 741 rmoveto
8 hlineto
hintmask 01011111
-44 callsubr
hintmask 10011111
-31 callgsubr
                </CharString>
                <CharString name="Aring">
                    -60 callsubr
53 243 63 callsubr
446 984 -63 callgsubr
hintmask 10011110
-57 -990 -92 callgsubr
                </CharString>
                <CharString name="Aringacute">
                    -27 callsubr
302 1085 -107 callsubr
144 -101 -63 callgsubr
hintmask 10011100
-57 -990 -101 callsubr
                </CharString>
                <CharString name="Atilde">
                    -60 callsubr
69 115 -25 115 28 callgsubr
hintmask 00111101
524 872 rmoveto
hintmask 00111011
-72 callgsubr
hintmask 00111101
-72 callsubr
hintmask 10011101
-135 -878 rmoveto
hintmask 00111101
-71 callgsubr
hintmask 01011101
-89 callgsubr
hintmask 10011101
-9 callgsubr
hintmask 00111101
-87 callsubr
                </CharString>
                <CharString name="B">
                    -9 10 -10 128 -97 -21 296 85 187 128 hstemhm
407 154 -119 156 hintmask 10011100
561 219 rmoveto
64 -36 51 -64 24 vhcurveto
hintmask 00111010
87 40 50 64 74 vvcurveto
114 -120 80 -309 -47 vhcurveto
-132 -682 rlineto
hintmask 10011100
381 -49 143 130 137 vvcurveto
hintmask 10011010
-119 282 rmoveto
-56 -52 -50 -120 -13 vhcurveto
36 187 rlineto
88 9 48 -27 -50 vvcurveto
hintmask 01011100
-35 -288 rmoveto
-64 -65 -45 -122 19 vhcurveto
33 171 rlineto
107 13 47 -35 -59 vvcurveto
endchar
                </CharString>
                <CharString name="C">
                    25 callgsubr
422 703 -80 callgsubr
                </CharString>
                <CharString name="Cacute">
                    25 callgsubr
267 828 -107 callsubr
155 -125 -80 callgsubr
                </CharString>
                <CharString name="Ccaron">
                    25 callgsubr
428 755 -94 callgsubr
4 -52 -80 callgsubr
                </CharString>
                <CharString name="Ccedilla">
                    -168 -21 97 221 -141 141 -110 -21 564 141 hstemhm
63 159 77 131 19 150 hintmask 10101111
430 -211 rmoveto
6 100 -27 65 -43 34 46 5 52 12 56 18 16 140 rcurveline
-14 callgsubr
vhcurveto
hintmask 10011101
51 11 -37 -103 -2 hvcurveto
150 2 rlineto
189 9 -49 90 -137 hhcurveto
35 callsubr
-135 54 -90 104 -31 hvcurveto
-43 -26 -38 -53 -35 -84 76 -24 rcurveline
hintmask 11001111
10 callgsubr
                </CharString>
                <CharString name="Cdotaccent">
                    -15 144 433 141 30 callgsubr
66 callsubr
507 784 -50 callgsubr
84 -80 -80 callgsubr
                </CharString>
                <CharString name="D">
                    57 callgsubr
600 433 -26 callsubr
                </CharString>
                <CharString name="Dcaron">
                    57 callgsubr
397 749 -94 callgsubr
213 -316 -26 callsubr
                </CharString>
                <CharString name="Dcroat">
                    -59 callsubr
                </CharString>
                <CharString name="E">
                    24 callgsubr
515 133 -101 callgsubr
                </CharString>
                <CharString name="Eacute">
                    24 callgsubr
252 -79 callsubr
263 -680 -101 callgsubr
                </CharString>
                <CharString name="Ebreve">
                    -40 callsubr
63 119 hstem
47 629 vstem
589 -48 callsubr
-161 -783 -101 callgsubr
                </CharString>
                <CharString name="Ecaron">
                    -5 callgsubr
614 vstem
413 740 -94 callgsubr
112 -607 -101 callgsubr
                </CharString>
                <CharString name="Ecircumflex">
                    -5 callgsubr
598 vstem
541 -46 callsubr
80 -717 -101 callgsubr
                </CharString>
                <CharString name="Edieresis">
                    -40 callsubr
80 91 callsubr
47 618 vstem
615 -53 callgsubr
316 -634 -101 callgsubr
                </CharString>
                <CharString name="Edotaccent">
                    -40 callsubr
30 callgsubr
hstem
47 569 vstem
492 769 -50 callgsubr
192 -635 -101 callgsubr
                </CharString>
                <CharString name="Egrave">
                    24 callgsubr
605 -46 callgsubr
-59 -611 -101 callgsubr
                </CharString>
                <CharString name="Emacron">
                    -40 callsubr
94 128 hstem
47 598 vstem
645 12 callgsubr
-105 -649 -101 callgsubr
                </CharString>
                <CharString name="Eogonek">
                    -237 102 135 -39 callsubr
hstem
145 139 vstem
441 -189 rmoveto
23 callsubr
1 hlineto
36 133 rlineto
-100 callsubr
232 hlineto
-96 -48 -38 -52 -48 72 callgsubr
endchar
                </CharString>
                <CharString name="Eth">
                    -59 callsubr
                </CharString>
                <CharString name="Euro">
                    -14 128 75 108 -93 97 60 96 118 129 hstemhm
38 603 hintmask 10111100
554 44 rmoveto
-12 90 -183 -42 -69 21 -19 91 rlinecurve
206 hlineto
23 97 rlineto
-233 hlineto
2 20 2 20 5 20 rrcurveto
239 hlineto
25 96 rlineto
-234 hlineto
67 31 46 51 55 hhcurveto
39 16 -21 -49 11 hvcurveto
137 23 rlineto
124 -14 -55 52 -98 hhcurveto
-130 -114 -97 -137 -62 hvcurveto
-77 hlineto
-22 -109 rlineto
64 hlineto
hintmask 11011100
-5 -21 -3 -21 -2 -22 rrcurveto
-63 hlineto
-22 -108 rlineto
87 hlineto
hintmask 10111100
23 -172 128 -102 278 129 rrcurveto
endchar
                </CharString>
                <CharString name="F">
                    21 -21 268 122 163 135 hstem
51 579 vstem
504 268 rmoveto
25 122 rlineto
-241 73 callgsubr
285 hlineto
25 135 rlineto
-445 hlineto
-134 -688 rlineto
161 hlineto
52 268 rlineto
endchar
                </CharString>
                <CharString name="G">
                    -49 callgsubr
endchar
                </CharString>
                <CharString name="Gbreve">
                    34 callgsubr
63 119 54 callgsubr
hintmask 10111100
599 984 -104 callsubr
-212 -1049 -35 callgsubr
                </CharString>
                <CharString name="Gcommaaccent">
                    -49 callgsubr
-214 -249 -95 callgsubr
                </CharString>
                <CharString name="Gdotaccent">
                    34 callgsubr
30 callgsubr
54 callgsubr
hintmask 10111100
502 784 -50 callgsubr
141 -901 -35 callgsubr
                </CharString>
                <CharString name="H">
                    21 -21 284 124 280 -20 hstem
27 613 vstem
344 hmoveto
163 hlineto
133 688 99 callsubr
-55 -280 rlineto
-155 hlineto
54 280 rlineto
-162 -28 callsubr
162 hlineto
55 284 rlineto
155 hlineto
endchar
                </CharString>
                <CharString name="Hbar">
                    21 -21 262 124 89 109 -103 97 -97 207 hstemhm
27 655 hintmask 11010100
419 386 rmoveto
-155 hlineto
18 95 rlineto
156 hlineto
-94 -481 rmoveto
163 hlineto
hintmask 11100100
92 475 rlineto
62 hlineto
21 109 rlineto
-62 hlineto
hintmask 11001100
20 104 99 callsubr
hintmask 11010100
-21 -110 rlineto
-156 hlineto
hintmask 11001100
21 110 99 callsubr
hintmask 11100100
-20 -104 rlineto
-63 87 callgsubr
63 hlineto
-92 -475 100 callgsubr
51 262 rlineto
155 hlineto
endchar
                </CharString>
                <CharString name="I">
                    46 callgsubr
358 125 -97 callsubr
                </CharString>
                <CharString name="Iacute">
                    46 callgsubr
239 -79 callsubr
119 -688 -97 callsubr
                </CharString>
                <CharString name="Ibreve">
                    8 callsubr
63 119 hstem
28 636 vstem
577 -48 callsubr
-306 -791 -97 callsubr
                </CharString>
                <CharString name="Icircumflex">
                    44 callgsubr
605 vstem
529 -46 callsubr
-65 -725 -97 callsubr
                </CharString>
                <CharString name="Idieresis">
                    8 callsubr
80 91 callsubr
28 625 vstem
603 -53 callgsubr
171 -642 -97 callsubr
                </CharString>
                <CharString name="Idotaccent">
                    8 callsubr
30 callgsubr
hstem
28 583 vstem
479 769 -50 callgsubr
48 -643 -97 callsubr
                </CharString>
                <CharString name="Igrave">
                    46 callgsubr
593 -46 callgsubr
-204 -619 -97 callsubr
                </CharString>
                <CharString name="Imacron">
                    8 callsubr
94 128 hstem
28 605 vstem
633 12 callgsubr
-250 -657 -97 callsubr
                </CharString>
                <CharString name="Iogonek">
                    -237 103 134 125 438 125 hstem
75 138 vstem
370 -188 rmoveto
-14 69 rlineto
-103 38 callgsubr
31 36 38 92 32 vhcurveto
138 hlineto
31 125 rlineto
-152 hlineto
-94 callsubr
155 hlineto
-76 -47 -32 -51 -47 vvcurveto
-83 101 -52 194 92 vhcurveto
endchar
                </CharString>
                <CharString name="J">
                    -11 144 430 125 hstem
28 555 vstem
425 61 rmoveto
32 31 16 33 41 214 69 349 rcurveline
-366 hlineto
-26 -125 99 callgsubr
-48 -240 -27 -132 -7 -23 -15 -15 rlinecurve
-20 -20 -33 -3 -197 3 -23 -144 rcurveline
250 -3 101 28 46 47 rrcurveto
endchar
                </CharString>
                <CharString name="K">
                    -27 callgsubr
endchar
                </CharString>
                <CharString name="Kcommaaccent">
                    -27 callgsubr
-173 -989 -95 callgsubr
                </CharString>
                <CharString name="L">
                    47 callsubr
55 480 42 callgsubr
endchar
                </CharString>
                <CharString name="Lacute">
                    47 callsubr
55 573 vstem
265 -79 callsubr
244 -813 rmoveto
-36 callgsubr
endchar
                </CharString>
                <CharString name="Lcaron">
                    47 callsubr
55 617 vstem
508 774 -45 callgsubr
-163 -780 rmoveto
-36 callgsubr
endchar
                </CharString>
                <CharString name="Lcommaaccent">
                    47 callsubr
55 480 42 callgsubr
82 -34 callsubr
                </CharString>
                <CharString name="Ldot">
                    0 135 148 164 241 -20 hstem
55 549 42 callgsubr
509 283 rmoveto
40 164 38 callsubr
-41 -164 rlineto
endchar
                </CharString>
                <CharString name="Lslash">
                    47 callsubr
68.5 64.5 vstem
531 hmoveto
26 135 rlineto
-292 hlineto
46 236 138 63 -4 104 -112 -51 39 201 99 callsubr
-54 -282 -89 -40 3 -104 63 29 -56 -291 rlineto
endchar
                </CharString>
                <CharString name="M">
                    22 callgsubr
24 -20 hstemhm
25 626 hintmask 10110000
307 692 rmoveto
-150 -7 -132 -685 rlineto
146 hlineto
67 395 rlineto
3 hlineto
19 -241 rlineto
77 hlineto
108 241 rlineto
4 hlineto
-80 -395 61 callsubr
hintmask 11010000
132 688 10 callsubr
-155 -345 rlineto
-4 hlineto
endchar
                </CharString>
                <CharString name="N">
                    40 callgsubr
377 hmoveto
-69 callsubr
endchar
                </CharString>
                <CharString name="Nacute">
                    40 callgsubr
253 816 -107 callsubr
124 -816 rmoveto
-69 callsubr
endchar
                </CharString>
                <CharString name="Ncaron">
                    22 callgsubr
22 -20 hstemhm
28 635 hintmask 10110000
415 743 -94 callgsubr
-28 -743 rmoveto
-69 callsubr
endchar
                </CharString>
                <CharString name="Ncommaaccent">
                    40 callgsubr
377 hmoveto
-69 callsubr
-130 -685 -95 callgsubr
                </CharString>
                <CharString name="Ntilde">
                    22 callgsubr
22 -20 90 115 -25 115 hstemhm
28 654 hintmask 10110100
528 875 rmoveto
hintmask 10101100
-72 callgsubr
hintmask 10110100
-72 callsubr
-151 -875 rmoveto
132 hlineto
hintmask 11010100
-15 callsubr
hintmask 10110100
-42 callgsubr
endchar
                </CharString>
                <CharString name="O">
                    -25 callsubr
611 438 -106 callsubr
                </CharString>
                <CharString name="OE">
                    0 129 163 106 161 129 hstem
44 159 vstem
203 245 rmoveto
102 45 205 105 7 vhcurveto
-82 -430 rlineto
-55 -13 56 60 hvcurveto
370 -116 rmoveto
-168 hlineto
31 163 rlineto
127 hlineto
21 106 rlineto
-128 hlineto
31 161 rlineto
164 hlineto
24 129 rlineto
-232 hlineto
-303 -96 -253 -194 -177 95 -64 155 hvcurveto
246 hlineto
endchar
                </CharString>
                <CharString name="Oacute">
                    -25 callsubr
252 829 -107 callsubr
359 -391 -106 callsubr
                </CharString>
                <CharString name="Obreve">
                    2 callgsubr
65 119 -18 callsubr
590 985 -104 callsubr
-66 -494 -106 callsubr
                </CharString>
                <CharString name="Ocircumflex">
                    -25 callsubr
542 759 -82 callgsubr
175 -428 -106 callsubr
                </CharString>
                <CharString name="Odieresis">
                    2 callgsubr
82 153 -18 callsubr
616 786 -102 callsubr
411 -345 -106 callsubr
                </CharString>
                <CharString name="Ograve">
                    -25 callsubr
606 824 -96 callgsubr
36 -322 -106 callsubr
                </CharString>
                <CharString name="Ohungarumlaut">
                    -25 callsubr
291 768 -62 callgsubr
147 -380 -106 callsubr
                </CharString>
                <CharString name="Omacron">
                    2 callgsubr
96 128 -18 callsubr
646 926 -56 callgsubr
-10 -360 -106 callsubr
                </CharString>
                <CharString name="Omega">
                    0 125 444 136 hstem
91 136 210 157 vstem
233 9 rmoveto
-2 48 -4 33 163 vvcurveto
164 35 152 96 52 27 -38 -73 -102 -43 -131 -96 -216 vhcurveto
1 -9 rlineto
222 hlineto
24 125 rlineto
-73 hlineto
80 139 42 109 108 vvcurveto
137 -73 87 -135 -211 -84 -188 -214 -69 7 -55 10 -54 vhcurveto
-77 hlineto
-24 77 callsubr
222 hlineto
endchar
                </CharString>
                <CharString name="Oslash">
                    48 callsubr
364 571 -62 callsubr
                </CharString>
                <CharString name="Oslashacute">
                    48 callsubr
252 829 -107 callsubr
112 -258 -62 callsubr
                </CharString>
                <CharString name="Otilde">
                    2 callgsubr
71 115 -25 115 hstemhm
55 167 221 168 hintmask 11101100
527 888 rmoveto
hintmask 11011100
-72 callgsubr
hintmask 11101100
-72 callsubr
84 -450 -106 callsubr
                </CharString>
                <CharString name="P">
                    21 -21 566 130 hstem
461 155 vstem
199 hmoveto
36 187 rlineto
239 32 142 114 163 vvcurveto
141 -126 94 -318 -47 vhcurveto
-132 -684 rlineto
421 468 rmoveto
-88 -70 -71 -129 17 vhcurveto
46 237 rlineto
97 15 56 -39 -71 vvcurveto
endchar
                </CharString>
                <CharString name="Q">
                    567 137 hstem
71 159 214 166 vstem
454 -175 rmoveto
64 127 -209 86 rlineto
169 88 132 164 176 vvcurveto
141 -75 97 -154 -252 -119 -296 -245 90 vhcurveto
139 50 rlineto
210 -31 53 144 101 hhcurveto
49 33 -28 -77 -147 -113 -162 -184 -65 hvcurveto
-39 -117 rlineto
endchar
                </CharString>
                <CharString name="R">
                    -11 callsubr
hintmask 10001100
384 -11 -80 callsubr
endchar
                </CharString>
                <CharString name="R_p">
                    -172 -21 203 -21 25 -21 28 -21 29 -21 557 -20 32 -20 138 -20 hstemhm
-6 660 hintmask 1010001110000000
166 -7 rmoveto
hintmask 1000101110000000
117 15 -22 293 rlineto
61 66 50 96 95 callgsubr
hintmask 1001001110000000
-134 -689 78 callgsubr
hlineto
47 232 rlineto
5 hlineto
234 -414 rmoveto
hintmask 1100001110000000
33 171 rlineto
-1 7 7 -1 6 hhcurveto
128 82 284 180 86 -15 40 -36 -28 -33 -25 -31 -23 hvcurveto
hintmask 1000110110000000
6 44 -102 -8 -143 -750 rlineto
endchar
                </CharString>
                <CharString name="Racute">
                    -11 callsubr
hintmask 00101100
233 821 -107 callsubr
hintmask 10001100
151 -832 -80 callsubr
endchar
                </CharString>
                <CharString name="Rcaron">
                    -11 callsubr
hintmask 00101100
395 748 -94 callgsubr
hintmask 10001100
-1 -759 -80 callsubr
endchar
                </CharString>
                <CharString name="Rcommaaccent">
                    -11 callsubr
hintmask 10001100
384 -11 -80 callsubr
-139 -613 -95 callgsubr
                </CharString>
                <CharString name="S">
                    -19 callsubr
598 500 -83 callgsubr
endchar
                </CharString>
                <CharString name="Sacute">
                    -19 callsubr
271 827 -107 callsubr
327 -327 -83 callgsubr
endchar
                </CharString>
                <CharString name="Scaron">
                    -19 callsubr
433 754 -94 callgsubr
175 -254 -83 callgsubr
endchar
                </CharString>
                <CharString name="Scedilla">
                    -167 -21 97 217 -135 135 -109 -21 35 17 callgsubr
-11 131 -25 168 hintmask 1100010100000000
266 -213 rmoveto
131 3 rlineto
hintmask 1001010100000000
6 107 -31 67 -48 32 rrcurveto
hintmask 1001011010000000
151 22 65 80 78 -30 callgsubr
137 28 rlineto
-20 callsubr
hintmask 1010011010000000
-15 callgsubr
hintmask 1000111010000000
-31 -154 rlineto
hintmask 1010011010000000
51 -10 47 -6 43 -3 -39 -27 -34 -51 -32 -77 76 -24 rcurveline
hintmask 1100010100000000
10 callgsubr
                </CharString>
                <CharString name="Scommaaccent">
                    -19 callsubr
598 500 -83 callgsubr
-340 -774 -95 callgsubr
                </CharString>
                <CharString name="T">
                    3 callsubr
endchar
                </CharString>
                <CharString name="Tcaron">
                    52 callgsubr
403 740 -94 callgsubr
52 -187 -13 callsubr
endchar
                </CharString>
                <CharString name="Tcommaaccent">
                    3 callsubr
-225 -34 callsubr
                </CharString>
                <CharString name="Thorn">
                    21 -21 473 129 86 -20 hstem
442 156 vstem
199 hmoveto
18 93 rlineto
238 32 143 114 163 vvcurveto
114 -83 83 -198 3 vhcurveto
17 86 10 callsubr
-135 -688 rlineto
402 374 rmoveto
-88 -69 -70 -128 16 vhcurveto
46 238 rlineto
96 14 55 -40 -70 vvcurveto
endchar
                </CharString>
                <CharString name="U">
                    5 callsubr
275 -14 -105 callsubr
                </CharString>
                <CharString name="Uacute">
                    5 callsubr
249 -79 callsubr
26 -827 -105 callsubr
                </CharString>
                <CharString name="Ubreve">
                    17 callsubr
83 119 37 callsubr
587 -48 callsubr
-399 -930 -105 callsubr
                </CharString>
                <CharString name="Ucircumflex">
                    5 callsubr
539 -46 callsubr
-158 -864 -105 callsubr
                </CharString>
                <CharString name="Udieresis">
                    17 callsubr
100 153 37 callsubr
613 -53 callgsubr
78 -781 -105 callsubr
                </CharString>
                <CharString name="Ugrave">
                    5 callsubr
603 -46 callgsubr
-297 -758 -105 callsubr
                </CharString>
                <CharString name="Uhungarumlaut">
                    5 callsubr
288 752 -62 callgsubr
-186 -816 -105 callsubr
                </CharString>
                <CharString name="Umacron">
                    17 callsubr
114 128 37 callsubr
643 12 callgsubr
-343 -796 -105 callsubr
                </CharString>
                <CharString name="Uogonek">
                    98 callgsubr
197 -21 700 -20 hstemhm
68 161 -110 139 hintmask 10110100
414 -188 rmoveto
-14 8 callgsubr
33 40 24 124 65 vhcurveto
66 36 42 67 22 112 88 452 rcurveline
-160 hlineto
-88 -455 rlineto
hintmask 01111000
-84 callsubr
-39 -198 69 -80 122 -15 rlinecurve
hintmask 10110100
-75 -44 -37 -47 -44 vvcurveto
-82 102 -50 193 91 vhcurveto
endchar
                </CharString>
                <CharString name="Uring">
                    17 callsubr
73 243 37 callsubr
446 984 -63 callgsubr
-171 -998 -105 callsubr
                </CharString>
                <CharString name="V">
                    0 145 543 -20 26 -20 hstemhm
106 175 hintmask 10110000
368 hmoveto
hintmask 11010000
111 229 102 231 96 228 rrcurveto
-162 hlineto
-68 -180 -78 -183 -77 -180 rrcurveto
-11 hlineto
hintmask 10110000
-6 181 -7 188 -1 180 -161 -11 rcurveline
6 -229 15 -225 21 -229 rrcurveto
endchar
                </CharString>
                <CharString name="W">
                    5 callgsubr
337 hmoveto
-93 callgsubr
                </CharString>
                <CharString name="Wacute">
                    5 callgsubr
252 -79 callsubr
85 -813 rmoveto
-93 callgsubr
                </CharString>
                <CharString name="Wcircumflex">
                    5 callgsubr
541 -46 callsubr
-98 -850 rmoveto
-93 callgsubr
                </CharString>
                <CharString name="Wdieresis">
                    22 callgsubr
100 153 26 callsubr
615 -53 callgsubr
138 -767 rmoveto
-93 callgsubr
                </CharString>
                <CharString name="Wgrave">
                    5 callgsubr
605 -46 callgsubr
-237 -744 rmoveto
-93 callgsubr
                </CharString>
                <CharString name="X">
                    18 -21 24 -21 24 -21 682 54 callsubr
hstemhm
-21 702 hintmask 10000110
380 -3 rmoveto
hintmask 00101010
168 6 -125 330 258 355 rlineto
-172 hlineto
-152 -233 rlineto
hintmask 00100110
-80 237 rlineto
hintmask 01010010
-167 -7 126 -331 -257 -354 rlineto
171 hlineto
151 232 rlineto
endchar
                </CharString>
                <CharString name="Y">
                    2 callsubr
343 hmoveto
-64 callsubr
                </CharString>
                <CharString name="Yacute">
                    2 callsubr
246 817 -107 callsubr
97 -817 rmoveto
-64 callsubr
                </CharString>
                <CharString name="Ycircumflex">
                    2 callsubr
535 747 -82 callgsubr
-86 -854 rmoveto
-64 callsubr
                </CharString>
                <CharString name="Ydieresis">
                    26 callgsubr
100 153 hstemhm
104 582 hintmask 10011100
609 774 -102 callsubr
150 -771 rmoveto
43 221 rlineto
hintmask 10101100
-7 callsubr
hintmask 10011100
-69 313 rlineto
hintmask 11001100
-2 callgsubr
                </CharString>
                <CharString name="Ygrave">
                    2 callsubr
599 812 -96 callgsubr
-225 -748 rmoveto
-64 callsubr
                </CharString>
                <CharString name="Z">
                    12 callsubr
hstem
19 608 vstem
503 hmoveto
-52 callgsubr
                </CharString>
                <CharString name="Zacute">
                    12 callsubr
hstem
19 608 vstem
244 -79 callsubr
259 -813 rmoveto
-52 callgsubr
                </CharString>
                <CharString name="Zcaron">
                    12 callsubr
hstem
19 634 vstem
405 740 -94 callgsubr
108 -740 rmoveto
-52 callgsubr
                </CharString>
                <CharString name="Zdotaccent">
                    12 callsubr
30 callgsubr
hstem
19 608 vstem
484 769 -50 callgsubr
188 -768 rmoveto
-52 callgsubr
                </CharString>
                <CharString name="a">
                    -4 callgsubr
583 51 -107 callgsubr
                </CharString>
                <CharString name="aacute">
                    -4 callgsubr
248 700 -107 callsubr
335 -649 -107 callgsubr
                </CharString>
                <CharString name="abreve">
                    -8 callsubr
63 119 -24 callgsubr
586 856 -104 callsubr
-90 -752 -107 callgsubr
                </CharString>
                <CharString name="acircumflex">
                    -4 callgsubr
538 630 -82 callgsubr
151 -686 -107 callgsubr
                </CharString>
                <CharString name="acute">
                    4 callgsubr
                </CharString>
                <CharString name="acute.cap">
                    4 callgsubr
                </CharString>
                <CharString name="adieresis">
                    -8 callsubr
80 153 -24 callgsubr
612 657 -102 callsubr
387 -603 -107 callgsubr
                </CharString>
                <CharString name="ae">
                    31 callgsubr
596 70 -74 callgsubr
                </CharString>
                <CharString name="aeacute">
                    31 callgsubr
239 699 -107 callsubr
357 -629 -74 callgsubr
                </CharString>
                <CharString name="agrave">
                    -8 callsubr
120 -20 -24 callgsubr
602 695 -96 callgsubr
12 -580 -107 callgsubr
                </CharString>
                <CharString name="amacron">
                    -8 callsubr
94 128 -24 callgsubr
642 797 -56 callgsubr
-34 -618 -107 callgsubr
                </CharString>
                <CharString name="ampersand">
                    -10 137 -116 -21 hstemhm
17 149 hintmask 01100000
464 -23 rmoveto
131 90 -40 48 -34 45 -30 44 rlinecurve
42 52 43 62 44 73 -123 44 rcurveline
-24 -48 -24 -41 -22 -35 -23 45 -18 42 -11 40 rrcurveto
72 67 40 69 51 vvcurveto
52 -44 33 -62 -82 -86 -62 -134 -17 1 -18 3 -19 vhcurveto
-152 -118 -48 -108 -92 vvcurveto
-91 50 -61 97 69 73 31 66 76 vhcurveto
25 -37 27 -36 30 -37 rrcurveto
hintmask 10100000
-252 150 rmoveto
-29 -17 16 38 40 24 53 60 60 hvcurveto
18 -48 24 -51 30 -53 rrcurveto
-40 -44 -38 -15 -28 hhcurveto
endchar
                </CharString>
                <CharString name="aogonek">
                    -236 102 -35 -21 176 145 -124 -21 63.5 68.5 328 129 hstemhm
40 156 25 139 -10 146 hintmask 1001111100000000
514 -190 rmoveto
-11 72 rlineto
-103 -30 -40 14 34 vvcurveto
35 51 51 163 62 vhcurveto
3 1 3 1 3 1 rrcurveto
hintmask 0101111010000000
-103 callgsubr
64 hvcurveto
-1 -37 6 -25 17 -14 rrcurveto
hintmask 1001111100000000
-112 -60 -39 -56 -53 vvcurveto
-76 102 -53 191 89 vhcurveto
hintmask 0110011000000000
-272 321 -99 callsubr
                </CharString>
                <CharString name="approxequal">
                    99 134 -41 133 28 133 -41 134 -4 -20 hstemhm
26 585 hintmask 10101100
420 353 rmoveto
75 49 57 121 67 hvcurveto
-85 44 rlineto
-54 -36 -23 -35 -22 hhcurveto
hintmask 10010100
-40 -36 93 -87 hhcurveto
-79 -61 -64 -123 -66 hvcurveto
82 -45 rlineto
60 39 28 38 23 hhcurveto
hintmask 10101100
43 41 -92 88 hhcurveto
-50 -254 rmoveto
75 49 58 121 68 hvcurveto
-83 44 rlineto
-54 -37 -23 -35 -22 hhcurveto
hintmask 01101100
-40 -37 92 -85 hhcurveto
-80 -61 -64 -122 -68 hvcurveto
85 -44 rlineto
59 39 27 38 23 hhcurveto
hintmask 10101100
42 40 -93 88 hhcurveto
endchar
                </CharString>
                <CharString name="aring">
                    -8 callsubr
53 243 -24 callgsubr
445 871 -59 callgsubr
                </CharString>
                <CharString name="aringacute">
                    -4 callgsubr
301 972 -107 callsubr
144 -101 -59 callgsubr
                </CharString>
                <CharString name="asciicircum">
                    567 -20 hstem
51 533 vstem
462 152 rmoveto
122 78 -223 337 -27 -3 -283 -331 96 -81 176 214 rlineto
endchar
                </CharString>
                <CharString name="asciitilde">
                    204 143 -17 143 hstemhm
31 590 hintmask 10100000
422 204 rmoveto
77 60 82 142 62 hvcurveto
-92 43 rlineto
-76 -37 -30 -48 -22 hhcurveto
hintmask 01100000
-40 -74 126 -88 hhcurveto
-79 -69 -89 -136 -59 hvcurveto
94 -42 rlineto
76 34 30 48 23 hhcurveto
hintmask 10100000
40 79 -126 91 hhcurveto
endchar
                </CharString>
                <CharString name="asterisk">
                    561 -20 155 -20 hstem
92 539 vstem
399 221 rmoveto
94 37 -29 164 167 39 -6 100 -165 22 15 168 -99 28 -75 -153 -151 70 -58 -85 123 -120 -111 -122 63 -80 149 77 rlineto
endchar
                </CharString>
                <CharString name="asterisk.alt">
                    784 -20 hstem
74 562 vstem
418 585 rmoveto
70 164 -134 35 -12 -181 rlineto
-29 -6 rmoveto
-107 141 -97 -98 151 -101 rlineto
200 -53 rmoveto
176 25 -35 132 -164 -80 rlineto
-187 -50 rmoveto
-176 -25 36 -132 163 80 rlineto
125 -34 rmoveto
109 -141 96 98 -151 101 rlineto
-159 -46 rmoveto
-70 -164 135 -36 10 182 rlineto
endchar
                </CharString>
                <CharString name="at">
                    -175 117 130.5 116.5 237 112 110 115 hstem
35 124 74 129 147 134 vstem
478 -165 rmoveto
17 116 rlineto
-245 -35 -91 68 186 vvcurveto
254 149 224 131 57 22 -42 -69 -9 vhcurveto
1 -12 -11 0 -11 hhcurveto
-156 -86 -181 -157 -95 34 -43 49 38 44 28 40 41 hvcurveto
-7 -57 128 -1 11 76 12 66 11 57 rlinecurve
38 192 rlineto
194 38 -61 106 -150 hhcurveto
-238 -186 -297 -306 -240 125 -135 318 50 hvcurveto
-90 354 rmoveto
-15 -11 14 36 70 41 117 30 10 23 -4 -8 21 hvcurveto
-38 -201 rlineto
-17 -23 -25 -7 -13 hhcurveto
endchar
                </CharString>
                <CharString name="atilde">
                    -8 callsubr
69 97 callsubr
40 156 153 147 hintmask 11100110
523 759 -12 callgsubr
60 -708 -107 callgsubr
                </CharString>
                <CharString name="b">
                    -14 129 322 142 0 -20 225 -20 hstemhm
431 153 hintmask 10111000
227 -14 rmoveto
224 133 204 200 127 -51 62 -71 -56 -64 -40 -53 -59 hvcurveto
58 298 -153 -11 -147 -753 rlineto
-18 50 76 -16 60 hhcurveto
76 129 rmoveto
-20 -33 5 12 -35 hvcurveto
hintmask 11011000
47 242 rlineto
36 40 44 27 32 hhcurveto
29 24 -24 -63 hvcurveto
hintmask 10111000
-106 -62 -129 -66 vhcurveto
endchar
                </CharString>
                <CharString name="backslash">
                    -223 1042 hstem
98 422 vstem
227 819 rmoveto
-129 -41 293 -1001 129 42 rlineto
endchar
                </CharString>
                <CharString name="bar">
                    -182 -21 hstem
140 342 vstem
334 795 rmoveto
-194 -998 rlineto
147 hlineto
195 1001 rlineto
endchar
                </CharString>
                <CharString name="braceleft">
                    -239 1056 hstemhm
100 69 callsubr
393 -239 -57 callsubr
                </CharString>
                <CharString name="braceleft.cap">
                    -164 -21 hstemhm
111 69 callsubr
404 -185 -57 callsubr
                </CharString>
                <CharString name="braceright">
                    705 -20 hstemhm
201 70 callgsubr
28 -239 -56 callsubr
                </CharString>
                <CharString name="braceright.cap">
                    -164 -21 hstemhm
212 70 callgsubr
39 -185 -56 callsubr
                </CharString>
                <CharString name="bracketleft">
                    -200 64 callsubr
60 552 vstem
60 -200 29 callgsubr
                </CharString>
                <CharString name="bracketleft.cap">
                    -146 64 callsubr
71 552 vstem
71 -146 29 callgsubr
                </CharString>
                <CharString name="bracketright">
                    -199 64 callsubr
7 552 vstem
559 778 28 callsubr
                </CharString>
                <CharString name="bracketright.cap">
                    -145 64 callsubr
18 552 vstem
570 832 28 callsubr
                </CharString>
                <CharString name="breve">
                    -5 callsubr
                </CharString>
                <CharString name="breve.cap">
                    -5 callsubr
                </CharString>
                <CharString name="bullet">
                    158 346 hstem
151 334 vstem
485 353 rmoveto
89 -62 62 -92 -92 -88 -76 -117 -89 68 -64 84 94 88 76 119 vhcurveto
endchar
                </CharString>
                <CharString name="bullet.alt">
                    183 300 hstem
141 363 vstem
443 183 rmoveto
61 300 rlineto
-302 hlineto
-61 -300 rlineto
endchar
                </CharString>
                <CharString name="c">
                    24 callsubr
570 356 -77 callsubr
                </CharString>
                <CharString name="cacute">
                    24 callsubr
228 704 -107 callsubr
342 -348 -77 callsubr
                </CharString>
                <CharString name="caron">
                    11 callgsubr
                </CharString>
                <CharString name="caron.alt">
                    16 callgsubr
                </CharString>
                <CharString name="caron.alt.cap">
                    16 callgsubr
                </CharString>
                <CharString name="caron.cap">
                    11 callgsubr
                </CharString>
                <CharString name="ccaron">
                    24 callsubr
390 631 -94 callgsubr
190 -275 -77 callsubr
                </CharString>
                <CharString name="ccedilla">
                    -166 -21 202 -21 22 -21 58 65 329 131 hstemhm
59 154 75 131 11 140 hintmask 10111110
419 -209 rmoveto
hintmask 11011110
6 104 -30 67 -46 32 52 10 60 19 68 30 -11 80 rcurveline
-7 callgsubr
vhcurveto
hintmask 10111111
47 17 -27 -66 -1 hvcurveto
140 2 rlineto
-25 callgsubr
-99 45 -82 99 -26 hvcurveto
-40 -26 -36 -52 -33 -80 76 -24 rcurveline
hintmask 10111110
10 callgsubr
                </CharString>
                <CharString name="cdotaccent">
                    -13 131 329 131 98 callsubr
153 43 callgsubr
468 660 -50 callgsubr
271 -303 -77 callsubr
                </CharString>
                <CharString name="cedilla">
                    -31 callsubr
                </CharString>
                <CharString name="cedilla.cap">
                    -31 callsubr
                </CharString>
                <CharString name="cent">
                    23 135 245 147 138 -20 hstem
68 147 vstem
215 294 rmoveto
47 23 39 90 16 vhcurveto
-43 -196 rlineto
-50 22 -20 32 40 vvcurveto
268 -271 rmoveto
25 135 -47 3 -40 4 -35 6 rlinecurve
50 232 rlineto
32 36 -2 -3 41 hvcurveto
28 148 rlineto
3 -34 -33 1 -30 hhcurveto
31 138 rlineto
-136 hlineto
-29 -150 rlineto
-203 -40 -71 -126 -103 vvcurveto
-91 59 -70 110 -42 vhcurveto
-37 -158 rlineto
136 hlineto
25 126 38 -6 40 -3 44 -2 rlinecurve
endchar
                </CharString>
                <CharString name="check.1">
                    7 -21 713 -20 hstem
57 609 vstem
666 699 rmoveto
-151 62 -103 -165 -86 -203 -67 -210 rlinecurve
-8 1 -53 251 -141 -42 102 -405 135 -2 106 270 123 226 143 217 rlinecurve
endchar
                </CharString>
                <CharString name="check.2">
                    5 74 callsubr
41 -21 687 -20 hstemhm
9 645 hintmask 01011000
300 -10 rmoveto
hintmask 00111000
152 20 -98 282 300 405 -141 68 -210 -336 -50 172 -148 -39 92 -264 rlineto
hintmask 10011000
-188 -271 97 -43 139 190 rlineto
endchar
                </CharString>
                <CharString name="circumflex">
                    -3 callsubr
                </CharString>
                <CharString name="circumflex.cap">
                    -3 callsubr
                </CharString>
                <CharString name="colon">
                    0 186 160 187 hstem
159 293 90 callgsubr
-189 hlineto
-34 -187 rlineto
120 -346 rmoveto
34 186 rlineto
-188 hlineto
-36 -186 rlineto
endchar
                </CharString>
                <CharString name="colon.alt">
                    75 187 160 186 hstem
174 293 vstem
432 422 rmoveto
35 186 rlineto
-189 hlineto
-35 -186 rlineto
120 -347 rmoveto
35 187 rlineto
-189 hlineto
-35 -187 rlineto
endchar
                </CharString>
                <CharString name="colonmonetary">
                    528 139 hstem
58 148 vstem
206 317 rmoveto
75 36 75 153 37 vhcurveto
-81 -307 rlineto
-73 23 -35 34 63 vvcurveto
31 -399 rmoveto
116 hlineto
31 118 27 -5 29 -4 31 -4 rlinecurve
57 130 -41 7 -37 6 -33 6 rlinecurve
93 351 rlineto
3 34 37 2 41 hhcurveto
15 139 -30 -1 -29 -2 -27 -2 rlinecurve
30 107 rlineto
-117 hlineto
-32 -124 -21 -4 -19 -4 -18 -5 rlinecurve
18 69 18 68 0 vvcurveto
-117 hlineto
-47 -184 rlineto
-146 -75 -42 -113 -104 vvcurveto
-68 24 -52 45 -39 vhcurveto
-61 -216 rlineto
116 hlineto
43 160 16 -6 18 -6 18 -5 rlinecurve
endchar
                </CharString>
                <CharString name="comma">
                    -158 351 hstem
198 186 vstem
121 -124 rmoveto
62 -34 125 104 75 105 1 142 rlinecurve
-186 -4 2 -121 -13 -95 -66 -97 rlinecurve
endchar
                </CharString>
                <CharString name="commaaccent">
                    9 callsubr
                </CharString>
                <CharString name="commaaccent.cap">
                    9 callsubr
                </CharString>
                <CharString name="commaaccent.rot">
                    638 246 hstem
207 225 vstem
432 857 49 callgsubr
endchar
                </CharString>
                <CharString name="copyright">
                    8 79 84 93 122.5 128.5 87 78 hstem
50 87 64 96 63 80 70 86 vstem
50 279 rmoveto
-177 102 -94 140 196 108 181 225 175 -94 91 -138 -179 -135 -173 -228 vhcurveto
87 13 rmoveto
176 94 134 123 88 68 -56 -146 -175 -70 -138 -137 -92 -74 61 144 vhcurveto
217 223 rmoveto
-85 -68 -100 -112 -97 57 -64 133 42 hvcurveto
17 87 rlineto
-89 -20 -22 22 48 vvcurveto
51 17 48 25 11 11 -9 -25 -1 vhcurveto
80 1 rlineto
88 3 -34 40 -55 hhcurveto
endchar
                </CharString>
                <CharString name="d">
                    45 callgsubr
hintmask 10111100
247 130 -48 callgsubr
                </CharString>
                <CharString name="dagger">
                    483 89 callgsubr
130 475 hintmask 01100000
333 155 rmoveto
hintmask 10100000
96 335 152 70 callsubr
hintmask 01100000
81 callsubr
-83 -371 21 -13 rlineto
endchar
                </CharString>
                <CharString name="daggerdbl">
                    262 120.5 -93.5 121.5 72.5 89 callgsubr
87 518 hintmask 10011000
320 99 rmoveto
47 171 171 -16 24 121 -161 15 rlineto
hintmask 10101000
27 100 153 70 callsubr
hintmask 01011000
81 callsubr
-22 -100 -155 15 -24 -122 151 -14 -46 -207 20 -14 rlineto
endchar
                </CharString>
                <CharString name="dcaron">
                    45 callgsubr
hintmask 01111100
699 -21 callgsubr
hintmask 10111100
-616 -765 -48 callgsubr
                </CharString>
                <CharString name="dcroat">
                    50 callgsubr
46 95 65 67 callgsubr
hintmask 10111110
247 130 -17 callgsubr
hintmask 01111110
40 callsubr
91 470 rlineto
63 hlineto
19 96 rlineto
-64 hlineto
13 65 -152 -11 -10 -54 rlineto
-133 hlineto
-19 -95 rlineto
133 hlineto
-9 -48 -38 callsubr
                </CharString>
                <CharString name="degree">
                    319 114 216 115 hstem
138 122 193 122 vstem
377 764 rmoveto
-126 -113 -97 -145 -126 84 -77 115 124 114 96 146 124 -84 79 -114 hvcurveto
-26 -331 rmoveto
-53 -38 42 59 69 43 46 59 53 38 -42 -59 -68 -44 -47 -58 hvcurveto
endchar
                </CharString>
                <CharString name="dieresis">
                    4 callsubr
                </CharString>
                <CharString name="dieresis.cap">
                    4 callsubr
                </CharString>
                <CharString name="divide">
                    63 145 63 131 63 144 hstem
61 525 vstem
427 465 rmoveto
31 144 rlineto
-158 hlineto
-30 -144 rlineto
316 -63 rmoveto
-499 hlineto
-26 -131 rlineto
499 hlineto
-212 -208 rmoveto
31 145 rlineto
-157 hlineto
-31 -145 rlineto
endchar
                </CharString>
                <CharString name="dollar">
                    -77 237 369 234 hstem
112 161 105 160 vstem
270 -77 rmoveto
29 115 rlineto
177 8 62 69 70 138 -265 115 63 vvcurveto
37 83 5 203 -56 vhcurveto
29 139 -37 7 -35 6 -32 4 rlinecurve
39 120 rlineto
-139 hlineto
-31 -113 rlineto
-174 -5 -67 -71 -73 -136 266 -109 -66 vvcurveto
-40 -93 -2 -218 51 vhcurveto
-29 -139 47 -8 43 -6 39 -4 rlinecurve
-35 -119 rlineto
endchar
                </CharString>
                <CharString name="dotaccent">
                    23 callgsubr
                </CharString>
                <CharString name="dotaccent.cap">
                    23 callgsubr
                </CharString>
                <CharString name="dotlessi">
                    -43 callsubr
37 callgsubr
554 60 -96 callsubr
                </CharString>
                <CharString name="e">
                    -17 callsubr
552 67 -106 callgsubr
                </CharString>
                <CharString name="eacute">
                    -17 callsubr
236 705 -107 callsubr
316 -638 -106 callgsubr
                </CharString>
                <CharString name="ebreve">
                    -23 callgsubr
64 119 -24 callsubr
573 861 -104 callsubr
-108 -741 -106 callgsubr
                </CharString>
                <CharString name="ecaron">
                    -17 callsubr
397 632 -94 callgsubr
165 -565 -106 callgsubr
                </CharString>
                <CharString name="ecircumflex">
                    -17 callsubr
525 635 -82 callgsubr
133 -675 -106 callgsubr
                </CharString>
                <CharString name="edieresis">
                    -23 callgsubr
81 153 -24 callsubr
600 662 -102 callsubr
368 -592 -106 callgsubr
                </CharString>
                <CharString name="edotaccent">
                    -23 callgsubr
98 callsubr
153 -24 callsubr
476 661 -50 callgsubr
245 -593 -106 callgsubr
                </CharString>
                <CharString name="egrave">
                    -23 callgsubr
121 -20 -24 callsubr
590 700 -96 callgsubr
-7 -569 -106 callgsubr
                </CharString>
                <CharString name="eight">
                    -14 118 469 126 0 -20 hstemhm
45 144 -54 143 110 138 hintmask 10101100
526 179 rmoveto
70 -52 61 -56 54 vhcurveto
50 29 61 33 74 39 -44 87 rcurveline
-85 -44 -72 -38 -60 -34 rrcurveto
hintmask 11001100
-37 35 -27 32 29 vvcurveto
39 44 18 167 -35 vhcurveto
44 145 rlineto
-255 19 -143 -93 -113 vvcurveto
-57 37 -50 45 -46 vhcurveto
hintmask 10110100
-138 -92 -34 -60 -65 vvcurveto
-92 79 -64 136 vhcurveto
hintmask 10101100
155 111 87 106 hvcurveto
-235 -75 rmoveto
hintmask 10110100
-53 -49 23 46 27 16 30 90 60 hvcurveto
50 -44 43 -40 -37 vvcurveto
hintmask 10101100
-39 -42 -26 -55 vhcurveto
endchar
                </CharString>
                <CharString name="eight.den">
                    25 callsubr
33 callsubr
hintmask 11101100
414 -115 -58 callsubr
                </CharString>
                <CharString name="eight.inf">
                    -178 88 280 95 hstemhm
72 -13 callgsubr
hintmask 11011000
428 -49 -57 callgsubr
                </CharString>
                <CharString name="eight.num">
                    461 88 154 -20 146 95 hstemhm
180 -13 callgsubr
hintmask 11101100
536 590 -58 callsubr
                </CharString>
                <CharString name="eight.small">
                    -11 88 280 95 hstemhm
96 -13 callgsubr
hintmask 11011000
452 118 -57 callgsubr
                </CharString>
                <CharString name="eight.sup">
                    350 88 269 -20 31 95 hstemhm
158 -13 callgsubr
hintmask 11001100
514 479 -63 callsubr
hintmask 11101100
-98 callsubr
hintmask 11010100
-40 callgsubr
hintmask 11001100
18 callgsubr
hintmask 11010100
-85 callsubr
                </CharString>
                <CharString name="ellipsis">
                    0 194 hstem
-22 190 13 190 13 190 cntrmask 01110000
124 45 callsubr
552 45 callsubr
-57 45 callsubr
endchar
                </CharString>
                <CharString name="emacron">
                    -23 callgsubr
95 128 -24 callsubr
630 802 -56 callgsubr
-53 -607 -106 callgsubr
                </CharString>
                <CharString name="emdash">
                    274 122 hstem
72 523 vstem
595 396 rmoveto
-498 hlineto
-25 -122 rlineto
499 hlineto
endchar
                </CharString>
                <CharString name="endash">
                    274 122 hstem
81 484 vstem
565 396 rmoveto
-460 hlineto
-24 -122 rlineto
461 hlineto
endchar
                </CharString>
                <CharString name="eogonek">
                    85 callsubr
177 129 -108 -21 216 82 168 124 hstemhm
54 149 -6 139 97 146 hintmask 1010110110000000
492 -188 rmoveto
-14 8 callgsubr
53 127 68 89 47 vhcurveto
-14 78 rlineto
hintmask 0110111010000000
-261 -47 -68 11 -6 96 rrcurveto
-81 callgsubr
-130 84 -100 169 16 vhcurveto
hintmask 1001010110000000
-78 -44 -32 -48 -44 vvcurveto
hintmask 1010110110000000
-81 102 -51 193 91 vhcurveto
hintmask 0101111010000000
-128 643 -78 callgsubr
                </CharString>
                <CharString name="equal">
                    152 132 111 131 hstem
51 547 vstem
598 526 rmoveto
-472 hlineto
-27 -131 rlineto
473 hlineto
-21 -111 rmoveto
-473 hlineto
-27 -132 rlineto
473 hlineto
endchar
                </CharString>
                <CharString name="eth">
                    -17 122 290 119 183 -20 hstem
49 157 216 152 vstem
265 -17 rmoveto
176 133 155 215 99 -30 89 -51 81 hvcurveto
87 25 -21 84 -121 -34 -28 34 -32 33 -34 31 rlinecurve
-122 -73 25 -23 22 -22 20 -22 rlinecurve
-108 -30 25 -84 142 40 15 -22 13 -23 10 -23 rlinecurve
1 -8 -7 0 -8 hhcurveto
-173 -141 -145 -170 -129 83 -87 133 hvcurveto
26 122 rmoveto
-54 -31 46 75 87 50 82 71 20 36 -7 -14 38 hvcurveto
1 -11 0 -12 -12 vvcurveto
-129 -49 -105 -82 vhcurveto
endchar
                </CharString>
                <CharString name="exclam">
                    0 171 hstem
159 343 vstem
362 285 rmoveto
140 468 rlineto
-200 hlineto
-44 -468 rlineto
84 -285 rmoveto
34 171 rlineto
-184 hlineto
-33 -171 rlineto
endchar
                </CharString>
                <CharString name="exclamdown">
                    517 171 hstem
137 343 vstem
297 688 rmoveto
-34 -171 rlineto
184 hlineto
33 171 rlineto
-203 -285 rmoveto
-140 -467 rlineto
200 hlineto
44 467 rlineto
endchar
                </CharString>
                <CharString name="f">
                    -198 120 327 121 62 callsubr
31 rmoveto
72 -29 76 -77 73 vhcurveto
182 -6 23 125 -295 -2 rlineto
142 46 74 109 67 49 callsubr
-152 -162 -187 -229 -81 hvcurveto
-67 -1 -23 -98 56 -18 rlineto
-13 -59 -7 -60 -59 vvcurveto
-178 70 -93 109 113 103 96 133 vhcurveto
-160 -109 rmoveto
-47 -36 38 123 44 4 46 7 45 hvcurveto
94 -69 40 -75 -70 vvcurveto
-48 -20 -34 -42 vhcurveto
endchar
                </CharString>
                <CharString name="f.lig">
                    -167 120 295.5 121.5 62 callsubr
48 rmoveto
66 -28 70 -75 67 vhcurveto
179 -5 23 125 -297 -2 rlineto
141 46 75 110 68 49 callsubr
-153 -163 -193 -223 -81 hvcurveto
-65 -1 -23 -98 54 -17 rlineto
-11 -54 -7 -54 -52 vvcurveto
-171 70 -88 109 113 103 89 126 vhcurveto
-160 -95 rmoveto
-47 -36 35 114 39 3 40 6 40 hvcurveto
95 -64 41 -70 -63 vvcurveto
-44 -20 -27 -42 vhcurveto
endchar
                </CharString>
                <CharString name="five">
                    -4 140 -115 -21 555.5 132.5 hstemhm
398 145 hintmask 10110000
543 235 rmoveto
81 -61 76 -192 42 vhcurveto
26 122 248 -1 40 133 rlineto
-398 hlineto
-77 -351 rlineto
197 -32 72 -39 -52 vvcurveto
-52 -75 -45 -251 26 vhcurveto
hintmask 01110000
-17 -143 rlineto
hintmask 10110000
352 -29 136 139 125 vvcurveto
endchar
                </CharString>
                <CharString name="five.den">
                    -6 callsubr
hstem
90 callsubr
vstem
420 -84 -102 callgsubr
                </CharString>
                <CharString name="five.inf">
                    -169 78 callsubr
316 93 callsubr
434 -18 -102 callgsubr
                </CharString>
                <CharString name="five.num">
                    470 32 callsubr
424 118 hintmask 10110000
-18 callgsubr
hintmask 01110000
-67 callgsubr
hintmask 10110000
-41 callsubr
                </CharString>
                <CharString name="five.small">
                    -2 78 callsubr
340 93 callsubr
458 149 -102 callgsubr
                </CharString>
                <CharString name="five.sup">
                    359 101 107 -20 153.5 14 callgsubr
hstem
402 93 callsubr
520 510 -102 callgsubr
                </CharString>
                <CharString name="fiveeighths">
                    51 callgsubr
84 32 callsubr
58 113 -52 111 74 110 10 118 hintmask 1111101010100000
-18 callgsubr
hintmask 1111011010100000
-67 callgsubr
hintmask 1111101010100000
-39 callgsubr
hintmask 1111011011100000
-476 -330 -86 callsubr
hintmask 1111011100100000
-40 callgsubr
hintmask 1111011011100000
18 callgsubr
hintmask 1111011101100000
-85 callsubr
                </CharString>
                <CharString name="fivesixths">
                    -244 74 callgsubr
255 95 84 32 callsubr
68 36 callsubr
-5 118 hintmask 1111011010000000
-18 callgsubr
hintmask 1110111010000000
-67 callgsubr
hintmask 1111011100000000
-12 -105 rlineto
hintmask 1111011010000000
263 -18 98 84 85 vvcurveto
hintmask 1110111100000000
-476 -330 -67 callsubr
150 -630 -100 callgsubr
                </CharString>
                <CharString name="four">
                    21 -21 123 132 433 -20 29 -20 hstemhm
40 536 hintmask 11011000
540 123 rmoveto
36 132 rlineto
-66 hlineto
41 211 -141 -11 -40 -200 rlineto
-173 hlineto
hintmask 11101000
77 117 58 119 68 197 rrcurveto
hintmask 11011000
-162 9 -60 -202 -52 -128 -79 -144 rlinecurve
-7 -100 rlineto
304 hlineto
-24 -123 rlineto
140 hlineto
24 123 rlineto
endchar
                </CharString>
                <CharString name="four.den">
                    -159 98 hstem
54 398 vstem
424 -159 -95 callsubr
                </CharString>
                <CharString name="four.inf">
                    -93 98 hstem
68 398 vstem
438 -93 -95 callsubr
                </CharString>
                <CharString name="four.num">
                    546 98 hstem
176 398 vstem
546 546 -95 callsubr
                </CharString>
                <CharString name="four.small">
                    0 172 -98 98 hstemhm
92 398 hintmask 01100000
462 74 rmoveto
hintmask 10100000
-84 callgsubr
hintmask 01100000
-43 callgsubr
hintmask 10100000
-14 -74 rlineto
110 hlineto
hintmask 01100000
14 74 rlineto
endchar
                </CharString>
                <CharString name="four.sup">
                    435 98 hstem
154 398 vstem
524 435 -95 callsubr
                </CharString>
                <CharString name="fourfifths">
                    3 callgsubr
160 98 hstem
90 callsubr
vstem
546 546 -99 callgsubr
-435 -255 -32 callsubr
                </CharString>
                <CharString name="fraction">
                    -178 1023 hstem
-62 756 vstem
61 -178 rmoveto
633 957 -122 66 -634 -958 rlineto
endchar
                </CharString>
                <CharString name="fraction.afrc">
                    291 95 hstem
66 505 vstem
66 291 -67 callsubr
endchar
                </CharString>
                <CharString name="g">
                    -190 141 85 137 280 124 7 -20 53 callsubr
hintmask 11101100
262 173 -73 callgsubr
hintmask 11011100
-16 callgsubr
hintmask 11101100
-79 callgsubr
                </CharString>
                <CharString name="gbreve">
                    59 callsubr
83 119 53 callsubr
hintmask 11011100
583 865 -104 callsubr
-408 -639 -66 callsubr
                </CharString>
                <CharString name="gcommaaccent">
                    59 callsubr
53 callsubr
hintmask 11011000
500 878 49 callgsubr
-238 -705 -73 callgsubr
hintmask 10111000
-16 callgsubr
hintmask 11011000
-79 callgsubr
                </CharString>
                <CharString name="gdotaccent">
                    59 callsubr
100.5 153 53 callsubr
hintmask 11011100
486 665 -50 callgsubr
-55 -491 -66 callsubr
                </CharString>
                <CharString name="germandbls">
                    -11 134 -123 123 539 125 hstemhm
423 157 -143 158 hintmask 10110000
252 -11 rmoveto
247 -5 81 89 101 vvcurveto
76 -50 71 -67 69 vhcurveto
hintmask 01101000
76 84 56 78 88 vvcurveto
75 -52 72 -116 -156 -110 -111 -173 -33 vhcurveto
-99 -503 rlineto
156 hlineto
98 511 rlineto
106 20 37 45 46 hhcurveto
34 17 -27 -34 -60 -46 -63 -103 -123 hvcurveto
hintmask 10110000
94 -92 41 -62 -42 vvcurveto
-41 -46 1 -110 9 vhcurveto
endchar
                </CharString>
                <CharString name="grave">
                    11 callsubr
                </CharString>
                <CharString name="grave.cap">
                    11 callsubr
                </CharString>
                <CharString name="greater">
                    693 -20 hstem
63 496 vstem
126 -28 rmoveto
409 264 24 130 -313 327 -107 -104 270 -267 -2 -13 -344 -215 rlineto
endchar
                </CharString>
                <CharString name="greaterequal">
                    -1 132 448 -20 135 -20 hstem
23 556 vstem
407 427 rmoveto
-2 -7 -309 -125 26 -125 437 184 20 117 -344 223 -84 -115 rlineto
369 -448 76 callsubr
                </CharString>
                <CharString name="guillemotleft">
                    4 -21 599 67 callsubr
28 623 hintmask 10110000
168 -17 14 callsubr
rlineto
hintmask 11010000
66 callgsubr
                </CharString>
                <CharString name="guillemotleft.cap">
                    50 601 hstem
40 623 vstem
180 50 14 callsubr
66 callgsubr
                </CharString>
                <CharString name="guillemotright">
                    7 -21 23 -21 hstemhm
-1 623 hintmask 10100000
376 -14 97 callgsubr
65 callsubr
hintmask 01100000
84 callgsubr
58 callsubr
                </CharString>
                <CharString name="guillemotright.cap">
                    572 -20 23 -20 hstemhm
11 623 hintmask 01100000
388 53 97 callgsubr
rlineto
hintmask 10100000
65 callsubr
84 callgsubr
rlineto
hintmask 01100000
58 callsubr
                </CharString>
                <CharString name="guilsinglleft">
                    -29 620 hstem
116 414 vstem
322 -29 39 callsubr
                </CharString>
                <CharString name="guilsinglleft.cap">
                    38 620 hstem
128 414 vstem
334 38 39 callsubr
                </CharString>
                <CharString name="guilsinglright">
                    -24 619 hstem
89 414 vstem
176 -24 32 callgsubr
                </CharString>
                <CharString name="guilsinglright.cap">
                    557 -20 hstem
101 414 vstem
188 43 32 callgsubr
                </CharString>
                <CharString name="h">
                    55 callgsubr
578 -20 226 -20 7 callsubr
hintmask 10111000
75 callsubr
hintmask 01110100
-10 callgsubr
-63 -63 -33 -62 -64 vhcurveto
59 301 -154 -11 -149 -773 61 callsubr
71 366 rlineto
43 45 38 20 callsubr
hintmask 10111000
69 callgsubr
                </CharString>
                <CharString name="hbar">
                    55 callgsubr
574 -20 70 95 65 -20 7 callsubr
hintmask 10111100
75 callsubr
hintmask 01111010
50 64 167 109 vvcurveto
61 -24 53 -78 -63 -64 -34 -63 -64 vhcurveto
29 147 rlineto
134 hlineto
19 95 rlineto
-135 hlineto
13 65 -154 -11 -10 -54 rlineto
-61 hlineto
-19 -96 rlineto
61 hlineto
-120 -623 61 callsubr
70 361 rlineto
43 45 38 23 30 hhcurveto
27 11 -19 -28 hvcurveto
hintmask 10111100
-75 -61 -155 -83 7 callgsubr
endchar
                </CharString>
                <CharString name="hcoslug">
                    -100 75 5 10 -6 10 -4 11 -10 10 -9 7 0 12 -11 11 -7 15 -15 26 -25 26 -15 8 -8 15 -12 12 0 14 -9 10 -10 19 -9 11 2 8 -7 32 71.5 22.5 514 -20 hstemhm
87 64 10 16 -3 8 5 40 -35 12 -1 12 14 10 -2 10 -10 42 -31 9 -1 7 3 12 -6 11 9 40 -29 13 -9 10 0 12 -4 11 -2 12 -5 16 18 11 10 8 hintmask 000000100000000000010110000010000010000010010000
537 700 rmoveto
-450 hlineto
hintmask 100000000000000000011010000000100000001000000000
-800 450 vlineto
-300 396 rmoveto
-17 11 -11 17 -16 vhcurveto
9 13 5 12 12 vvcurveto
18 -9 11 -13 -12 -8 -9 -13 vhcurveto
49 -64 rmoveto
12 -12 9 -12 9 -11 15 25 3 18 -17 17 -7 -7 -10 -9 -14 -9 rrcurveto
-39 -93 rmoveto
12 9 3 6 8 hvcurveto
74 callsubr
22 -14 13 rrcurveto
-8 -8 -4 -11 -11 vvcurveto
-23 17 -18 22 vhcurveto
91 34 rmoveto
-22 19 13 -9 15 hhcurveto
15 9 9 13 8 hvcurveto
5 -1 rlineto
-44 -1 -27 -27 -32 hhcurveto
-22 -17 8 26 -25 hvcurveto
-23 -21 -25 -11 -32 hhcurveto
-45 -36 30 40 31 21 24 40 13 hvcurveto
-16 17 -7 13 22 vvcurveto
32 31 32 51 46 25 -30 -26 -10 -2 -8 -5 -7 vhcurveto
20 15 -8 -20 2 hvcurveto
18 12 14 10 19 hhcurveto
21 16 -15 -24 -23 -16 -17 -21 -14 -12 7 12 -6 hvcurveto
-12 -7 -12 -10 -11 -15 rrcurveto
hintmask 000000000000000000010000000000000100000000000000
-72 -105 rmoveto
-8 10 -5 -10 vlineto
hintmask 000000000000000010000000000000000100000000000000
-15 vlineto
-3 1 -1 2 2 1 1 4 1 vhcurveto
4 -1 rlineto
-2 -7 -3 -3 -6 -6 -3 4 56 callgsubr
hintmask 000000000000000001000000000000010000000000000000
15 -5 5 5 7 vlineto
hintmask 000000000000000100000000100000000000000000000000
-75 -21 41 callsubr
64 callgsubr
22 hmoveto
-1 callgsubr
hintmask 000000000000001000000000000000000000000100000000
132 -1 rmoveto
0 6 -2 4 -3 -5 -1 -5 56 callgsubr
0 -6 1 -4 5 3 2 4 56 callgsubr
64 callgsubr
-120 -9 rmoveto
4 hlineto
hintmask 000000000000000001000010000000000000000000000000
19 -4 5 vlineto
hintmask 000000000000000000010000000010000000000000000000
13 -6 hlineto
4 2 3 3 5 hhcurveto
7 2 -5 -6 hvcurveto
hintmask 000000000000000100000000000000010000000000000000
-14 5 -5 vlineto
hintmask 000000000010000000000000000010000000000000000000
-17 5 3 hlineto
hintmask 000000000000000001000000000010000000000000000000
13 vlineto
3 -1 3 -3 -3 -3 -3 -5 vhcurveto
-11 3 -5 vlineto
64 callgsubr
-16 hlineto
-71 5 rmoveto
6 hlineto
hintmask 000000000000000000100010000000000000000000000000
31 -6 5 vlineto
hintmask 000000000000000000010000001000000000000000000000
38 hlineto
hintmask 000000000000000001000000001000000000000000000000
-15 -5 vlineto
8 -2 -1 2 -6 hhcurveto
-8 hlineto
hintmask 000000000000000000100001000000000000000000000000
-14 3 vlineto
4 0 1 5 1 hvcurveto
5 hlineto
hintmask 000000000000000100000000100000000000000000000000
-17 -5 vlineto
5 -1 0 1 -4 hhcurveto
-3 hlineto
hintmask 000000000000000100000001000000000000000000000000
-12 7 -5 vlineto
64 callgsubr
-23 hlineto
hintmask 000000000000000010000000000000000100000000000000
133 10 rmoveto
5 hlineto
-4 3 3 -3 3 hhcurveto
3 1 2 1 hvcurveto
hintmask 000000000000000000100000000000000100000000000000
7 -18 -4 12 vvcurveto
4 4 5 7 3 3 -1 -3 2 vhcurveto
1 4 rlineto
5 -10 -5 hlineto
4 -3 -2 1 -3 hhcurveto
-2 -2 -1 -2 hvcurveto
hintmask 000000000010000000000000000000000000100000000000
-5 18 2 -11 vvcurveto
-5 -3 -4 -7 -5 -3 2 2 -2 vhcurveto
-1 -3 rlineto
-5 hlineto
hintmask 000000000000000000100000000000000000100000000000
38 38 rmoveto
-5 5 hlineto
hintmask 000000000000000000010000000000000000000100000000
14 hlineto
hintmask 000000000000000000100000000000000000000100000000
-20 vlineto
4 1 4 3 4 hhcurveto
hintmask 000000000100000000000000000000000000000010000000
7 0 5 -6 0 -9 0 -7 -3 -9 0 flex1
-6 -3 2 4 -2 hvcurveto
-3 -6 rlineto
-4 hlineto
hintmask 100000000000000000010000000000000000000010000000
39 -6 rmoveto
3 3 2 4 hvcurveto
-3 7 -9 18 0 vvcurveto
-3 5 18 -5 -4 hlineto
7 -15 6 15 rlineto
-4 5 13 -5 -4 hlineto
hintmask 000000001000000000000000000000000000000010000000
-10 -24 rlineto
-7 -3 -4 -5 -6 hhcurveto
-6 -3 3 4 3 2 2 3 hvcurveto
hintmask 100000000000000000010000000000000000000010000000
5 1 -5 -2 -2 hvcurveto
hintmask 000000010000000000000000000000000000000000000000
45 -24 rmoveto
-6 -4 vlineto
-2 -4 -2 -3 -3 -3 rrcurveto
2 -2 2 -2 1 1 1 1 1 hflex1
3 -1 rlineto
-5 -1 -2 -4 -6 hhcurveto
hintmask 100000000000000000000000000000000000000001000000
-4 0 -2 2 -3 3 -3 -3 -4 -2 -6 flex1
-7 -5 4 6 6 4 3 6 2 hvcurveto
-3 3 -2 3 4 vvcurveto
hintmask 000000000001000000000000000000000000000000100000
5 4 6 9 6 4 -4 -5 -5 -3 -2 -5 -3 vhcurveto
2 -2 4 -5 3 -3 2 2 2 3 1 2 rrcurveto
-5 6 hlineto
hintmask 000000000100000000000000000000000010000000000000
-114 4 rmoveto
11 4 hlineto
-3 -2 2 2 2 1 1 0 hvcurveto
0 -1 1 -2 -2 -2 -2 -6 vhcurveto
hintmask 100000000000000000000000000000000000000000010000
132 -13 rmoveto
hintmask 000100000000000000000000000000000000000000010000
15 9 8 11 vhcurveto
hintmask 000100000000000000000000000000000000000000000000
5 4 -2 -3 3 hvcurveto
4 6 vlineto
-16 -6 vlineto
hintmask 000000100000000000000000000000000000000000000000
9 -3 -2 3 -6 hhcurveto
-6 -4 -5 -12 hvcurveto
82 callsubr
-11 4 -6 8 vhcurveto
hintmask 000010000000000000000000000000000000000000000000
6 3 6 6 1 hvcurveto
6 hlineto
hintmask 100000000000000000000000000000000000000000000000
-10 -1 -6 -7 -11 hhcurveto
hintmask 100000000000000000000000000000000000000000010000
-13 -8 7 14 hvcurveto
hintmask 000000100000000000000000000000000000000000100000
-29 4 rmoveto
2 1 2 3 3 vvcurveto
3 -2 2 -3 -2 -2 -1 -3 -2 2 -3 3 -3 vhcurveto
hintmask 010000000000000000000000000000000000010000000000
-68 -11 rmoveto
79 callgsubr
hintmask 100000000000000000000000000000000000010000000000
-6 -1 -4 -5 -8 hhcurveto
-10 -6 6 9 hvcurveto
hintmask 000000000010000000000000000000000000010000000000
10 7 6 8 11 4 -7 -10 -1 vhcurveto
hintmask 010000000000000000000000000001000000000000000000
-89 hmoveto
79 callgsubr
83 callgsubr
-6 -1 -4 -5 -8 hhcurveto
hintmask 100000000000000000000000010000000000000000000000
-10 -6 6 9 hvcurveto
hintmask 000000000010000000000000010000000000000000000000
10 7 6 8 vhcurveto
hintmask 000000000010000000000000000000001000000000000000
11 4 -7 -10 -1 hvcurveto
hintmask 010000000000000000000010000001000000000000000000
-63 2 41 callsubr
252 hmoveto
82 callsubr
52 callsubr
hintmask 010000000000000000000010000001000000000000000000
50 callsubr
hintmask 000001000000000000000000000001000000010000000000
-138 2 rmoveto
75 callgsubr
-70 hmoveto
75 callgsubr
hintmask 010000000000000000000000000100000000000000000000
-22 -2 rmoveto
-1 callgsubr
82 callsubr
252 hmoveto
-1 callgsubr
83 callgsubr
-208 -10 rmoveto
4 hlineto
hintmask 000001000000000000000000000000001000000000000000
19 -5 5 5 1 vlineto
hintmask 000000000000010000000000000000001000000000000000
10 7 4 6 4 2 -1 -1 2 vhcurveto
8 2 rlineto
hintmask 010000000000000000000000000000000000100000000000
-39 4 -5 vlineto
hintmask 100000000000000000000000000000000010000000000000
-17 5 4 hlineto
hintmask 000001000000000000000000000000000010000000000000
19 -11 vlineto
hintmask 010000000000000000000000000000000010000000000000
-19 4 -5 vlineto
83 callgsubr
-17 hlineto
hintmask 100000000000000000000000000000000001000000000000
69 5 rmoveto
4 hlineto
hintmask 000001000000000000000000000000000001000000000000
19 -4 5 vlineto
hintmask 000000000010000000000000000000000001000000000000
13 -6 hlineto
5 2 3 2 4 hhcurveto
4 2 -2 -4 -3 -2 -2 -3 -2 -3 1 3 hvcurveto
1 vlineto
-1 -3 -3 -4 -1 hvcurveto
hintmask 010000000000000000000000000000000001000000000000
-12 6 -5 vlineto
hintmask 100000000000000000000000000000000001000000000000
-19 hlineto
hintmask 100000000000000000000010000000000000000000000000
-183 5 rmoveto
6 hlineto
hintmask 000000100000000000000010000000000000000000000000
31 -6 5 vlineto
hintmask 000000000000100000000001000000000000000000000000
21 -5 -5 hlineto
hintmask 000000100000000000000001000000000000000000000000
-12 16 12 -5 5 vlineto
hintmask 000000000000100000000000000100000000000000000000
21 -5 -6 hlineto
hintmask 010000000000000000000000000100000000000000000000
-31 6 -5 vlineto
hintmask 100000000000000000000001000000000000000000000000
-21 5 5 hlineto
hintmask 001000000000000000000001000000000000000000000000
14 -16 vlineto
hintmask 010000000000000000000001000000000000000000000000
-14 5 -5 vlineto
hintmask 100000000000000000000010000000000000000000000000
-21 hlineto
hintmask 100000000000000000000000000000000000000000100000
234 7 rmoveto
-2 2 -4 5 -4 4 rrcurveto
-2 -2 -1 -2 -3 vvcurveto
-4 3 -3 4 2 2 1 2 2 vhcurveto
111 -2 rmoveto
0 -3 -2 -3 -4 -4 -2 3 56 callgsubr
0 3 2 3 4 4 2 -3 56 callgsubr
endchar
                </CharString>
                <CharString name="hungarumlaut">
                    -20 callgsubr
                </CharString>
                <CharString name="hungarumlaut.cap">
                    -20 callgsubr
                </CharString>
                <CharString name="hyphen">
                    269 134 hstem
141 366 vstem
507 403 rmoveto
-339 hlineto
-27 -134 rlineto
340 hlineto
endchar
                </CharString>
                <CharString name="i">
                    -43 callsubr
82.5 156 37 callgsubr
68 callsubr
253 -582 -96 callsubr
                </CharString>
                <CharString name="iacute">
                    -43 callsubr
37 callgsubr
223 -34 callgsubr
331 -628 -96 callsubr
                </CharString>
                <CharString name="ibreve">
                    -43 callsubr
63 119 37 callgsubr
560 844 -104 callsubr
-93 -731 -96 callsubr
                </CharString>
                <CharString name="icircumflex">
                    -43 callsubr
134 67 callsubr
178 161 hintmask 11101000
512 618 39 callgsubr
148 -665 -96 callsubr
                </CharString>
                <CharString name="idieresis">
                    -43 callsubr
80 153 37 callgsubr
587 645 -102 callsubr
383 -582 -96 callsubr
                </CharString>
                <CharString name="igrave">
                    -43 callsubr
120 -20 37 callgsubr
577 683 -96 callgsubr
8 -559 -96 callsubr
                </CharString>
                <CharString name="imacron">
                    -43 callsubr
94 128 37 callgsubr
617 785 -56 callgsubr
-38 -597 -96 callsubr
                </CharString>
                <CharString name="iogonek">
                    85 callsubr
176 133 -61 61 -33 callsubr
82.5 156 hstemhm
178 161 -143 138 hintmask 01101110
68 callsubr
hintmask 10011101
190 -830 rmoveto
-14 69 rlineto
-103 38 callgsubr
50 67 40 153 71 vhcurveto
hintmask 01101110
-89 callsubr
rlineto
-118 -33 28 -73 107 hhcurveto
hintmask 10101101
-67 -45 -30 -47 -43 vvcurveto
hintmask 10011101
-81 102 -51 193 91 vhcurveto
endchar
                </CharString>
                <CharString name="j">
                    -191 143 482.5 129.5 98 callsubr
159.5 hstem
-11 604 vstem
544 649 rmoveto
49 160 -178 -8 -38 -159 rlineto
-388 -833 rmoveto
248 2 80 13 52 52 85 85 -74 146 138 456 -145 1 rcurveline
-256 -55 11 -77 205 5 -75 -320 31 -119 -30 -30 rlinecurve
-18 -18 -25 -1 -213 7 rrcurveto
endchar
                </CharString>
                <CharString name="k">
                    -53 callsubr
endchar
                </CharString>
                <CharString name="kcommaaccent">
                    -53 callsubr
-98 -516 -95 callgsubr
                </CharString>
                <CharString name="l">
                    -11 123 523 -55 callsubr
endchar
                </CharString>
                <CharString name="l.ultra">
                    102 callgsubr
523 151 hstem
107 36 callgsubr
vstem
532 69 rmoveto
-20 74 -133 -46 -74 1 -28 70 rlinecurve
202 172 114 172 140 vvcurveto
87 -48 47 -75 6 callgsubr
-251 162 -63 263 150 vhcurveto
-269 191 rmoveto
228 83 147 67 21 18 -15 -36 -70 -61 -120 -128 -137 vhcurveto
3 0 0 0 vhcurveto
endchar
                </CharString>
                <CharString name="lacute">
                    63 callgsubr
378 900 -107 callsubr
171 -831 -103 callsubr
endchar
                </CharString>
                <CharString name="lcaron">
                    63 callgsubr
683 -21 callgsubr
-298 -826 -103 callsubr
endchar
                </CharString>
                <CharString name="lcommaaccent">
                    -11 123 523 -55 callsubr
-297 -937 -95 callgsubr
                </CharString>
                <CharString name="ldot">
                    102 callgsubr
162 164 197 -55 callsubr
244 -361 rmoveto
33 62 callgsubr
-134 hlineto
-33 -164 rlineto
endchar
                </CharString>
                <CharString name="less">
                    693 -20 hstem
88 496 vstem
521 693 rmoveto
-410 -265 -23 -129 313 -327 107 103 -270 268 2 13 344 215 rlineto
endchar
                </CharString>
                <CharString name="lessequal">
                    -1 132 563 -20 hstem
23 567 vstem
275 421 rmoveto
315 152 -39 121 -431 -223 -24 -117 365 -184 73 119 -261 124 rlineto
247 -282 76 callsubr
                </CharString>
                <CharString name="lslash">
                    102 callgsubr
523 151 71 106 hstemhm
115 101 -92 36 callgsubr
hintmask 11110100
115 790 rmoveto
-54 33 -40 43 -38 vhcurveto
80 97 rlineto
-33 26 -22 17 17 vvcurveto
51 206 14 274 -77 vhcurveto
49 118 rlineto
-366 91 -264 -63 -159 vvcurveto
434 -721 -68 callgsubr
vhcurveto
hintmask 11101100
-23 callsubr
hvcurveto
-76 -48 36 -60 55 32 rlineto
hintmask 11110100
0 callsubr
rrcurveto
hintmask 11101100
-68 callsubr
endchar
                </CharString>
                <CharString name="m">
                    -10 109 -78 -21 425 140 0 -20 31 -20 hstemhm
292 119 -12 144 -79 158 hintmask 10001010
584 22 rmoveto
-11 77 rlineto
-21 -2 -9 4 10 vvcurveto
hintmask 10001101
51 79 243 95 vvcurveto
52 -21 24 -45 -43 -51 -27 -53 -51 vhcurveto
56 1 -20 24 -40 hhcurveto
-35 -40 -23 -44 -42 hvcurveto
hintmask 01010100
6 56 -136 -8 -28 -164 -24 -128 -52 -265 rlinecurve
144 hlineto
0 46 236 31 167 vhcurveto
hintmask 01100101
15 18 18 7 14 hhcurveto
25 -1 -21 -42 -9 hvcurveto
-70 -362 rlineto
103 hlineto
78 406 rlineto
13 17 16 6 13 hhcurveto
16 4 -8 -16 hvcurveto
hintmask 10001010
-49 -65 -243 -63 vvcurveto
-67 52 -6 133 49 vhcurveto
endchar
                </CharString>
                <CharString name="macron">
                    29 callsubr
                </CharString>
                <CharString name="macron.cap">
                    29 callsubr
                </CharString>
                <CharString name="minus">
                    271 131 hstem
75 498 vstem
573 402 rmoveto
-473 hlineto
-25 -131 rlineto
471 hlineto
endchar
                </CharString>
                <CharString name="mu">
                    -174 -21 181 131 -127 141 -118 -21 571 95 callsubr
hstemhm
1 590 -239 157 hintmask 11000110
154 87 callsubr
hintmask 10010110
26 176 rlineto
-1 9 9 -1 10 hhcurveto
hintmask 10010101
49 47 30 60 48 hvcurveto
hintmask 11001001
-3 -105 68 -28 174 104 -12 76 rcurveline
-72 -18 -4 4 9 44 79 406 rcurveline
-150 hlineto
hintmask 10100101
-51 callsubr
-7 27 52 10 hvcurveto
70 357 -153 -11 -146 -751 rlineto
endchar
                </CharString>
                <CharString name="multiply">
                    579 -20 hstem
48 550 vstem
432 83 rmoveto
112 93 -122 152 176 147 -85 104 -176 -146 -124 155 -112 -93 124 -155 -177 -147 86 -104 176 146 rlineto
endchar
                </CharString>
                <CharString name="n">
                    -16 callsubr
hintmask 10011000
586 51 -92 callsubr
endchar
                </CharString>
                <CharString name="nacute">
                    -16 callsubr
hintmask 10010100
221 704 -107 callsubr
hintmask 10011000
365 -653 -92 callsubr
endchar
                </CharString>
                <CharString name="naira">
                    21 -21 162.5 121 -114 121 -118.5 14 callgsubr
109 122 -116 122 -99 98 181.5 67 callsubr
3 637 hintmask 1001001011000000
241 451 rmoveto
8 hlineto
40 -180 -82 -1 rlineto
197 -31 rmoveto
-35 169 74 1 -31 -170 rlineto
-64 -239 rmoveto
127 hlineto
hintmask 1010010101000000
33 169 67 1 24 121 -67 -1 18 95 66 1 24 122 -66 -1 35 181 rlineto
-114 hlineto
hintmask 1001001011000000
-34 -181 -113 -1 -38 184 -139 -5 rlineto
hintmask 1100100011000000
-36 -183 -67 -1 -23 -122 67 1 -19 -96 -67 -1 -23 -121 67 1 -32 -163 rlineto
119 hlineto
hintmask 1001001011000000
32 171 121 2 rlineto
endchar
                </CharString>
                <CharString name="ncaron">
                    -16 callsubr
hintmask 10010100
382 631 -94 callgsubr
hintmask 10011000
214 -580 -92 callsubr
endchar
                </CharString>
                <CharString name="ncommaaccent">
                    -16 callsubr
hintmask 10011000
586 51 -92 callsubr
-461 -355 -95 callgsubr
                </CharString>
                <CharString name="nine">
                    265 106 213 120 hstem
95 140 204 143 vstem
129 -18 rmoveto
325 92 128 197 193 vvcurveto
158 -88 82 -130 -146 -123 -105 -154 -169 159 -68 160 112 vhcurveto
-39 -80 -89 -80 -190 -46 rrcurveto
139 353 rmoveto
64 38 53 64 52 50 -36 -115 -8 0 -7 -1 -8 vhcurveto
-116 -75 -87 42 90 vvcurveto
endchar
                </CharString>
                <CharString name="nine.den">
                    -64 72 callsubr
87 47 callgsubr
119 -250 -93 callsubr
                </CharString>
                <CharString name="nine.inf">
                    -163 -21 186 72 callsubr
101 47 callgsubr
133 -184 -93 callsubr
                </CharString>
                <CharString name="nine.num">
                    641 72 callsubr
209 47 callgsubr
241 455 -93 callsubr
                </CharString>
                <CharString name="nine.small">
                    4 -21 186 72 callsubr
125 47 callgsubr
157 -17 -93 callsubr
                </CharString>
                <CharString name="nine.sup">
                    530 72 callsubr
187 47 callgsubr
219 344 -93 callsubr
                </CharString>
                <CharString name="notequal">
                    15 -21 158 132 111 131 159 -20 hstem
51 547 vstem
524 152 rmoveto
27 132 100 callsubr
61 111 61 callsubr
26 131 rlineto
-103 hlineto
68 123 -112 36 -88 -159 rlineto
-237 hlineto
-27 -131 rlineto
191 hlineto
-62 -111 rlineto
-150 hlineto
-27 -132 rlineto
104 hlineto
-68 -123 113 -35 88 158 rlineto
endchar
                </CharString>
                <CharString name="ntilde">
                    55 callgsubr
567 -20 31 -20 90 115 -64 -20 59 115 7 callsubr
hintmask 1001100010000000
496 763 rmoveto
hintmask 1001011010000000
-72 callgsubr
hintmask 1001100010000000
-72 callsubr
hintmask 1001011100000000
90 -712 -14 callsubr
hintmask 1001011010000000
-30 callsubr
hintmask 0110011010000000
-70 callgsubr
hintmask 1001011100000000
69 callgsubr
                </CharString>
                <CharString name="numbersign">
                    24 -21 556 -20 37 -20 130 -20 hstemhm
35 571 hintmask 10111000
263 284 rmoveto
19 106 95 17 -20 -106 rlineto
-148 -309 rmoveto
29 159 95 17 -31 -165 106 14 32 171 94 17 27 132 -96 -17 20 106 96 18 25 132 rlineto
hintmask 11011000
-97 -17 29 153 -107 -14 -29 -159 -95 -17 30 164 -106 -13 -32 -170 -92 -17 -26 -133 93 17 -19 -105 -95 -17 -25 -134 95 17 -29 -152 rlineto
endchar
                </CharString>
                <CharString name="numero">
                    0 174 -104 104 514 -20 28 -20 hstemhm
-9 682 -284 284 hintmask 10010100
576 696 rmoveto
-111 -76 -177 -164 -105 35 -40 61 111 77 176 165 105 -36 40 -61 hvcurveto
-385 -696 rmoveto
97 hlineto
hintmask 10100100
134 688 rlineto
-125 hlineto
-44 -285 rlineto
-2 hlineto
-23 285 rlineto
-102 hlineto
-135 -688 rlineto
126 hlineto
51 332 rlineto
3 hlineto
hintmask 01010100
408 -262 rmoveto
hintmask 10010100
21 104 rlineto
-249 hlineto
hintmask 01011000
-21 -104 rlineto
endchar
                </CharString>
                <CharString name="o">
                    1 callsubr
-4 callsubr
579 346 -105 callgsubr
                </CharString>
                <CharString name="oacute">
                    1 callsubr
-4 callsubr
222 705 -107 callsubr
357 -359 -105 callgsubr
                </CharString>
                <CharString name="obreve">
                    1 callsubr
64 119 -4 callsubr
559 861 -104 callsubr
-67 -462 -105 callgsubr
                </CharString>
                <CharString name="ocircumflex">
                    1 callsubr
-4 callsubr
511 635 -82 callgsubr
174 -396 -105 callgsubr
                </CharString>
                <CharString name="odieresis">
                    1 callsubr
81 153 -4 callsubr
585 662 -102 callsubr
410 -313 -105 callgsubr
                </CharString>
                <CharString name="oe">
                    -12 119 -117 128 334 122 -119 119 hstemhm
20 144 349 142 hintmask 01011100
291 412 rmoveto
hintmask 10011100
-79 -42 -226 -58 -17 -10 17 35 85 49 211 54 vhcurveto
hintmask 01011100
15 9 -15 -28 hvcurveto
hintmask 01101100
201 40 rmoveto
15 6 -11 -20 -38 -23 -65 -81 -23 hvcurveto
82 16 31 75 36 hhcurveto
107 -382 rmoveto
-14 72 rlineto
-146 -41 -41 9 78 vvcurveto
7 0 7 1 7 vhcurveto
181 28 75 103 104 vvcurveto
hintmask 10011100
87 -49 43 -67 -51 -49 -31 -48 -41 vhcurveto
50 -21 -40 29 -52 hhcurveto
-151 -114 -213 -189 -116 52 -68 84 54 50 33 50 43 hvcurveto
hintmask 01101100
34 -92 93 -30 169 121 rrcurveto
endchar
                </CharString>
                <CharString name="ogonek">
                    -19 callgsubr
                </CharString>
                <CharString name="ogonek.cap">
                    -19 callgsubr
                </CharString>
                <CharString name="ograve">
                    1 callsubr
121 -20 -4 callsubr
575 700 -96 callgsubr
35 -290 -105 callgsubr
                </CharString>
                <CharString name="ohungarumlaut">
                    1 callsubr
115 101 callgsubr
1 callgsubr
hintmask 11011100
260 644 -77 callgsubr
hintmask 11101100
30 callsubr
146 -348 -105 callgsubr
                </CharString>
                <CharString name="omacron">
                    1 callsubr
95 128 -4 callsubr
615 802 -56 callgsubr
-11 -328 -105 callgsubr
                </CharString>
                <CharString name="one">
                    0 129 579 -20 hstem
50 490 vstem
503 hmoveto
37 130 rlineto
-152 hlineto
112 578 -150 -12 -16 -83 -160 -16 -19 -111 rlineto
154 hlineto
-69 -357 rlineto
-164 hlineto
-26 -129 rlineto
endchar
                </CharString>
                <CharString name="one.den">
                    -233 86 callgsubr
50 371 vstem
399 -233 rmoveto
-55 callgsubr
                </CharString>
                <CharString name="one.inf">
                    -167 86 callgsubr
64 371 vstem
413 -167 rmoveto
-55 callgsubr
                </CharString>
                <CharString name="one.num">
                    472 21 callsubr
172 371 hintmask 10110000
55 callsubr
hintmask 01110000
-90 callgsubr
hintmask 10110000
-44 callgsubr
endchar
                </CharString>
                <CharString name="one.small">
                    0 86 callgsubr
88 371 vstem
437 hmoveto
-55 callgsubr
                </CharString>
                <CharString name="one.sup">
                    361 86 callgsubr
150 371 vstem
499 361 rmoveto
-55 callgsubr
                </CharString>
                <CharString name="oneeighth">
                    51 callgsubr
86 98 -98 99 179 95 33 callsubr
hintmask 1111101011000000
55 callsubr
hintmask 1111011011000000
-90 callgsubr
hintmask 1111101011000000
-36 -180 rlineto
-123 hlineto
-19 -98 rlineto
-106 -181 -65 callgsubr
                </CharString>
                <CharString name="onefifth">
                    3 callgsubr
86 98 -98 99 179 95 hstemhm
90 callsubr
hintmask 11110110
521 472 rmoveto
hintmask 11101110
22 99 rlineto
-112 hlineto
72 355 -119 -10 -13 -65 -122 -12 -17 -89 rlineto
118 hlineto
hintmask 11110110
-36 -180 rlineto
-123 hlineto
-19 -98 rlineto
-106 -181 -32 callsubr
                </CharString>
                <CharString name="onehalf">
                    -233 100 240 105 79 27 callgsubr
310 130 -61 callgsubr
306 -619 -69 callgsubr
                </CharString>
                <CharString name="onequarter">
                    -159 98 352 27 callgsubr
54 517 hintmask 11101100
55 callsubr
hintmask 11011100
-90 callgsubr
hintmask 11101100
-47 callsubr
339 -545 -95 callsubr
                </CharString>
                <CharString name="onesixth">
                    -244 74 callgsubr
255 27 callgsubr
68 36 callsubr
hintmask 11110111
55 callsubr
hintmask 11101111
-90 callgsubr
hintmask 11110111
-47 callsubr
150 -630 -100 callgsubr
                </CharString>
                <CharString name="onethird">
                    -239 91 callgsubr
86 27 callgsubr
293 121 -61 callgsubr
329 -486 -88 callsubr
                </CharString>
                <CharString name="ordfeminine">
                    110 99 62 92 -92 109 222 95 0 -20 hstemhm
124 126 107 127 hintmask 10110110
293 380 rmoveto
-24 -19 18 42 74 46 88 54 11 18 -4 -6 20 hvcurveto
-11 -55 -14 -74 -7 -39 rrcurveto
-26 -27 -28 -18 -19 hhcurveto
hintmask 11001110
251 -68 rmoveto
-8 51 -53 -4 -4 2 5 30 rlinecurve
56 287 rlineto
hintmask 10110110
12 -52 -51 7 -45 hhcurveto
-169 -99 -148 -147 -87 44 -44 55 41 49 29 40 44 hvcurveto
hintmask 11001110
1 -75 53 -20 133 67 rrcurveto
hintmask 11010110
-445 -103 rmoveto
-19 -99 rlineto
415 hlineto
20 99 rlineto
endchar
                </CharString>
                <CharString name="ordmasculine">
                    110 99 62 96 234 96 hstem
138 125 174 124 vstem
561 523 rmoveto
109 -68 65 -107 -145 -103 -120 -131 -109 69 -66 107 145 102 120 132 vhcurveto
-298 -66 rmoveto
72 43 72 63 41 27 -32 -57 -72 -44 -73 -63 -41 -26 33 57 vhcurveto
-155 -248 rmoveto
-19 -99 rlineto
376 hlineto
20 99 rlineto
endchar
                </CharString>
                <CharString name="oslash">
                    56 callsubr
202 235 -64 callgsubr
                </CharString>
                <CharString name="oslashacute">
                    56 callsubr
222 705 -107 callsubr
-20 -470 -64 callgsubr
                </CharString>
                <CharString name="otilde">
                    1 callsubr
70 97 callsubr
1 callgsubr
hintmask 11100110
496 764 -12 callgsubr
83 -418 -105 callgsubr
                </CharString>
                <CharString name="p">
                    84 callsubr
-10 -20 30 -20 hstemhm
429 153 hintmask 11001100
94 callgsubr
-36 hvcurveto
hintmask 11100100
47 242 rlineto
36 41 45 25 30 hhcurveto
28 24 -26 -62 hvcurveto
hintmask 11001100
15 callgsubr
-57 -69 -45 -59 -62 hvcurveto
hintmask 11010100
14 94 -150 -9 -21 -165 -47 -226 -69 -362 rlinecurve
endchar
                </CharString>
                <CharString name="paragraph">
                    82 128 483 -20 hstem
72 143 vstem
423 210 rmoveto
-25 -23 3 4 -20 hvcurveto
65 336 rlineto
21 23 -1 -3 25 hvcurveto
-274 -179 rmoveto
69 29 68 82 30 vhcurveto
-55 -283 rlineto
-37 28 -19 40 48 vvcurveto
77 -487 rmoveto
39 205 21 -3 23 -2 23 -1 rlinecurve
-37 -189 128 14 154 786 rlineto
-378 15 -193 -149 -218 vvcurveto
-101 48 -78 95 -43 vhcurveto
-48 -249 rlineto
endchar
                </CharString>
                <CharString name="parenleft">
                    703 -20 hstem
115 151 vstem
512 801 -11 callgsubr
                </CharString>
                <CharString name="parenleft.cap">
                    -178 1033 hstem
126 151 vstem
523 855 -11 callgsubr
                </CharString>
                <CharString name="parenright">
                    -231 1034 hstem
346 151 vstem
99 -231 -12 callsubr
                </CharString>
                <CharString name="parenright.cap">
                    -177 1034 hstem
357 151 vstem
110 -177 -12 callsubr
                </CharString>
                <CharString name="percent">
                    5 -21 23 -21 716 101 callgsubr
43 590 -522 226 6 225 hintmask 01011000
633 634 rmoveto
-78 69 -512 -649 77 -68 rlineto
hintmask 01100100
127 716 rmoveto
-68 -68 -83 -101 -73 40 -42 50 67 69 82 101 73 -40 43 -50 hvcurveto
hintmask 10010010
186 -718 rmoveto
68 67 87 101 71 -40 40 -50 -68 -67 -85 -101 -71 40 -42 50 hvcurveto
endchar
                </CharString>
                <CharString name="period">
                    0 186 hstem
161 222 vstem
350 hmoveto
33 186 rlineto
-188 hlineto
-34 -186 rlineto
endchar
                </CharString>
                <CharString name="periodcentered">
                    241 183 hstem
201 242 vstem
409 241 rmoveto
34 183 rlineto
-207 hlineto
-35 -183 rlineto
endchar
                </CharString>
                <CharString name="peso">
                    21 -21 375 125 -114 106 82 121 hstemhm
37 617 hintmask 10111000
456 492 rmoveto
-181 hlineto
16 82 92 9 57 -35 16 -56 rlinecurve
-217 -181 rmoveto
15 75 rlineto
187 hlineto
-31 -54 -68 -34 -103 13 rrcurveto
hintmask 11011000
391 64 rmoveto
24 125 rlineto
-57 hlineto
-13 133 -130 94 -285 -42 -36 -185 rcurveline
-66 hlineto
-24 77 callsubr
66 hlineto
-72 -375 rlineto
141 hlineto
34 173 183 26 130 72 50 104 rlinecurve
endchar
                </CharString>
                <CharString name="plus">
                    271 131 hstem
61 525 vstem
560 271 rmoveto
26 131 rlineto
-180 hlineto
37 187 rlineto
-140 hlineto
-36 -187 rlineto
-179 hlineto
-27 -131 rlineto
181 hlineto
-37 -189 rlineto
139 hlineto
37 189 rlineto
endchar
                </CharString>
                <CharString name="plusminus">
                    38 130 158 130 hstem
24 566 vstem
509 38 rmoveto
25 130 rlineto
-173 hlineto
31 158 rlineto
171 hlineto
27 130 rlineto
-172 hlineto
35 181 rlineto
-141 hlineto
-35 -181 68 callgsubr
-27 -130 rlineto
172 hlineto
-31 -158 68 callgsubr
-25 -130 rlineto
endchar
                </CharString>
                <CharString name="published">
                    8 79 515 58 callgsubr
185 138 177 243 161 -96 91 42 callsubr
-56 -129 -189 -98 -141 -128 -85 -65 58 138 vhcurveto
143 -105 rmoveto
16 82 rlineto
105 16 58 53 74 vvcurveto
74 -52 48 -154 -25 vhcurveto
-62 -322 rlineto
endchar
                </CharString>
                <CharString name="q">
                    -202 135 53 143 -122 -21 466 126 hstemhm
45 152 120 158 hintmask 10111100
583 -134 96 callsubr
-99 -16 -2 2 8 41 rlinecurve
111 574 rlineto
20 -49 -71 15 -55 hhcurveto
-235 -134 -203 -201 -127 60 -61 70 55 63 38 51 57 hvcurveto
-28 -149 -26 -141 65 -33 222 114 rlinecurve
hintmask 11011100
-328 263 rmoveto
-33 -25 26 61 104 58 132 69 21 35 -6 -12 37 hvcurveto
-46 -245 rlineto
-34 -41 -43 -26 -32 hhcurveto
endchar
                </CharString>
                <CharString name="question">
                    0 168 hstem
409 177 vstem
151 599 rmoveto
172 -18 86 -23 -61 vvcurveto
-50 -56 -39 -148 -77 vhcurveto
48 -81 rlineto
239 116 94 94 94 vvcurveto
109 -126 65 -273 27 vhcurveto
109 -755 rmoveto
33 168 rlineto
-181 hlineto
-33 -168 rlineto
endchar
                </CharString>
                <CharString name="questiondown">
                    521 167 hstem
63 177 vstem
353 688 rmoveto
-33 -167 rlineto
181 hlineto
33 167 rlineto
-36 -599 rmoveto
-172 19 -86 22 61 vvcurveto
50 56 39 148 77 vhcurveto
-48 81 rlineto
-239 -116 -94 -93 -95 vvcurveto
-108 126 -66 273 -27 vhcurveto
endchar
                </CharString>
                <CharString name="quotedbl">
                    415 338 hstem
140 470 vstem
494 415 rmoveto
108 285 8 53 rlineto
-173 hlineto
-56 -338 rlineto
-128 hmoveto
108 285 9 53 rlineto
-174 hlineto
-56 -338 rlineto
endchar
                </CharString>
                <CharString name="quotedblbase">
                    -159 352 hstem
81 184 89 184 vstem
276 -122 rmoveto
60 -37 124 101 74 109 4 94 callsubr
-15 -94 -66 -96 rlinecurve
-266 hmoveto
60 -37 117 101 74 108 4 141 rlinecurve
-184 -5 4 -121 -15 -91 -60 -96 rlinecurve
endchar
                </CharString>
                <CharString name="quotedblleft">
                    415 351 hstem
112 184 90 183 vstem
640 730 rmoveto
-61 36 -116 -100 -74 -108 -3 -141 rlinecurve
183 5 -4 121 15 90 60 97 rlinecurve
-266 hmoveto
-61 36 -123 -100 -74 -110 -4 -141 rlinecurve
184 5 -3 121 15 92 66 97 rlinecurve
endchar
                </CharString>
                <CharString name="quotedblright">
                    400 351 hstem
177 183 89 184 vstem
371 435 rmoveto
60 -35 124 101 75 108 3 94 callsubr
-14 -93 -67 -98 rlinecurve
-265 hmoveto
60 -35 116 101 75 106 3 142 rlinecurve
-183 -4 3 -121 -14 -91 -60 -98 rlinecurve
endchar
                </CharString>
                <CharString name="quoteleft">
                    415 351 hstem
236 187 vstem
499 730 rmoveto
-62 36 -124 -100 -74 -110 -3 -141 rlinecurve
187 5 -4 121 13 92 67 97 rlinecurve
endchar
                </CharString>
                <CharString name="quoteright">
                    400 351 hstem
311 188 vstem
236 435 rmoveto
62 -35 123 101 74 108 4 142 rlinecurve
-188 -4 5 -121 -14 -93 -66 -98 rlinecurve
endchar
                </CharString>
                <CharString name="quotesinglbase">
                    -159 352 hstem
219 188 vstem
144 -122 rmoveto
62 -37 123 101 74 109 4 142 rlinecurve
-188 -4 4 -121 -13 -94 -66 -96 rlinecurve
endchar
                </CharString>
                <CharString name="quotesingle">
                    415 338 hstem
256 239 vstem
371 415 rmoveto
118 285 6 53 rlineto
-183 hlineto
-56 -338 rlineto
endchar
                </CharString>
                <CharString name="r">
                    19 callsubr
569 39 -91 callgsubr
endchar
                </CharString>
                <CharString name="racute">
                    19 callsubr
278 708 -107 callsubr
291 -669 -91 callgsubr
endchar
                </CharString>
                <CharString name="rcaron">
                    19 callsubr
404 635 -94 callgsubr
175 -596 -91 callgsubr
endchar
                </CharString>
                <CharString name="rcommaaccent">
                    19 callsubr
569 39 -91 callgsubr
-470 -330 -95 callgsubr
                </CharString>
                <CharString name="registered">
                    199 73 173.5 164.5 77 73 hstem
71 79 400 79 vstem
366 760 rmoveto
-174 -121 -123 -182 -156 103 -100 160 174 121 123 182 156 -103 100 -160 hvcurveto
-5 -73 rmoveto
114 75 -70 -122 -140 -88 -83 -123 -114 -75 70 122 140 88 83 123 hvcurveto
11 -333 rmoveto
87 10 -49 100 rlineto
42 20 18 26 28 vvcurveto
51 -57 34 -140 -17 vhcurveto
-47 -247 rlineto
83 hlineto
16 86 11 1 rlineto
endchar
                </CharString>
                <CharString name="registered.alt">
                    8 79 99 319 97 58 callgsubr
196 127 161 254 161 -96 96 42 callsubr
-65 -129 -200 -86 -121 -140 -85 -65 58 138 vhcurveto
197 -102 rmoveto
96 12 -46 131 rlineto
40 27 33 35 38 vvcurveto
58 -58 39 -150 -21 vhcurveto
-61 -314 rlineto
89 hlineto
23 118 4 1 rlineto
endchar
                </CharString>
                <CharString name="ring">
                    15 callsubr
                </CharString>
                <CharString name="ring.cap">
                    15 callsubr
                </CharString>
                <CharString name="ruble">
                    21 -21 109 114 -113 108 58 115 186 118 hstemhm
484 145 hintmask 10111100
484 495 rmoveto
-60 -48 -42 -137 -2 vhcurveto
36 186 rlineto
98 8 51 -30 -60 vvcurveto
-261 -495 rmoveto
21 110 rlineto
199 hlineto
31 108 rlineto
-209 hlineto
13 65 rlineto
257 26 94 99 111 vvcurveto
127 -125 78 -297 -39 vhcurveto
-57 -294 rlineto
-70 hlineto
-22 -115 rlineto
24 24 0 22 hhcurveto
hintmask 11011100
-10 -53 rlineto
-72 hlineto
-21 -114 rlineto
71 87 callgsubr
endchar
                </CharString>
                <CharString name="rupee">
                    -11 126 -126 129 -104 -21 28 -21 29 -21 687 -20 hstemhm
412 212 -156 134 hintmask 00100101
195 -7 rmoveto
hintmask 00001101
117 15 -30 294 rlineto
61 66 49 95 95 callgsubr
hintmask 00010101
-134 -689 78 callgsubr
hlineto
49 238 5 1 rlineto
hintmask 10000101
423 -57 rmoveto
79 -30 68 -20 58 vhcurveto
hintmask 10000110
115 103 -13 91 -94 hhcurveto
-85 -51 -76 -97 -22 3 -22 4 -21 hvcurveto
-20 -17 -24 -20 -28 -22 rrcurveto
hintmask 01000101
31 -50 22 14 20 13 19 14 rlinecurve
14 -43 15 -38 -34 vvcurveto
-51 -20 -14 -117 11 vhcurveto
hintmask 10000101
1 -129 rlineto
241 -5 29 109 89 vvcurveto
endchar
                </CharString>
                <CharString name="rupeeindia">
                    361 105 89 133 hstem
46 567 vstem
508 65 rmoveto
-126 92 -65 45 -67 25 109 24 74 50 31 60 rrcurveto
75 hlineto
20 105 rlineto
-84 hlineto
-9 35 -23 31 -40 23 rrcurveto
177 hlineto
33 133 rlineto
-451 hlineto
-32 -131 130 -12 54 -35 17 -44 rlinecurve
-215 hlineto
-20 -105 rlineto
219 hlineto
-31 -41 -65 -33 -127 -6 -46 -114 rcurveline
137 -37 39 -26 166 -126 rrcurveto
endchar
                </CharString>
                <CharString name="s">
                    -51 callgsubr
endchar
                </CharString>
                <CharString name="sacute">
                    18 callsubr
233 721 -107 callsubr
312 -545 -75 callgsubr
endchar
                </CharString>
                <CharString name="scaron">
                    -11 61 callgsubr
657 -20 53 callgsubr
hintmask 10101000
394 648 -94 callgsubr
161 -472 rmoveto
60 callgsubr
hintmask 10110000
-73 callsubr
hintmask 01101000
-6 callgsubr
hintmask 10101000
27 callsubr
endchar
                </CharString>
                <CharString name="scedilla">
                    -164 -21 174 61 callgsubr
-101 -21 hstemhm
211 261 -169 131 -42 153 hintmask 11000100
303 -210 rmoveto
131 3 rlineto
hintmask 10010100
7 116 -38 70 -56 27 rrcurveto
hintmask 10010010
149 31 49 67 72 vvcurveto
60 callgsubr
hintmask 11001000
-73 callsubr
hintmask 10100010
-6 callgsubr
hintmask 11000100
-3 -139 rlineto
28 27 0 1 24 hvcurveto
-36 -28 -33 -50 -30 -73 76 -24 rcurveline
10 callgsubr
                </CharString>
                <CharString name="schwa">
                    -16 125 168 82 86 132 hstem
45 145 230 150 vstem
216 -16 rmoveto
196 158 196 181 183 -166 121 -333 -168 hvcurveto
15 -79 260 47 68 -10 6 -96 rlinecurve
-246 -18 -129 -79 -130 vvcurveto
-91 65 -57 106 vhcurveto
43 125 rmoveto
-42 -27 24 35 64 83 34 141 11 hvcurveto
-89 -20 -59 -79 -76 hhcurveto
endchar
                </CharString>
                <CharString name="scommaaccent">
                    -51 callgsubr
-433 -478 -95 callgsubr
                </CharString>
                <CharString name="section">
                    -126 122 580 123 hstemhm
61 146 -42 157 8 159 -64 147 hintmask 11100100
207 283 rmoveto
30 42 26 48 14 vhcurveto
64 -36 64 -27 -34 vvcurveto
-22 -30 -23 -70 -16 vhcurveto
-62 30 -56 25 33 vvcurveto
hintmask 11011000
282 -247 rmoveto
46 -31 35 -42 28 vhcurveto
hintmask 11010100
96 27 60 40 66 129 -250 41 79 vvcurveto
27 22 22 39 40 24 -23 -62 15 vhcurveto
132 27 rlineto
119 -19 -49 62 -113 hhcurveto
-145 -103 -96 -94 -42 22 -33 31 -28 hvcurveto
hintmask 11101000
-87 -24 -70 -51 -72 -139 269 -31 -63 vvcurveto
-35 -59 -12 -207 50 vhcurveto
-34 -139 rlineto
hintmask 11011000
329 -57 130 104 99 vvcurveto
endchar
                </CharString>
                <CharString name="semicolon">
                    346 187 hstem
209 185 90 callgsubr
-190 hlineto
-33 -187 rlineto
-102 -471 rmoveto
62 -33 129 107 71 105 5 134 rlinecurve
-185 -3 -2 -121 -15 -92 -65 -97 rlinecurve
endchar
                </CharString>
                <CharString name="servicemark">
                    310 82 137 160 -69 82 -14 101 callgsubr
85 95 6 97 hintmask 10001100
445 382 rmoveto
25 hlineto
hintmask 11000100
80 callgsubr
hintmask 10010100
79 callsubr
hintmask 10001100
85 callgsubr
hintmask 11000100
42 217 rlineto
3 hlineto
-109 70 rmoveto
hintmask 10100100
67 -11 -31 36 -61 hhcurveto
-79 -52 -55 -64 hvcurveto
hintmask 10001010
-89 101 -34 -47 vvcurveto
-26 -32 -6 -95 35 vhcurveto
-18 -95 rlineto
175 -39 67 67 68 vvcurveto
hintmask 10100100
81 -103 41 55 vvcurveto
18 11 8 14 16 10 -14 -24 5 vhcurveto
endchar
                </CharString>
                <CharString name="seven">
                    12 -21 37 -21 544 137 hstemhm
88 544 hintmask 10110000
243 -9 rmoveto
100 190 121 198 141 182 27 127 rcurveline
-468 hlineto
-30 -137 rlineto
305 hlineto
1 -7 rlineto
hintmask 01110000
-140 -177 -115 -177 -97 -183 rrcurveto
endchar
                </CharString>
                <CharString name="seven.den">
                    106 102 hstem
86 391 vstem
214 -240 -70 callsubr
endchar
                </CharString>
                <CharString name="seven.inf">
                    172 102 hstem
100 391 vstem
228 -174 -70 callsubr
endchar
                </CharString>
                <CharString name="seven.num">
                    811 102 hstem
208 391 vstem
336 465 -70 callsubr
endchar
                </CharString>
                <CharString name="seven.small">
                    14 -21 34 -21 333 102 hstemhm
124 391 hintmask 10110000
252 -7 -60 callgsubr
rlineto
hintmask 01110000
21 callgsubr
rrcurveto
endchar
                </CharString>
                <CharString name="seven.sup">
                    700 102 hstem
186 391 vstem
314 354 -70 callsubr
endchar
                </CharString>
                <CharString name="seveneighths">
                    51 callgsubr
425 102 33 callsubr
hintmask 11111011
336 465 -70 callsubr
-142 -187 -86 callsubr
hintmask 11111101
-40 callgsubr
hintmask 11111011
18 callgsubr
hintmask 11111101
-85 callsubr
                </CharString>
                <CharString name="six">
                    -16 120 213 106 283 -20 hstem
68 143 204 140 vstem
286 -16 rmoveto
146 123 105 154 169 -158 68 -161 -112 hvcurveto
39 80 89 80 190 46 -33 132 rcurveline
-325 -92 -128 -197 -193 vvcurveto
-157 88 -83 130 vhcurveto
27 120 rmoveto
-52 -50 36 115 8 0 8 1 8 hvcurveto
117 74 86 -42 -90 vvcurveto
-63 -38 -54 -64 vhcurveto
endchar
                </CharString>
                <CharString name="six.den">
                    -244 74 callgsubr
hstem
68 36 callsubr
vstem
235 -244 -100 callgsubr
                </CharString>
                <CharString name="six.inf">
                    -178 74 callgsubr
-72 -21 hstemhm
82 36 callsubr
hintmask 10111000
249 -178 rmoveto
109 85 68 97 hvcurveto
hintmask 11011000
106 -114 44 -114 -66 vhcurveto
-58 callgsubr
hintmask 10111000
-54 callgsubr
hintmask 11011000
80 40 53 -25 -50 vvcurveto
hintmask 10111000
-33 -18 -31 -45 vhcurveto
endchar
                </CharString>
                <CharString name="six.num">
                    461 74 callgsubr
hstem
190 36 callsubr
vstem
357 461 -100 callgsubr
                </CharString>
                <CharString name="six.small">
                    -11 74 callgsubr
hstem
106 36 callsubr
vstem
273 -11 -100 callgsubr
                </CharString>
                <CharString name="six.sup">
                    350 74 callgsubr
hstem
168 36 callsubr
vstem
335 350 -100 callgsubr
                </CharString>
                <CharString name="slash">
                    -215 1031 hstem
-84 791 vstem
578 816 rmoveto
-662 -991 138 -40 653 981 rlineto
endchar
                </CharString>
                <CharString name="space">
                    endchar
                </CharString>
                <CharString name="sterling">
                    -9 142 -128 -21 285 110 183 142 hstemhm
470 144 hintmask 10111000
571 158 rmoveto
-60 30 -52 -60 -39 -9 -149 32 rlinecurve
12 38 6 40 5 40 rrcurveto
169 hlineto
20 110 rlineto
-176 hlineto
7 47 8 42 16 32 rrcurveto
35 18 27 27 35 hhcurveto
31 21 -24 -74 hvcurveto
144 10 92 callsubr
-43 82 -119 -109 -92 -78 -84 -42 vhcurveto
-25 -50 -11 -53 -9 -60 rrcurveto
-75 hlineto
-22 -110 rlineto
82 hlineto
-5 -31 -6 -33 -7 -35 rrcurveto
hintmask 01111000
3 -163 -29 -189 147 hhcurveto
45 41 18 30 33 hvcurveto
hintmask 10111000
257 -78 45 28 64 176 rrcurveto
endchar
                </CharString>
                <CharString name="t">
                    -38 callgsubr
endchar
                </CharString>
                <CharString name="tcaron">
                    41 callgsubr
504 929 -45 callgsubr
-139 -876 -61 callsubr
endchar
                </CharString>
                <CharString name="tcommaaccent">
                    -38 callgsubr
-409 -367 -95 callgsubr
                </CharString>
                <CharString name="thorn">
                    84 callsubr
0 -20 227 -20 hstemhm
429 153 hintmask 11011100
94 callgsubr
-37 hvcurveto
hintmask 11101100
47 242 rlineto
35 42 45 26 30 hhcurveto
28 24 -26 -62 hvcurveto
hintmask 11011100
15 callgsubr
-54 -66 -41 -55 -59 hvcurveto
59 303 -152 -11 -189 -968 rlineto
endchar
                </CharString>
                <CharString name="three">
                    -5 134 -108 -21 555 133 hstemhm
391 145 hintmask 10110000
536 203 rmoveto
73 -58 66 -145 46 vhcurveto
246 171 15 129 rlineto
-416 hlineto
-24 -133 rlineto
259 hlineto
-249 -173 -8 -67 rlineto
161 -43 74 -46 -42 vvcurveto
-42 -71 -34 -246 35 vhcurveto
hintmask 01110000
-18 -143 rlineto
hintmask 10110000
346 -33 134 126 110 vvcurveto
endchar
                </CharString>
                <CharString name="three.den">
                    -239 91 callgsubr
hstem
293 121 vstem
414 -100 -88 callsubr
                </CharString>
                <CharString name="three.inf">
                    -173 91 callgsubr
hstem
307 121 vstem
428 -34 -88 callsubr
                </CharString>
                <CharString name="three.num">
                    466 65 callgsubr
415 121 hintmask 10110000
-47 callgsubr
hintmask 01110000
-22 callsubr
hintmask 10110000
-10 callsubr
endchar
                </CharString>
                <CharString name="three.small">
                    -6 101 -75 -21 340 99 hstemhm
331 121 hintmask 10110000
452 133 -87 callgsubr
hintmask 01110000
88 callgsubr
hintmask 10110000
-10 callsubr
endchar
                </CharString>
                <CharString name="three.sup">
                    355 91 callgsubr
hstem
393 121 vstem
514 494 -88 callsubr
                </CharString>
                <CharString name="threeeighths">
                    51 callgsubr
80 101 8 -20 256 99 33 callsubr
1 121 hintmask 1111101010100000
-47 callgsubr
hintmask 1111011010100000
-22 callsubr
hintmask 1111101010100000
-10 callsubr
hintmask 1111101011000000
-470 -314 -65 callgsubr
                </CharString>
                <CharString name="threefifths">
                    3 callgsubr
80 65 callgsubr
90 callsubr
-5 121 hintmask 01110101
-47 callgsubr
hintmask 01101101
-22 callsubr
hintmask 01110101
-10 callsubr
hintmask 11110110
-470 -314 -32 callsubr
                </CharString>
                <CharString name="threequarters">
                    -159 98 352 95 80 65 callgsubr
415 121 hintmask 11101100
-47 callgsubr
hintmask 11011100
-22 callsubr
hintmask 11101100
-10 callsubr
-470 -314 -67 callsubr
339 -545 -95 callsubr
                </CharString>
                <CharString name="tilde">
                    -36 callsubr
                </CharString>
                <CharString name="tilde.cap">
                    -36 callsubr
                </CharString>
                <CharString name="trademark">
                    612 76 -76 77 hstemhm
90 577 hintmask 10100000
171 612 rmoveto
-57 -300 rlineto
86 hlineto
58 300 rlineto
71 hlineto
15 76 rlineto
-238 hlineto
-16 -76 rlineto
355 -230 rmoveto
25 hlineto
80 callgsubr
79 callsubr
hintmask 01100000
85 callgsubr
42 217 rlineto
3 hlineto
endchar
                </CharString>
                <CharString name="two">
                    0 132 420 145 hstem
411 157 vstem
499 hmoveto
25 132 rlineto
-265 hlineto
198 134 111 104 137 vvcurveto
152 -145 67 -262 -41 vhcurveto
-22 -143 rlineto
208 30 64 -37 -69 vvcurveto
-100 -134 -97 -230 -152 vhcurveto
-1 -117 rlineto
endchar
                </CharString>
                <CharString name="two.den">
                    -233 86 callsubr
310 130 vstem
391 -233 -69 callgsubr
                </CharString>
                <CharString name="two.inf">
                    -167 86 callsubr
324 130 vstem
405 -167 -69 callgsubr
                </CharString>
                <CharString name="two.num">
                    472 83 callsubr
432 130 hintmask 10110000
-35 callsubr
hintmask 01110000
9 callgsubr
hintmask 10110000
77 callgsubr
                </CharString>
                <CharString name="two.small">
                    0 86 callsubr
348 130 vstem
429 hmoveto
-86 callgsubr
9 callgsubr
77 callgsubr
                </CharString>
                <CharString name="two.sup">
                    361 86 callsubr
410 130 vstem
491 361 -69 callgsubr
                </CharString>
                <CharString name="twofifths">
                    3 callgsubr
86 83 callsubr
90 callsubr
12 130 hintmask 01110101
-35 callsubr
hintmask 01101101
-56 -99 -60 -155 -85 vhcurveto
hintmask 11110111
-2 -91 rlineto
-110 -181 -32 callsubr
                </CharString>
                <CharString name="twothirds">
                    -239 91 callgsubr
86 95 86 83 callsubr
293 121 18 130 hintmask 11110101
-35 callsubr
hintmask 11101101
31 callsubr
329 -486 -88 callsubr
                </CharString>
                <CharString name="u">
                    44 callsubr
591 51 -41 callgsubr
                </CharString>
                <CharString name="uacute">
                    44 callsubr
237 695 -107 callsubr
354 -644 -41 callgsubr
                </CharString>
                <CharString name="ubreve">
                    -45 callsubr
84 119 16 callsubr
575 851 -104 callsubr
-71 -747 -98 callgsubr
                </CharString>
                <CharString name="ucircumflex">
                    -45 callsubr
155 -20 22 -20 6 callsubr
hintmask 01011010
527 625 -66 callgsubr
hintmask 01010110
22 callsubr
rlineto
hintmask 01101011
-28 callgsubr
170 -681 -42 callsubr
                </CharString>
                <CharString name="udieresis">
                    -45 callsubr
101 153 16 callsubr
601 652 -102 callsubr
406 -598 -98 callgsubr
                </CharString>
                <CharString name="ugrave">
                    -45 callsubr
141 -20 16 callsubr
591 690 -96 callgsubr
31 -575 -98 callgsubr
                </CharString>
                <CharString name="uhungarumlaut">
                    -45 callsubr
135 -20 21 -20 6 callsubr
hintmask 01010110
276 634 -77 callgsubr
hintmask 01101011
30 callsubr
142 -633 -42 callsubr
                </CharString>
                <CharString name="umacron">
                    -45 callsubr
115 128 16 callsubr
631 792 -56 callgsubr
-15 -613 -98 callgsubr
                </CharString>
                <CharString name="underscore">
                    -174 117 hstem
-40 576 vstem
536 -57 rmoveto
-553 hlineto
-23 -117 rlineto
554 hlineto
endchar
                </CharString>
                <CharString name="underscore.alt">
                    -174 117 hstem
-82 656 vstem
574 -57 rmoveto
-634 hlineto
-22 -117 rlineto
634 hlineto
endchar
                </CharString>
                <CharString name="uni00A0">
                    endchar
                </CharString>
                <CharString name="uogonek">
                    98 callgsubr
172 147 -126 -21 579 -20 26 -20 hstemhm
68 157 7 139 -17 155 hintmask 1001010100000000
528 82 callgsubr
32 29 45 191 75 vhcurveto
hintmask 0110101010000000
-32 callgsubr
-76 callgsubr
hintmask 0101011010000000
-76 callsubr
52 63 35 68 64 hvcurveto
-34 10 -22 19 -13 vhcurveto
hintmask 1001010100000000
-107 -52 -44 -59 -52 vvcurveto
-83 101 -52 195 92 vhcurveto
endchar
                </CharString>
                <CharString name="uring">
                    -45 callsubr
74 243 16 callsubr
434 866 -63 callgsubr
157 -815 -98 callgsubr
                </CharString>
                <CharString name="v">
                    -4 164 403 -20 25 -20 hstemhm
92 557 hintmask 10110000
299 160 rmoveto
-9 hlineto
-18 135 -15 141 -11 132 -154 -11 rcurveline
17 -184 29 -192 30 -185 rrcurveto
184 hlineto
hintmask 11010000
100 179 109 208 88 180 rrcurveto
-158 hlineto
hintmask 10110000
-62 -131 -62 -138 -68 -134 rrcurveto
endchar
                </CharString>
                <CharString name="w">
                    51 callsubr
331 hmoveto
-97 callgsubr
                </CharString>
                <CharString name="wacute">
                    51 callsubr
229 686 -107 callsubr
102 -686 rmoveto
-97 callgsubr
                </CharString>
                <CharString name="wcircumflex">
                    60 callsubr
154 67 callsubr
50 597 hintmask 11101000
518 616 39 callgsubr
-81 -723 rmoveto
-97 callgsubr
                </CharString>
                <CharString name="wdieresis">
                    60 callsubr
100 91 callsubr
50 597 vstem
593 643 -102 callsubr
154 -640 rmoveto
-97 callgsubr
                </CharString>
                <CharString name="wgrave">
                    51 callsubr
583 681 -96 callgsubr
-221 -617 rmoveto
-97 callgsubr
                </CharString>
                <CharString name="x">
                    19 -21 23 -21 24 -21 560 67 callsubr
-19 664 hintmask 10001100
367 -2 rmoveto
hintmask 00110100
172 5 -128 278 234 282 99 callsubr
-143 -191 rlineto
hintmask 01001100
-79 193 -172 -6 126 -277 -234 -282 rlineto
163 hlineto
143 191 rlineto
endchar
                </CharString>
                <CharString name="y">
                    -2 callsubr
494 -58 -83 callsubr
                </CharString>
                <CharString name="yacute">
                    -2 callsubr
227 700 -107 callsubr
267 -758 -83 callsubr
                </CharString>
                <CharString name="ycircumflex">
                    -2 callsubr
517 630 -82 callgsubr
83 -795 -83 callsubr
                </CharString>
                <CharString name="ydieresis">
                    -1 callsubr
100 153 35 callgsubr
hintmask 11011110
591 657 -102 callsubr
319 -712 -54 callsubr
                </CharString>
                <CharString name="yen">
                    21 -21 138 110 62 110 265 54 callsubr
hstemhm
36 643 hintmask 11100110
534 138 rmoveto
22 110 rlineto
-166 hlineto
41 62 rlineto
138 hlineto
21 110 rlineto
-87 hlineto
hintmask 11101010
176 268 10 callsubr
-183 -317 rlineto
hintmask 11100110
-78 321 rlineto
hintmask 11110010
-154 -7 75 -265 rlineto
-89 hlineto
-21 -110 rlineto
141 hlineto
18 -62 68 callgsubr
-22 -110 rlineto
176 hlineto
-29 -138 rlineto
151 hlineto
26 138 rlineto
endchar
                </CharString>
                <CharString name="ygrave">
                    -1 callsubr
140 -20 35 callgsubr
hintmask 11011110
581 695 -96 callgsubr
-56 -689 -54 callsubr
                </CharString>
                <CharString name="z">
                    13 callgsubr
hstem
35 564 vstem
489 hmoveto
-52 callsubr
                </CharString>
                <CharString name="zacute">
                    13 callgsubr
hstem
35 564 vstem
226 -34 callgsubr
263 -688 rmoveto
-52 callsubr
                </CharString>
                <CharString name="zcaron">
                    13 callgsubr
hstem
35 601 vstem
388 615 -94 callgsubr
111 -615 rmoveto
-52 callsubr
                </CharString>
                <CharString name="zdotaccent">
                    13 callgsubr
30 callgsubr
hstem
35 564 vstem
466 644 -50 callgsubr
192 -643 rmoveto
-52 callsubr
                </CharString>
                <CharString name="zero">
                    -14 124 468 125 hstem
57 152 230 153 vstem
57 244 rmoveto
-171 89 callsubr
245 169 88 callsubr
-246 vhcurveto
303 334 rmoveto
43 29 -37 -72 7 hvcurveto
-223 -116 rlineto
117 20 55 108 69 hhcurveto
-71 -468 rmoveto
-45 -29 39 78 -6 hvcurveto
225 115 rlineto
-120 -19 -55 -112 -71 hhcurveto
endchar
                </CharString>
                <CharString name="zero.alt">
                    -14 129 458 130 hstem
57 149 237 149 vstem
57 250 rmoveto
-177 89 callsubr
241 173 88 callsubr
-240 vhcurveto
149 8 rmoveto
146 66 169 90 48 33 -45 -97 -148 -66 -168 -91 -48 -32 44 99 vhcurveto
endchar
                </CharString>
                <CharString name="zero.den">
                    -244 73 callsubr
59 48 callgsubr
59 -65 -85 callgsubr
                </CharString>
                <CharString name="zero.inf">
                    -178 73 callsubr
73 48 callgsubr
73 1 -85 callgsubr
                </CharString>
                <CharString name="zero.num">
                    461 73 callsubr
181 48 callgsubr
181 640 -85 callgsubr
                </CharString>
                <CharString name="zero.small">
                    -11 73 callsubr
97 48 callgsubr
97 168 -85 callgsubr
                </CharString>
                <CharString name="zero.sup">
                    350 73 callsubr
159 48 callgsubr
159 529 -85 callgsubr
                </CharString>
                <CharString name="less_exclam_hyphen_hyphen.liga">
                    0 171 98 134 hstem
-1787 496 250 343 839 366 vstem
-898 753 rmoveto
-44 -468 rlineto
104 hlineto
140 468 rlineto
-862 -350 rmoveto
269 168 -63 122 -410 -265 -23 -129 313 -327 107 103 -195 194 rlineto
496 hlineto
26 134 rlineto
312 -134 rmoveto
1209 hlineto
26 134 rlineto
-1208 hlineto
-157 -403 rmoveto
34 171 rlineto
-184 hlineto
-33 -171 rlineto
endchar
                </CharString>
                <CharString name="equal_equal_equal.liga">
                    31 132 111 131 112 131 hstem
-1223 1845 vstem
-1127 517 rmoveto
1723 hlineto
26 131 rlineto
-1722 hlineto
1648 -374 rmoveto
27 132 rlineto
-1723 hlineto
-27 -132 rlineto
1675 -243 rmoveto
27 132 rlineto
-1723 hlineto
-27 -132 rlineto
endchar
                </CharString>
                <CharString name="equal_equal_greater.liga">
                    152 132 111 131 hstem
-1199 1758 vstem
139 589 rmoveto
64 -63 rlineto
-1327 hlineto
-27 -131 rlineto
1486 hlineto
74 -73 -2 -13 -40 -25 rlineto
-1539 hlineto
-27 -132 rlineto
1355 hlineto
-93 -58 63 -122 409 264 24 130 -313 327 rlineto
endchar
                </CharString>
                <CharString name="equal_less_less.liga">
                    152 132 111 131 hstemhm
-1199 1783 -916 496 -76 496 hintmask 11010000
164 571 rmoveto
-63 122 -258 -167 rlineto
-967 hlineto
-27 -131 rlineto
836 hlineto
-17 -96 14 -15 rlineto
-854 hlineto
hintmask 11100000
-27 -132 rlineto
1008 hlineto
172 -180 rlineto
hintmask 11001000
107 103 -270 268 2 13 rlineto
764 215 rmoveto
-63 122 -410 -265 -23 -129 313 -327 107 103 -270 268 2 13 rlineto
endchar
                </CharString>
                <CharString name="exclam_equal_equal.liga">
                    -215 1031 -785 132 111 131 112 131 hstemhm
-1223 1845 -1318 791 hintmask 01111000
622 648 rmoveto
-606 hlineto
hintmask 01110100
79 118 rlineto
hintmask 10000100
-129 50 rlineto
hintmask 01110100
-112 -168 rlineto
-954 hlineto
-27 -131 rlineto
893 hlineto
-74 -111 rlineto
-840 hlineto
-27 -132 rlineto
779 hlineto
-74 -111 rlineto
-726 hlineto
-27 -132 rlineto
665 hlineto
-138 -206 rlineto
hintmask 10000100
138 -40 rlineto
hintmask 01110100
164 246 rlineto
894 hlineto
27 132 rlineto
-833 hlineto
74 111 rlineto
780 hlineto
27 132 rlineto
-720 hlineto
74 111 rlineto
667 hlineto
endchar
                </CharString>
                <CharString name="greater_equal_greater.liga">
                    152 132 111 131 hstemhm
-1187 496 -496 1746 -496 496 hintmask 11100000
139 589 rmoveto
64 -63 rlineto
-1047 hlineto
-160 167 -107 -104 270 -267 -2 -13 -344 -215 63 -122 279 180 rlineto
1001 hlineto
hintmask 11101000
-93 -58 63 -122 409 264 rlineto
hintmask 11010000
24 130 -313 327 rlineto
121 -409 rmoveto
-1073 hlineto
hintmask 11100000
15 82 -28 29 rlineto
1054 hlineto
74 -73 -2 -13 rlineto
endchar
                </CharString>
                <CharString name="greater_greater_equal.liga">
                    152 132 111 131 hstemhm
-1187 496 -496 1785 -1365 496 hintmask 11001000
-1004 693 rmoveto
-107 -104 270 -267 -2 -13 rlineto
hintmask 11010000
-344 -215 63 -122 409 264 rlineto
hintmask 11100000
24 130 rlineto
267 160 rmoveto
-160 167 -107 -104 270 -267 -2 -13 rlineto
hintmask 11001000
-344 -215 63 -122 279 180 rlineto
949 hlineto
27 132 rlineto
-837 hlineto
15 82 -28 29 rlineto
871 hlineto
hintmask 11010000
26 131 rlineto
endchar
                </CharString>
                <CharString name="hyphen_hyphen_greater.liga">
                    269 134 hstem
-1109 1668 vstem
139 589 rmoveto
188 -186 rlineto
-1409 hlineto
-27 -134 rlineto
1452 hlineto
-280 -175 63 -122 409 264 24 130 -313 327 rlineto
endchar
                </CharString>
                <CharString name="less_equal_equal.liga">
                    152 132 111 131 hstemhm
-1162 496 -496 1760 hintmask 11010000
572 395 rmoveto
26 131 rlineto
-1336 hlineto
hintmask 11100000
72 45 -63 122 -410 -265 rlineto
hintmask 11010000
-23 -129 313 -327 107 103 -78 77 rlineto
1344 hlineto
27 132 rlineto
-1504 hlineto
-59 59 2 13 62 39 rlineto
endchar
                </CharString>
                <CharString name="less_equal_greater.liga">
                    152 132 111 131 hstem
-1162 1721 vstem
139 589 rmoveto
64 -63 rlineto
-941 hlineto
72 45 -63 122 -410 -265 -23 -129 313 -327 107 103 -78 77 rlineto
976 hlineto
-93 -58 63 -122 409 264 24 130 -313 327 rlineto
121 -409 rmoveto
-1320 hlineto
-59 59 2 13 62 39 rlineto
1283 hlineto
74 -73 -2 -13 rlineto
endchar
                </CharString>
                <CharString name="less_equal_less.liga">
                    152 132 111 131 hstem
-1162 1746 vstem
584 571 rmoveto
-63 122 -258 -167 rlineto
-1001 hlineto
72 45 -63 122 -410 -265 -23 -129 313 -327 107 103 -78 77 rlineto
1049 hlineto
172 -180 107 103 -270 268 2 13 rlineto
-1252 -13 rmoveto
2 13 62 39 rlineto
1053 hlineto
-17 -96 14 -15 rlineto
-1055 hlineto
endchar
                </CharString>
                <CharString name="less_hyphen_hyphen.liga">
                    269 134 hstem
-1162 1669 vstem
-935 403 rmoveto
269 168 -63 122 -410 -265 -23 -129 313 -327 107 103 -195 194 rlineto
1418 hlineto
26 134 rlineto
endchar
                </CharString>
                <CharString name="ampersand_ampersand.liga">
                    -10 137 hstem
-513 149 381 149 vstem
-513 142 rmoveto
-91 50 -61 97 69 73 31 66 76 vhcurveto
140 -156 296 46 94 110 25 -37 27 -36 30 -37 131 90 rcurveline
-40 48 -34 45 -30 44 42 52 43 62 44 73 -123 44 rcurveline
-24 -48 -24 -41 -22 -35 -23 45 -18 42 -11 40 rrcurveto
72 67 40 69 51 vvcurveto
52 -44 33 -62 -82 -86 -62 -134 -17 1 -18 3 -19 vhcurveto
-152 -118 -48 -108 -92 vvcurveto
-1 vlineto
-25 26 -21 23 -10 14 42 52 43 62 44 73 -123 44 rcurveline
-24 -48 -24 -41 -22 -35 -23 45 -18 42 -11 40 rrcurveto
72 67 40 69 51 vvcurveto
52 -44 33 -62 -82 -86 -62 -134 -17 1 -18 3 -19 vhcurveto
-152 -118 -48 -108 -92 vvcurveto
149 39 rmoveto
40 24 53 60 60 vhcurveto
18 -48 24 -51 30 -53 rrcurveto
-40 -44 -38 -15 -28 hhcurveto
-29 -17 16 38 hvcurveto
530 hmoveto
40 24 53 60 60 vhcurveto
18 -48 24 -51 30 -53 rrcurveto
-40 -44 -38 -15 -28 hhcurveto
-29 -17 16 38 hvcurveto
endchar
                </CharString>
                <CharString name="bar_bar.liga">
                    -402 342 125 342 vstem
-208 795 rmoveto
-194 -998 rlineto
147 hlineto
195 1001 rlineto
319 -3 rmoveto
-194 -998 rlineto
147 hlineto
195 1001 rlineto
endchar
                </CharString>
                <CharString name="bar_greater.liga">
                    -356 755 vstem
-162 795 rmoveto
-194 -998 rlineto
147 hlineto
584 439 24 130 -413 432 rlineto
-156 -803 rmoveto
122 626 297 -299 -2 -13 rlineto
endchar
                </CharString>
                <CharString name="colon_equal.liga">
                    124 186 57 187 hstem
-441 909 vstem
-397 370 rmoveto
189 -3 39 187 -189 3 rlineto
227 -162 rmoveto
573 hlineto
26 131 rlineto
-572 hlineto
-148 -402 rmoveto
39 187 -189 3 -39 -187 rlineto
835 25 rmoveto
27 132 rlineto
-573 hlineto
-27 -132 rlineto
endchar
                </CharString>
                <CharString name="equal_equal.liga">
                    152 132 111 131 hstem
-574 1172 vstem
598 526 rmoveto
-1097 hlineto
-27 -131 rlineto
1098 hlineto
-21 -111 rmoveto
-1098 hlineto
-27 -132 rlineto
1098 hlineto
endchar
                </CharString>
                <CharString name="equal_greater.liga">
                    152 132 111 131 hstem
-574 1133 vstem
139 589 rmoveto
64 -63 rlineto
-702 hlineto
-27 -131 rlineto
861 hlineto
74 -73 -2 -13 -40 -25 rlineto
-914 hlineto
-27 -132 rlineto
730 hlineto
-93 -58 63 -122 409 264 24 130 -313 327 rlineto
endchar
                </CharString>
                <CharString name="exclam_equal.liga">
                    -215 1031 -664 132 111 131 hstemhm
-574 1172 -982 791 hintmask 01110000
598 526 rmoveto
-351 hlineto
hintmask 01101000
160 240 rlineto
hintmask 10001000
-129 50 rlineto
hintmask 01101000
-194 -290 rlineto
-583 hlineto
-27 -131 rlineto
523 hlineto
-74 -111 rlineto
-470 hlineto
-27 -132 rlineto
408 hlineto
-218 -327 rlineto
hintmask 10001000
138 -40 rlineto
hintmask 01001000
244 367 rlineto
526 hlineto
27 132 rlineto
-465 hlineto
hintmask 01101000
74 111 rlineto
412 hlineto
endchar
                </CharString>
                <CharString name="greater_equal.liga">
                    -436 766 vstem
-403 -45 rmoveto
817 313 25 129 -703 311 -72 -129 543 -240 -3 -14 -629 -243 rlineto
817 75 rmoveto
-868 -335 23 -127 816 313 rlineto
endchar
                </CharString>
                <CharString name="hyphen_greater.liga">
                    269 134 hstem
-484 1043 vstem
139 589 rmoveto
188 -186 rlineto
-784 hlineto
-27 -134 rlineto
827 hlineto
-280 -175 63 -122 409 264 24 130 -313 327 rlineto
endchar
                </CharString>
                <CharString name="hyphen_hyphen.liga">
                    269 134 hstem
-407 366 103 366 vstem
-41 403 rmoveto
-339 hlineto
-27 -134 rlineto
340 hlineto
495 134 rmoveto
-339 hlineto
-27 -134 rlineto
340 hlineto
endchar
                </CharString>
                <CharString name="less_bar.liga">
                    -376 738 vstem
-353 428 rmoveto
-23 -129 396 -502 rlineto
147 hlineto
195 1001 -148 -3 rlineto
-440 -452 rmoveto
2 13 402 254 -121 -622 rlineto
endchar
                </CharString>
                <CharString name="less_equal.liga">
                    29 -21 700 -20 hstem
-411 921 vstem
-129 325 rmoveto
3 14 636 240 -22 129 -824 -311 -25 -129 696 -313 71 127 rlineto
-122 -387 rmoveto
72 127 -738 335 -29 -149 rlineto
endchar
                </CharString>
                <CharString name="less_hyphen.liga">
                    269 134 hstem
-537 1044 vstem
-310 403 rmoveto
269 168 -63 122 -410 -265 -23 -129 313 -327 107 103 -195 194 rlineto
793 hlineto
26 134 rlineto
endchar
                </CharString>
                <CharString name="less_slash.liga">
                    -215 1031 hstemhm
-537 496 -282 791 hintmask 10100000
-140 98 rmoveto
-247 245 2 13 rlineto
hintmask 11000000
344 215 -63 122 -410 -265 -23 -129 313 -327 rlineto
hintmask 10100000
-99 -147 138 -40 653 981 -129 50 rlineto
endchar
                </CharString>
                <CharString name="plus_plus.liga">
                    271 131 hstem
-3 525 vstem
379 589 rmoveto
-140 hlineto
-36 -187 rlineto
-359 hlineto
37 187 rlineto
-140 hlineto
-36 -187 rlineto
-179 hlineto
-27 -131 rlineto
181 hlineto
-37 -189 rlineto
139 hlineto
37 189 rlineto
359 hlineto
-37 -189 rlineto
139 hlineto
37 189 rlineto
179 hlineto
26 131 rlineto
-180 hlineto
endchar
                </CharString>
                <CharString name="question_question.liga">
                    0 168 hstem
-71 177 303 177 vstem
-329 599 rmoveto
172 -18 86 -23 -61 vvcurveto
-50 -56 -39 -148 -77 vhcurveto
48 -81 rlineto
239 116 94 94 94 vvcurveto
109 -126 65 -273 27 vhcurveto
444 -156 rmoveto
172 -18 86 -23 -61 vvcurveto
-50 -56 -39 -148 -77 vhcurveto
48 -81 rlineto
239 116 94 94 94 vvcurveto
109 -126 65 -273 27 vhcurveto
-371 -755 rmoveto
33 168 rlineto
-181 hlineto
-33 -168 rlineto
661 hmoveto
33 168 rlineto
-181 hlineto
-33 -168 rlineto
endchar
                </CharString>
                <CharString name="slash_greater.liga">
                    -215 1031 hstemhm
-496 791 -232 496 hintmask 11000000
295 766 rmoveto
-129 50 -662 -991 138 -40 520 781 247 -244 -2 -13 rlineto
hintmask 10100000
-344 -215 63 -122 409 264 24 130 -313 327 rlineto
endchar
                </CharString>
                <CharString name="underscore_underscore.liga">
                    -174 117 hstem
-707 1281 vstem
574 -57 rmoveto
-1259 hlineto
-22 -117 rlineto
1259 hlineto
endchar
                </CharString>
                <CharString name="ampersand.spacer">
                    endchar
                </CharString>
                <CharString name="bar.spacer">
                    endchar
                </CharString>
                <CharString name="colon.spacer">
                    endchar
                </CharString>
                <CharString name="equal.spacer">
                    endchar
                </CharString>
                <CharString name="exclam.spacer">
                    endchar
                </CharString>
                <CharString name="greater.spacer">
                    endchar
                </CharString>
                <CharString name="hyphen.spacer">
                    endchar
                </CharString>
                <CharString name="less.spacer">
                    endchar
                </CharString>
                <CharString name="LIG">
                    endchar
                </CharString>
                <CharString name="percent.alt">
                    -143 91 -74 852 -644 90 255 91 134 90 hstemhm
-14 654 -608 95 315 92 hintmask 00010010
181 427 rmoveto
79 66 68 95 18 hvcurveto
hintmask 00001010
93 19 -33 59 -79 hhcurveto
-79 -66 -68 -95 -19 hvcurveto
hintmask 00010010
-94 -18 33 -58 79 hhcurveto
hintmask 01000011
352 299 rmoveto
hintmask 01000100
-547 -819 114 -33 539 811 rlineto
hintmask 00001100
-411 -33 rmoveto
26 7 -27 -45 -8 hvcurveto
hintmask 00010100
-39 -8 -16 -23 -25 hhcurveto
-26 -7 26 45 8 hvcurveto
hintmask 00001100
39 8 16 24 25 hhcurveto
hintmask 10000100
142 -795 rmoveto
hintmask 10000011
79 66 68 95 19 hvcurveto
hintmask 00100011
93 18 -33 59 -79 hhcurveto
-79 -66 -68 -95 -18 hvcurveto
hintmask 10000011
-94 -19 33 -58 79 hhcurveto
hintmask 00100011
47 225 rmoveto
26 7 -27 -45 -8 hvcurveto
hintmask 10000011
-39 -8 -15 -23 -25 hhcurveto
-26 -8 26 45 8 hvcurveto
hintmask 00100011
39 8 16 24 25 hhcurveto
endchar
                </CharString>
                <CharString name="plus.spacer">
                    endchar
                </CharString>
                <CharString name="question.spacer">
                    endchar
                </CharString>
                <CharString name="slash.spacer">
                    endchar
                </CharString>
                <CharString name="underscore.spacer">
                    endchar
                </CharString>
                <CharString name="uniE0A0">
                    -136 63 193 127 320 -20 20 64 64 64 hstemhm
0 64 0 128 0 64 128 64 0 128 0 64 hintmask 0000000000000000
hintmask 1101101010100000
512 631 rmoveto
-71 -57 -57 -71 hvcurveto
hintmask 1110101001000000
-47 26 -41 38 -22 vhcurveto
-18 vlineto
-64 -64 -64 -64 -53 -42 -11 -18 -33 vhcurveto
303 vlineto
hintmask 1110110110100000
38 22 26 41 47 vvcurveto
71 -57 57 -71 -71 -57 -57 -71 vhcurveto
hintmask 1110101010100000
-47 26 -41 38 -22 vhcurveto
-419 vlineto
hintmask 1110110101000000
-38 -22 -26 -41 -47 vvcurveto
-71 57 -57 71 71 57 57 71 34 -13 30 -21 23 vhcurveto
23 19 30 18 49 hhcurveto
128 128 128 128 hvcurveto
18 vlineto
hintmask 1110101010100000
38 22 26 41 47 vvcurveto
hintmask 1101101010100000
71 -57 57 -71 vhcurveto
hintmask 1110110110100000
-384 63 rmoveto
35 29 -29 -35 -35 -29 -29 -35 -35 -29 29 35 35 29 29 35 hvcurveto
384 -256 rmoveto
hintmask 1101101010100000
-35 -29 29 35 35 29 29 35 35 29 -29 -35 hvcurveto
hintmask 1110110110100000
-35 -29 -29 -35 vhcurveto
-384 -512 rmoveto
-35 -29 29 35 35 29 29 35 35 29 -29 -35 -35 -29 -29 -35 hvcurveto
endchar
                </CharString>
                <CharString name="uniE0B0">
                    -205 1209 hstem
-20 692 vstem
-18 1004 rmoveto
-2 -1209 692 570 rlineto
endchar
                </CharString>
                <CharString name="uniE0B2">
                    -205 1209 hstem
-20 692 vstem
672 -205 rmoveto
-2 1209 -690 -639 rlineto
endchar
                </CharString>
            <CharString index="0">
                rmoveto
-103 callgsubr
63 hvcurveto
-4 -116 56 -37 182 109 rrcurveto
-341 80 -99 callsubr
            </CharString>
            <CharString index="1">
                rmoveto
-14 78 -261 -47 -68 11 -6 96 rlinecurve
-81 callgsubr
-183 165 -121 333 168 vhcurveto
-188 388 -78 callgsubr
            </CharString>
            <CharString index="2">
                rmoveto
145 -86 88 -135 -29 callsubr
-145 86 -89 135 -29 callgsubr
vhcurveto
-374 -110 rmoveto
108 53 109 80 51 33 -45 -81 -107 -53 -109 -80 -51 -33 44 81 vhcurveto
endchar
            </CharString>
            <CharString index="3">
                -63 callsubr
-98 callsubr
return
            </CharString>
            <CharString index="4">
                -12 76 -77 -15 -3 1 9 45 rlinecurve
75 390 rlineto
18 -59 -64 9 -53 hhcurveto
-228 -131 -210 -206 -118 50 -55 66 58 72 48 61 return
            </CharString>
            <CharString index="5">
                -90 callsubr
-67 callgsubr
-41 callsubr
            </CharString>
            <CharString index="6">
                rmoveto
-100 callsubr
432 hlineto
endchar
            </CharString>
            <CharString index="7">
                rmoveto
109 85 68 97 106 -114 44 -114 -66 hvcurveto
-58 callgsubr
-54 callgsubr
80 40 53 -25 -50 vvcurveto
-33 -18 -31 -45 vhcurveto
endchar
            </CharString>
            <CharString index="8">
                rmoveto
-84 callgsubr
-43 callgsubr
-14 -74 rlineto
110 hlineto
14 74 rlineto
return
            </CharString>
            <CharString index="9">
                -33 callgsubr
hintmask 10101110
-76 callgsubr
hintmask 01011110
-91 callsubr
            </CharString>
            <CharString index="10">
                147 hlineto
81 244 45 147 43 170 rrcurveto
-158 hlineto
-24 -135 -16 -92 -30 -160 rrcurveto
-6 hlineto
-20 234 rlineto
-90 hlineto
-112 -234 rlineto
-3 hlineto
29 153 18 96 30 138 rrcurveto
-154 hlineto
-32 -215 -24 -236 -5 -110 rrcurveto
142 hlineto
116 227 rlineto
endchar
            </CharString>
            <CharString index="11">
                rmoveto
-73 45 -110 83 -76 66 -87 -121 rcurveline
86 -49 143 -63 86 -25 rrcurveto
return
            </CharString>
            <CharString index="12">
                rmoveto
63 -26 83 54 62 93 17 98 rlinecurve
-191 -2 6 -68 -13 -83 -27 -66 rlinecurve
endchar
            </CharString>
            <CharString index="13">
                rmoveto
248 162 -68 77 -157 -102 -106 106 -104 -79 177 -164 rlineto
return
            </CharString>
            <CharString index="14">
                152 hlineto
43 130 73 262 72 296 rrcurveto
-155 hlineto
-102 -468 rlineto
-5 hlineto
-7 260 rlineto
-86 hlineto
-109 -260 rlineto
-5 hlineto
77 468 10 callsubr
-44 -293 -25 -263 -3 -132 rrcurveto
146 hlineto
127 296 rlineto
endchar
            </CharString>
            <CharString index="15">
                rmoveto
hintmask 00111110
-71 callgsubr
hintmask 01011110
-89 callgsubr
hintmask 10011110
-9 callgsubr
hintmask 00111110
-87 callsubr
            </CharString>
            <CharString index="16">
                rmoveto
-8 78 -138 -32 -19 13 185 437 rlinecurve
-75 32 -46 -25 -69 -22 -66 -14 rlinecurve
1 7 0 6 7 vvcurveto
48 -28 28 -43 -82 -80 -78 -68 -39 30 -23 44 -11 vhcurveto
-33 -54 -45 -55 -61 -69 53 -56 rcurveline
83 80 67 77 43 71 34 2 36 6 35 9 -175 -388 76 -94 281 127 rrcurveto
return
            </CharString>
            <CharString index="17">
                22 99 rlineto
-112 hlineto
72 355 -119 -10 -13 -65 -122 -12 -17 -89 rlineto
118 hlineto
return
            </CharString>
            <CharString index="18">
                -106 -228 -103 -231 -94 -229 rrcurveto
161 hlineto
20 55 22 56 21 56 rrcurveto
176 hlineto
return
            </CharString>
            <CharString index="19">
                rmoveto
47 -40 39 -97 26 vhcurveto
162 96 12 97 rlineto
-308 hlineto
-20 -99 rlineto
180 hlineto
-169 -97 return
            </CharString>
            <CharString index="20">
                -88 callgsubr
-75 callsubr
return
            </CharString>
            <CharString index="21">
                21 100 rlineto
-180 hlineto
134 80 74 64 79 vvcurveto
94 -105 50 -204 -31 vhcurveto
-14 -103 92 callsubr
19 45 -22 -38 vvcurveto
return
            </CharString>
            <CharString index="22">
                rmoveto
-112 65 -67 95 130 108 130 150 114 -63 67 -95 -131 -109 -131 -151 vhcurveto
280 93 rmoveto
-83 -43 -90 -62 -35 -20 30 58 83 41 92 62 37 20 -30 -60 vhcurveto
endchar
            </CharString>
            <CharString index="23">
                28 98 rlineto
-54 hlineto
25 127 -111 -8 -23 -119 rlineto
-108 hlineto
50 72 38 75 42 119 -128 6 rcurveline
return
            </CharString>
            <CharString index="24">
                rmoveto
-20 callsubr
-15 callgsubr
hintmask 01111000
-31 -154 rlineto
hintmask 10111000
361 -70 143 120 116 -30 callgsubr
return
            </CharString>
            <CharString index="25">
                -66 callgsubr
22 callsubr
-28 callgsubr
return
            </CharString>
            <CharString index="26">
                246 18 130 79 130 vvcurveto
91 -66 56 -105 -197 -157 -195 -181 return
            </CharString>
            <CharString index="27">
                rmoveto
35 callsubr
-232 158 -97 299 98 hvcurveto
16 140 rlineto
-14 callgsubr
51 11 -37 -103 -3 callgsubr
9 -49 90 -137 hhcurveto
endchar
            </CharString>
            <CharString index="28">
                14 -31 -32 7 -37 hhcurveto
-193 -128 -191 -182 -117 59 -51 72 60 63 36 50 55 hvcurveto
6 -68 11 -62 -16 -16 -23 -24 -111 -8 -172 12 -15 -146 rcurveline
271 -10 137 55 42 84 rrcurveto
endchar
            </CharString>
            <CharString index="29">
                rmoveto
43 26 -24 -35 -64 -83 -34 -141 -11 hvcurveto
89 20 59 79 76 hhcurveto
endchar
            </CharString>
            <CharString index="30">
                rmoveto
74 53 91 86 53 60 -140 74 rcurveline
-34 -64 -63 -96 -48 -62 rrcurveto
308 -52 rmoveto
74 53 88 84 52 61 -144 65 rcurveline
return
            </CharString>
            <CharString index="31">
                -9 callsubr
-71 callsubr
return
            </CharString>
            <CharString index="32">
                rmoveto
60 callgsubr
hintmask 10100000
-73 callsubr
hintmask 01010000
-6 callgsubr
hintmask 10010000
27 callsubr
return
            </CharString>
            <CharString index="33">
                rmoveto
-13 73 rlineto
-150 -42 -39 14 80 6 0 7 6 vvcurveto
187 30 68 100 101 vvcurveto
hintmask 10011110
74 -46 55 -79 -38 -36 -12 -21 -33 vhcurveto
hintmask 11001110
19 -39 -45 9 -42 hhcurveto
-160 -115 -217 -209 -104 34 -46 62 55 51 33 49 47 hvcurveto
36 -92 104 -32 191 119 rrcurveto
hintmask 10101110
-112 382 rmoveto
18 6 -14 -20 -26 -18 -72 -87 -26 hvcurveto
85 15 32 73 34 hhcurveto
-279 -323 rmoveto
-23 -8 25 46 hvcurveto
hintmask 11001110
114 45 137 52 13 16 -2 -13 19 vhcurveto
-42 -71 -27 -95 -105 -3 0 -3 -2 vvcurveto
hintmask 10101110
-18 -14 -15 -10 -16 hhcurveto
endchar
            </CharString>
            <CharString index="34">
                rmoveto
-34 -25 21 57 83 48 119 66 17 31 -7 -20 38 hvcurveto
-23 -64 -18 -74 -5 -71 rrcurveto
-29 -34 -32 -15 -29 hhcurveto
227 -234 rmoveto
34 69 -33 89 124 3 0 3 3 vvcurveto
return
            </CharString>
            <CharString index="35">
                -33 -48 90 -72 hhcurveto
-62 -69 -67 -87 -53 hvcurveto
74 -43 rlineto
54 37 25 28 18 hhcurveto
return
            </CharString>
            <CharString index="36">
                159 12 -37 callgsubr
rlinecurve
-219 hlineto
return
            </CharString>
            <CharString index="37">
                12 92 -151 -9 -22 -165 -25 -127 -51 -266 rlinecurve
149 hlineto
74 368 rlineto
41 44 37 20 callsubr
return
            </CharString>
            <CharString index="38">
                -82 callsubr
9 callgsubr
77 callgsubr
            </CharString>
            <CharString index="39">
                rmoveto
-20 74 -147 -50 -74 6 -21 92 rlinecurve
206 155 117 164 142 vvcurveto
87 -48 47 -75 return
            </CharString>
            <CharString index="40">
                145 -16 50 -22 -27 vvcurveto
-28 -49 -24 -182 14 vhcurveto
return
            </CharString>
            <CharString index="41">
                rmoveto
104 79 -177 62 callgsubr
-10 hlineto
return
            </CharString>
            <CharString index="42">
                -86 callsubr
hintmask 1111101101000000
-40 callgsubr
hintmask 1111101011000000
18 callgsubr
hintmask 1111101101000000
-85 callsubr
            </CharString>
            <CharString index="43">
                rmoveto
110 55 111 81 24 20 -9 -18 14 vhcurveto
-193 -214 rlineto
-1 6 0 7 7 vvcurveto
87 -127 rmoveto
-22 -19 8 16 -15 hvcurveto
191 211 rlineto
-4 0 -5 -5 vvcurveto
-110 -54 -111 -81 vhcurveto
-20 -124 rmoveto
-29 callgsubr
47 -9 40 -16 34 hvcurveto
76 85 -81 60 -62 -69 rlineto
24 -35 -43 12 -51 hhcurveto
-29 callsubr
hvcurveto
hintmask 01111000
-48 9 -42 18 -34 vhcurveto
-75 -83 rlineto
hintmask 10111000
80 -60 62 68 rlineto
-23 34 43 -12 50 hhcurveto
endchar
            </CharString>
            <CharString index="44">
                rmoveto
-97 -66 -60 -70 -62 52 -51 85 97 68 61 70 61 -54 51 -85 hvcurveto
return
            </CharString>
            <CharString index="45">
                -77 callgsubr
30 callsubr
return
            </CharString>
            <CharString index="46">
                hintmask 11110110
55 callsubr
hintmask 11101110
-90 callgsubr
hintmask 11110110
-47 callsubr
return
            </CharString>
            <CharString index="47">
                rmoveto
67 116 81 122 94 110 21 100 rcurveline
-348 hlineto
-25 -102 rlineto
224 hlineto
1 -5 return
            </CharString>
            <CharString index="48">
                -63 callgsubr
138 -820 -107 callgsubr
            </CharString>
            <CharString index="49">
                27 49 61 48 132 22 -25 97 rcurveline
-238 -53 -90 -128 -129 vvcurveto
return
            </CharString>
            <CharString index="50">
                -104 callgsubr
hintmask 11101000
-40 callgsubr
hintmask 11011000
18 callgsubr
hintmask 11101000
-85 callsubr
            </CharString>
            <CharString index="51">
                rmoveto
-401 hlineto
-25 -128 rlineto
401 hlineto
return
            </CharString>
            <CharString index="52">
                -90 callgsubr
-44 callgsubr
endchar
            </CharString>
            <CharString index="53">
                -102 69 -53 98 vhcurveto
18 88 rmoveto
-34 -37 22 61 5 0 6 1 5 hvcurveto
return
            </CharString>
            <CharString index="54">
                770 -102 callsubr
return
            </CharString>
            <CharString index="55">
                27 140 -301 -3 376 417 22 134 rlineto
-473 hlineto
-27 -140 298 4 -381 -418 -25 -134 rlineto
endchar
            </CharString>
            <CharString index="56">
                18 callsubr
545 176 -75 callgsubr
return
            </CharString>
            <CharString index="57">
                rmoveto
50 153 -182 -1 -37 -153 rlineto
return
            </CharString>
            <CharString index="58">
                34 callgsubr
54 callgsubr
hintmask 10111000
474 -118 -78 callsubr
hintmask 01111000
19 callgsubr
return
            </CharString>
            <CharString index="59">
                -17 callgsubr
hintmask 01111100
40 callsubr
122 631 -152 -11 -38 -197 -38 callsubr
            </CharString>
            <CharString index="60">
                536 605 -88 callgsubr
rlineto
return
            </CharString>
            <CharString index="61">
                808 -96 callgsubr
return
            </CharString>
            <CharString index="62">
                rmoveto
-2 -90 -11 -83 -27 -89 64 -23 rcurveline
72 86 49 87 19 118 rrcurveto
return
            </CharString>
            <CharString index="63">
                -36 -180 rlineto
-123 hlineto
-19 -98 rlineto
return
            </CharString>
            <CharString index="64">
                -35 -121 -35 -77 -50 -91 -9 -81 rcurveline
215 hlineto
return
            </CharString>
            <CharString index="65">
                -111 396 -144 -4 -134 -686 61 callsubr
71 394 rlineto
6 hlineto
return
            </CharString>
            <CharString index="66">
                -33 callgsubr
hintmask 10101100
-76 callgsubr
hintmask 01011100
-91 callsubr
            </CharString>
            <CharString index="67">
                -95 -54 -23 -39 -44 vvcurveto
-62 59 -43 102 vhcurveto
return
            </CharString>
            <CharString index="68">
                -12 -105 rlineto
263 -18 98 84 85 vvcurveto
return
            </CharString>
            <CharString index="69">
                41 callgsubr
529 59 -61 callsubr
return
            </CharString>
            <CharString index="70">
                -12 230 -14 227 -15 225 return
            </CharString>
            <CharString index="71">
                26 135 rlineto
-292 hlineto
107 553 rlineto
-162 -28 callsubr
return
            </CharString>
            <CharString index="72">
                -78 callsubr
hintmask 01111100
71 callsubr
            </CharString>
            <CharString index="73">
                688 -107 callsubr
return
            </CharString>
            <CharString index="74">
                rmoveto
-32 callgsubr
return
            </CharString>
            <CharString index="75">
                -12 76 -72 -18 -4 4 9 44 rlinecurve
return
            </CharString>
            <CharString index="76">
                37 90 37 89 36 89 rrcurveto
endchar
            </CharString>
            <CharString index="77">
                154 -263 72 101 vvcurveto
38 33 27 47 51 33 -25 -71 20 vhcurveto
return
            </CharString>
            <CharString index="78">
                181 129 170 192 return
            </CharString>
            <CharString index="79">
                68 -76 157 102 rlineto
return
            </CharString>
            <CharString index="80">
                11 -21 31 -21 31 -21 678 -20 hstemhm
31 643 hintmask 10011000
394 -10 rmoveto
hintmask 00111000
168 20 -134 330 246 348 rlineto
-169 hlineto
-242 -345 rlineto
-98 345 rmoveto
hintmask 01011000
-134 -688 rlineto
159 hlineto
133 688 rlineto
return
            </CharString>
            <CharString index="81">
                -4 -106 68 -30 175 105 rrcurveto
endchar
            </CharString>
            <CharString index="82">
                160 13 -53 62 -119 hhcurveto
-192 -160 -173 -203 return
            </CharString>
            <CharString index="83">
                hstem
40 156 153 147 vstem
return
            </CharString>
            <CharString index="84">
                -13 131 87 82 168 124 return
            </CharString>
            <CharString index="85">
                -75 -61 -158 -84 7 callgsubr
return
            </CharString>
            <CharString index="86">
                889 -45 callgsubr
return
            </CharString>
            <CharString index="87">
                626 274 hstem
152 522 vstem
219 627 -62 callgsubr
endchar
            </CharString>
            <CharString index="88">
                85 callsubr
210 -21 hstemhm
121 139 hintmask 01110000
412 59 rmoveto
hintmask 10110000
-213 -60 -78 -77 -69 72 callgsubr
23 callsubr
endchar
            </CharString>
            <CharString index="89">
                542 621 -90 callsubr
return
            </CharString>
            <CharString index="90">
                rmoveto
-29 -23 25 63 101 62 132 65 18 31 -5 -11 34 hvcurveto
-47 -244 rlineto
-35 -39 -43 -26 -29 hhcurveto
return
            </CharString>
            <CharString index="91">
                70 113 52 133 57 vvcurveto
26 -64 25 -35 -13 -14 -10 -18 -15 vhcurveto
return
            </CharString>
            <CharString index="92">
                -161 257 -69 -83 vvcurveto
-46 -79 -25 -226 64 vhcurveto
return
            </CharString>
            <CharString index="93">
                -225 -71 -89 41 145 vvcurveto
126 67 158 100 return
            </CharString>
            <CharString index="94">
                113 -52 111 74 110 return
            </CharString>
            <CharString index="95">
                rmoveto
hintmask 11011110
-72 callgsubr
hintmask 11100110
-72 callsubr
hintmask 11011110
return
            </CharString>
            <CharString index="96">
                rmoveto
-292 -212 -105 -167 -187 vvcurveto
-137 60 -147 151 -183 vhcurveto
119 84 rlineto
-134 155 -45 117 114 vvcurveto
148 67 133 263 184 vhcurveto
endchar
            </CharString>
            <CharString index="97">
                51 64 169 110 vvcurveto
61 -24 53 -78 return
            </CharString>
            <CharString index="98">
                1 -58 1 -58 2 -57 rrcurveto
return
            </CharString>
            <CharString index="99">
                -136 -29 40 -69 87 hhcurveto
return
            </CharString>
            <CharString index="100">
                -253 -36 -52 26 111 vvcurveto
112 67 101 87 return
            </CharString>
            <CharString index="101">
                50 -57 58 -50 -40 vvcurveto
-40 -64 -11 -196 10 vhcurveto
return
            </CharString>
            <CharString index="102">
                -40 callsubr
hstem
47 return
            </CharString>
            <CharString index="103">
                -8 callsubr
-24 callgsubr
return
            </CharString>
            <CharString index="104">
                -2 vhcurveto
150 2 rlineto
189 return
            </CharString>
            <CharString index="105">
                -165 -7 123 -454 -45 -231 rlineto
endchar
            </CharString>
            <CharString index="106">
                0 8 -2 3 -4 -4 -2 -3 56 callgsubr
0 -9 2 -3 4 4 2 3 56 callgsubr
return
            </CharString>
            <CharString index="107">
                151 hstem
124 36 callgsubr
vstem
return
            </CharString>
            <CharString index="108">
                48 157 217 157 return
            </CharString>
            <CharString index="109">
                -14 136 443 137 return
            </CharString>
            <CharString index="110">
                -6 callsubr
86 95 return
            </CharString>
            <CharString index="111">
                623 251 hstem
155 363 vstem
155 -34 callgsubr
endchar
            </CharString>
            <CharString index="112">
                22 callgsubr
26 callsubr
return
            </CharString>
            <CharString index="113">
                -177 -186 -247 -306 return
            </CharString>
            <CharString index="114">
                vvcurveto
-91 84 -24 159 99 vhcurveto
return
            </CharString>
            <CharString index="115">
                69 rlineto
-102 38 callgsubr
return
            </CharString>
            <CharString index="116">
                -56 -99 -60 -155 -85 vhcurveto
return
            </CharString>
            <CharString index="117">
                61 31 29 36 27 hhcurveto
24 11 -32 -90 -4 hvcurveto
endchar
            </CharString>
            <CharString index="118">
                615 243 hstem
134 435 vstem
321 615 -94 callgsubr
endchar
            </CharString>
            <CharString index="119">
                910 -56 callgsubr
return
            </CharString>
            <CharString index="120">
                0 132.5 297.5 133 return
            </CharString>
            <CharString index="121">
                98.5 return
            </CharString>
            <CharString index="122">
                -101 -62 -132 -66 vhcurveto
-149 -296 rmoveto
33 170 rlineto
-1 16 14 -1 14 hhcurveto
221 132 208 199 125 -54 61 -67 return
            </CharString>
            <CharString index="123">
                604 291 hstem
279 204 vstem
319 -21 callgsubr
endchar
            </CharString>
            <CharString index="124">
                -21 558 134 hstemhm
115 162 return
            </CharString>
            <CharString index="125">
                116 79 57 72 hvcurveto
return
            </CharString>
            <CharString index="126">
                -185 104 -97 191 36 vhcurveto
-26 -117 rlineto
return
            </CharString>
            <CharString index="127">
                -181 -67 callsubr
return
            </CharString>
            <CharString index="128">
                -96 -106 -82 -111 -65 -111 return
            </CharString>
            <CharString index="129">
                21 -21 688 -20 return
            </CharString>
            <CharString index="130">
                643.5 91 callsubr
215 219 vstem
384 644 -50 callgsubr
endchar
            </CharString>
            <CharString index="131">
                -5 callgsubr
569 vstem
return
            </CharString>
            <CharString index="132">
                -15 144 433 141 66 callsubr
return
            </CharString>
            <CharString index="133">
                21 -21 685 54 callsubr
return
            </CharString>
            <CharString index="134">
                95 86 21 callsubr
return
            </CharString>
            <CharString index="135">
                hstemhm
385 163 return
            </CharString>
            <CharString index="136">
                rmoveto
362 hlineto
25 122 rlineto
-207 hlineto
141 733 99 callgsubr
24 122 rlineto
-361 hlineto
endchar
            </CharString>
            <CharString index="137">
                80.5 153 return
            </CharString>
            <CharString index="138">
                -7 127 331 118 -117 122 0 -20 hstemhm
16 158 76 144 114 141 hintmask 11001110
return
            </CharString>
            <CharString index="139">
                rmoveto
289 225 38 154 -206 240 -111 -105 180 -201 -277 -192 rlineto
endchar
            </CharString>
            <CharString index="140">
                rmoveto
210 -136 88 -299 -47 vhcurveto
return
            </CharString>
            <CharString index="141">
                -10 136 -108 -21 564 142 return
            </CharString>
            <CharString index="142">
                hstemhm
65 155 161 132 return
            </CharString>
            <CharString index="143">
                156 189 141 return
            </CharString>
            <CharString index="144">
                hstem
178 92 callgsubr
return
            </CharString>
            <CharString index="145">
                -29 -40 15 32 vvcurveto
return
            </CharString>
            <CharString index="146">
                -66 callgsubr
hintmask 11011000
22 callsubr
rlineto
hintmask 11101000
-28 callgsubr
return
            </CharString>
            <CharString index="147">
                22 callgsubr
22 -20 hstemhm
28 615 hintmask 10110000
return
            </CharString>
            <CharString index="148">
                -16 132 324 118 hstem
146 156 vstem
return
            </CharString>
            <CharString index="149">
                vstem
509 hmoveto
-36 callgsubr
return
            </CharString>
            <CharString index="150">
                hstem
59 154 217 140 vstem
return
            </CharString>
            <CharString index="151">
                8 callsubr
hstem
28 return
            </CharString>
            <CharString index="152">
                50 callgsubr
206 67 callgsubr
return
            </CharString>
            <CharString index="153">
                44 callgsubr
583 vstem
return
            </CharString>
            <CharString index="154">
                112 134 114 vstem
return
            </CharString>
            <CharString index="155">
                120 160 93 callsubr
return
            </CharString>
            <CharString index="156">
                rmoveto
-63 27 -83 -55 -63 -93 -16 -98 rlinecurve
191 2 -6 68 12 83 28 66 rlinecurve
return
            </CharString>
            <CharString index="157">
                -14 144 -142 128 335 127 return
            </CharString>
            <CharString index="158">
                25 callsubr
72 95 return
            </CharString>
            <CharString index="159">
                21 -21 553 135 hstem
102 552 vstem
return
            </CharString>
            <CharString index="160">
                hstemhm
211 261 -80 153 return
            </CharString>
            <CharString index="161">
                hstemhm
61 161 218 150 return
            </CharString>
            <CharString index="162">
                -13 130 -96 -21 return
            </CharString>
            <CharString index="163">
                0 hflex1
return
            </CharString>
            <CharString index="164">
                -7 8 -8 133 -104 -21 563 132 hstemhm
441 159 hintmask 10011000
return
            </CharString>
            <CharString index="165">
                78 hstem
50 87 376 87 vstem
50 269 rmoveto
-169 92 -92 135 return
            </CharString>
            <CharString index="166">
                -15 8 callgsubr
32 return
            </CharString>
            <CharString index="167">
                91 -92 78 -48 66 vhcurveto
return
            </CharString>
            <CharString index="168">
                136 -136 139 return
            </CharString>
            <CharString index="169">
                164 rlineto
return
            </CharString>
            <CharString index="170">
                102 callgsubr
523 0 callgsubr
return
            </CharString>
            <CharString index="171">
                hintmask 000000000000000100000010000000000000000000000000
return
            </CharString>
            <CharString index="172">
                101 8 -20 256 99 hstemhm
return
            </CharString>
            <CharString index="173">
                217 203 -93 99 -217 -217 -33 -154 rlineto
endchar
            </CharString>
            <CharString index="174">
                -20 hstemhm
41 154 154 149 return
            </CharString>
            <CharString index="175">
                rlineto
-171 hlineto
return
            </CharString>
            <CharString index="176">
                -22 callgsubr
endchar
            </CharString>
            <CharString index="177">
                141 -101 150 -128 147 -46 157 hintmask 10001000
return
            </CharString>
            <CharString index="178">
                600 433 33 callgsubr
return
            </CharString>
            <CharString index="179">
                vvcurveto
-81 102 -51 194 91 vhcurveto
return
            </CharString>
            <CharString index="180">
                hlineto
32 163 rlineto
return
            </CharString>
            <CharString index="181">
                88 119 73 return
            </CharString>
            <CharString index="182">
                10 hlineto
0 6 -1 3 -4 -3 -2 -2 56 callgsubr
return
            </CharString>
            <CharString index="183">
                -8 callgsubr
58 59 34 64 60 hvcurveto
return
            </CharString>
            <CharString index="184">
                -2 -91 rlineto
endchar
            </CharString>
            <CharString index="185">
                rlineto
111 return
            </CharString>
            <CharString index="186">
                -6 2 -3 5 4 2 2 4 1 vhcurveto
5 hlineto
return
            </CharString>
            <CharString index="187">
                75 147 rlineto
3 hlineto
-43 -217 rlineto
89 hlineto
return
            </CharString>
            <CharString index="188">
                -67 callsubr
329 return
            </CharString>
            <CharString index="189">
                -188 rmoveto
-15 8 callgsubr
return
            </CharString>
            <CharString index="190">
                hintmask 100000000000000000000000000000001000000000000000
return
            </CharString>
            <CharString index="191">
                -188 -93 rmoveto
217 216 33 155 return
            </CharString>
            <CharString index="192">
                -25 178 -88 -2 -73 -375 rlineto
86 hlineto
return
            </CharString>
            <CharString index="193">
                98 180 95 hstem
return
            </CharString>
            <CharString index="194">
                hlineto
-21 -109 rlineto
return
            </CharString>
            <CharString index="195">
                -14 -104 rlineto
return
            </CharString>
            <CharString index="196">
                121 -93.5 122 hstemhm
return
            </CharString>
            <CharString index="197">
                vstem
418 346 rmoveto
34 187 rlineto
return
            </CharString>
            <CharString index="198">
                101 244 99 return
            </CharString>
            <CharString index="199">
                161 vstem
return
            </CharString>
            <CharString index="200">
                rlineto
150 return
            </CharString>
            <CharString index="201">
                301 112 rmoveto
-18 -33 5 13 return
            </CharString>
            <CharString index="202">
                95 vvcurveto
105 -66 51 -178 -25 vhcurveto
return
            </CharString>
            <CharString index="203">
                -20 22 -20 return
            </CharString>
            <CharString index="204">
                rmoveto
215 224 31 154 return
            </CharString>
            <CharString index="205">
                -237 103 -33 -21 return
            </CharString>
            <CharString index="206">
                rlineto
207 hlineto
return
            </CharString>
            <CharString index="207">
                rlineto
162 hlineto
return
            </CharString>
            <CharString index="208">
                -20 21 -20 hstemhm
return
            </CharString>
            <CharString index="209">
                -11 123 return
            </CharString>
</ttFont>
